<svg width="172" height="222" viewBox="0 0 172 222" fill="none" xmlns="http://www.w3.org/2000/svg">
<g opacity="0.5" clip-path="url(#clip0_0_338)">
<path d="M118.648 80.6978C115.858 74.8893 112.63 69.2843 108.979 63.9212C112.142 54.6631 117.385 46.1807 124.477 39.062C130.64 32.8755 137.827 28.0882 145.657 24.8558C148.926 28.1389 151.927 31.6913 154.627 35.4731C135.028 41.7546 120.449 59.4261 118.648 80.6978Z" fill="white"/>
<path d="M144.423 85.151V137.284C144.423 169.623 118.215 195.933 86.0002 195.933C53.7859 195.933 27.577 169.623 27.577 137.284C27.577 122.91 15.9286 111.217 1.61133 111.217V98.1839C23.0877 98.1839 40.5601 115.724 40.5601 137.284C40.5601 162.436 60.9446 182.9 86.0006 182.9C111.057 182.9 131.441 162.436 131.441 137.284V85.1506C131.441 66.6318 144.332 51.0793 161.579 47.0599C163.536 51.0016 165.199 55.1143 166.532 59.373C154.037 61.2505 144.423 72.0938 144.423 85.151Z" fill="white"/>
<path d="M115.297 29.8443C110.948 34.2097 107.125 39.0695 103.933 44.2882L99.6115 51.354L93.432 45.1051C78.5217 30.137 60.61 19.269 41.0562 13.0448C46.0837 9.85656 51.4654 7.18346 57.1322 5.10612C71.7406 11.2857 85.3154 19.932 97.3318 30.8459C99.9998 27.238 102.938 23.8191 106.117 20.6287C110.926 15.8003 116.182 11.581 121.789 8.00728C126.334 10.1531 130.661 12.6896 134.721 15.5817C127.64 19.2473 121.09 24.0285 115.297 29.8443Z" fill="white"/>
<path d="M85.9992 222C39.4672 222 1.60986 183.996 1.60986 137.284V124.25C8.7685 124.25 14.5929 130.097 14.5929 137.284C14.5929 176.81 46.6258 208.967 85.9992 208.967C125.373 208.967 157.405 176.81 157.405 137.284V85.1507C157.405 78.2783 162.733 72.6351 169.459 72.1542C170.069 76.2538 170.388 80.448 170.388 84.7163V137.284C170.388 183.996 132.531 222 85.9992 222Z" fill="white"/>
<path d="M85.9992 169.867C68.1022 169.867 53.5417 155.25 53.5417 137.284C53.5417 108.538 30.2453 85.1509 1.60986 85.1509V84.7165C1.60986 80.4399 1.92992 76.2371 2.54238 72.1288C19.5453 72.3673 35.4866 79.1132 47.5212 91.1944C59.7752 103.496 66.5244 119.864 66.5244 137.284C66.5244 148.064 75.2608 156.834 85.9987 156.834C96.7367 156.834 105.473 148.064 105.473 137.284C105.473 85.4549 67.605 42.3432 18.1856 34.3516C21.1935 30.2815 24.556 26.4919 28.226 23.0257C49.2834 27.9188 68.6032 38.6134 84.2508 54.3221C106.308 76.4652 118.456 105.928 118.456 137.284C118.457 155.25 103.896 169.867 85.9992 169.867Z" fill="white"/>
<path d="M96.9365 11.4129C96.5418 11.8087 96.15 12.2085 95.7617 12.6113C89.8678 8.1102 83.6801 4.0522 77.2319 0.455111C80.1146 0.155065 83.0391 -0.000579834 85.9999 -0.000579834C93.2048 -0.000579834 100.201 0.91256 106.881 2.62612C103.397 5.33781 100.068 8.27019 96.9365 11.4129Z" fill="white"/>
<path d="M85.9995 143.799C82.4146 143.799 79.5082 140.881 79.5082 137.282C79.5082 95.4827 46.6689 61.2384 5.53027 59.1814C6.9163 54.7883 8.65003 50.5495 10.6995 46.4967C31.5565 48.5584 50.8892 57.7003 65.8872 72.7564C83.043 89.9791 92.4908 112.895 92.4908 137.282C92.4908 140.881 89.5844 143.799 85.9995 143.799Z" fill="white"/>
</g>
<defs>
<clipPath id="clip0_0_338">
<rect width="172" height="222" fill="white" transform="matrix(1 0 0 -1 0 222)"/>
</clipPath>
</defs>
</svg>
