<svg width="145" height="145" viewBox="0 0 145 145" fill="none" xmlns="http://www.w3.org/2000/svg">
<path d="M136.516 72.4759C136.537 86.0002 132.253 99.1805 124.283 110.109C117.84 118.968 109.231 126.026 99.2804 130.609C89.3294 135.192 78.3686 137.146 67.4462 136.285C56.5238 135.423 46.0051 131.775 36.8961 125.689C27.7871 119.603 20.3923 111.282 15.419 101.523C10.4458 91.7639 8.06027 80.8924 8.49069 69.9482C8.92111 59.0041 12.153 48.3534 17.8774 39.0146C23.6018 29.6759 31.6272 21.9614 41.1861 16.6089C50.745 11.2564 61.5178 8.44502 72.4741 8.44351C74.2271 8.44351 75.9801 8.51915 77.6953 8.65783C87.6178 9.45147 97.2158 12.5605 105.718 17.7351C112.274 21.7201 118.065 26.8434 122.82 32.8638C124.25 34.6883 125.585 36.5862 126.817 38.5497C133.179 48.7209 136.541 60.4802 136.516 72.4759Z" fill="#8C8C8C"/>
<g opacity="0.2">
<path d="M86.3341 102.633C85.527 104.776 86.8638 104.864 86.9521 105.772C87.0403 106.679 86.9521 108.369 84.3541 110.966C81.7561 113.563 77.4555 113.034 76.5475 114.105C75.6395 115.177 74.1261 119.753 71.9821 121.279C69.8381 122.804 69.4598 121.909 66.4204 122.539C63.381 123.17 61.0352 127.116 60.1146 128.994C59.1939 130.873 60.2911 134.037 58.1472 134.113C56.0032 134.189 55.0069 129.536 53.0269 127.028C51.3179 124.769 50.2074 122.115 49.7983 119.312C49.1677 116.362 50.164 110.172 49.7983 107.751C49.4326 105.33 42.988 101.031 40.6549 98.0687C38.3217 95.106 35.0932 89.2436 35.2697 87.2138C35.5429 85.2983 36.5018 83.5468 37.9686 82.2843C39.0406 81.4775 38.5866 81.0236 38.7758 80.3176C38.9649 79.6116 39.8477 79.4225 40.0369 78.5274C40.2261 77.6323 39.4946 74.9343 38.5992 74.4931C37.7038 74.0518 37.0732 75.5647 36.5435 75.2999C36.0138 75.0352 34.3869 73.1441 33.7563 72.9676C33.1258 72.7911 33.3149 74.1274 32.4195 72.4255C31.5241 70.7235 31.0701 66.4244 30.3512 65.7058C29.6324 64.9872 29.09 66.9665 27.3875 65.7058C25.6849 64.445 24.9661 62.0244 24.2472 61.6714C23.5283 61.3184 22.5446 61.7597 21.8132 60.3225C21.0817 58.8852 22.4564 56.2881 21.8132 56.5403C21.17 56.7924 19.7701 58.8726 19.4043 56.9059C19.0386 54.9391 21.2078 48.2951 20.8421 44.7146C20.5564 40.9339 21.7808 37.194 24.2472 34.3136C24.2472 34.3136 24.6129 32.3343 24.9661 31.0862C25.3192 29.8381 33.0375 24.7825 33.9329 23.3705C34.3043 22.578 34.5225 21.7225 34.5761 20.8491C45.5545 12.7527 58.8439 8.39509 72.4866 8.41828C74.2396 8.41828 75.9926 8.49393 77.7078 8.63261L77.8843 8.87215C78.8945 10.0698 80.2518 10.9245 81.7687 11.318C84.0388 12.1627 84.5811 13.2343 84.1018 14.1294C83.8873 14.5008 83.5723 14.8043 83.1931 15.005C82.8139 15.2057 82.3858 15.2954 81.9579 15.264C81.0498 15.3271 80.2175 14.848 79.259 15.4405C78.3005 16.0331 77.342 19.2227 76.0935 19.4497C74.8449 19.6766 72.6253 16.5878 72.1461 15.6675C71.6668 14.7471 73.218 12.8687 72.4866 11.9609C71.7551 11.0532 70.4687 11.2549 68.4382 11.0658C66.4078 10.8767 61.6784 11.671 61.8676 12.44C62.0568 13.2091 68.7914 12.3265 68.9805 13.8772C69.1697 15.4279 64.0116 18.0628 63.1161 17.8233C62.2207 17.5838 61.0226 16.0331 59.711 15.8566C58.3994 15.6801 57.3148 16.7517 56.4951 16.8652C55.6753 16.9786 54.6916 15.97 53.4304 16.2096C52.1693 16.4491 51.8792 17.4703 51.2234 17.9494C50.5676 18.4285 49.0038 18.3654 48.8272 19.3236C48.6506 20.2817 50.7946 20.8112 51.3495 21.4164C51.9044 22.0215 50.6937 24.0387 51.236 24.4547C51.7783 24.8708 55.1204 21.9333 55.9527 21.2273C56.7851 20.5213 57.504 17.4451 59.3074 17.4451C61.1109 17.4451 61.691 20.5465 62.2964 20.8491C62.9017 21.1516 64.2007 20.1304 66.1808 20.5465C68.1608 20.9625 69.5228 25.2742 69.8886 26.5854C70.2543 27.8965 71.1497 29.2203 70.3678 29.7498C69.5859 30.2793 66.4204 29.3968 66.0042 28.4891C65.588 27.5814 68.1482 26.3963 67.9716 26.1063C67.6192 25.859 67.2094 25.706 66.7811 25.6619C66.3528 25.6178 65.9204 25.684 65.525 25.8542C64.743 26.3206 64.3899 27.304 63.5449 27.5435C62.7 27.7831 60.5055 25.2616 59.9002 25.9802C59.2948 26.6988 60.5055 28.9681 61.0983 29.5103C61.691 30.0524 63.9107 30.3423 64.0872 30.9475C64.2638 31.5526 62.5865 32.8638 60.556 32.7377C58.5255 32.6116 56.8482 31.061 56.0789 31.7165C55.3096 32.3721 55.7131 34.1119 55.1834 34.7171C54.6538 35.3222 51.7152 34.8936 50.2775 36.4443C48.8398 37.995 48.184 40.3273 46.7463 41.6385C45.3086 42.9496 44.6528 41.2855 42.7358 43.1387C40.8188 44.992 40.5288 49.1146 40.4657 50.5518C40.4026 51.989 40.4657 53.0733 39.9865 52.9472C39.3355 52.3646 38.8927 51.5855 38.7253 50.7283C38.5488 49.9593 39.1415 48.6355 39.1415 48.2069C38.0696 46.706 36.5378 45.5952 34.7779 45.0424C33.1636 44.8029 31.7259 46.1141 30.5404 47.0722C29.3549 48.0304 27.1857 47.8539 26.4038 48.6229C25.6219 49.3919 25.0291 56.2755 25.6345 57.8892C26.2398 59.503 27.0091 59.503 28.9261 58.6709C30.8431 57.8388 29.7585 56.2251 30.8935 56.5781C31.4059 56.7699 31.8466 57.1148 32.1558 57.566C32.465 58.0172 32.6275 58.5527 32.6213 59.0996C32.6213 60.0577 30.3512 62.327 30.6539 62.9826C30.9566 63.6382 32.924 62.8691 33.8824 63.1717C34.8409 63.4743 35.3202 64.0668 35.0175 66.5126C34.7148 68.9585 34.904 70.8748 36.2787 71.6816C37.6533 72.4885 38.5235 70.5218 39.1541 70.7865C39.7847 71.0513 40.6675 72.4759 41.5755 72.4759C42.4836 72.4759 42.0295 71.5808 43.7321 71.0387C45.4347 70.4965 44.8041 70.1435 45.1572 69.0719C45.2156 68.7952 45.3331 68.5344 45.5015 68.3072C45.6699 68.08 45.8853 67.8918 46.1331 67.7554C46.3809 67.619 46.6552 67.5376 46.9373 67.5167C47.2194 67.4959 47.5027 67.5361 47.7678 67.6347C48.9281 68.1768 48.1209 68.9837 48.2092 69.8788C48.2975 70.7739 50.3658 70.8621 51.9927 71.4043C53.6196 71.9464 54.515 71.4043 57.731 72.4759C60.9469 73.5475 61.1361 76.775 62.4856 77.3171C63.835 77.8592 68.3121 76.9641 71.5407 79.2964C74.7693 81.6288 73.8738 85.9279 75.4881 87.176C77.1024 88.4241 83.1181 90.1387 85.4513 90.5925C87.7844 91.0464 88.1376 89.4201 90.0167 89.8739C91.8958 90.3278 92.9804 90.8573 93.611 93.4544C94.1407 95.6859 87.1412 100.477 86.3341 102.633Z" fill="#071920"/>
<path d="M38.1452 56.7798C38.1452 57.2841 39.709 57.4984 41.4999 58.5196C43.2907 59.5408 43.9465 62.5161 44.905 62.4657C45.8635 62.4153 45.5608 61.0285 45.9265 60.6629C46.0826 60.5579 46.2104 60.4162 46.2989 60.2502C46.3873 60.0842 46.4335 59.8991 46.4335 59.711C46.4335 59.523 46.3873 59.3378 46.2989 59.1718C46.2104 59.0059 46.0826 58.8641 45.9265 58.7592C44.968 57.9775 44.0348 56.2377 42.2818 56.0612C40.5288 55.8847 40.2387 55.1157 39.4694 55.1661C39.2704 55.1682 39.0742 55.2139 38.8947 55.2999C38.7152 55.3859 38.5568 55.5102 38.4306 55.6641C38.3043 55.8179 38.2134 55.9975 38.164 56.1903C38.1147 56.3831 38.1083 56.5843 38.1452 56.7798Z" fill="#071920"/>
<path d="M48.0073 61.7975C47.7425 62.5413 48.0073 63.0582 49.9117 63.5373C51.816 64.0164 53.6195 63.0582 53.0267 62.6674C52.434 62.2766 51.526 62.4657 51.8917 61.7975C52.2574 61.1293 52.1313 60.1838 50.5675 60.3729C49.0036 60.562 48.2343 61.1293 48.0073 61.7975Z" fill="#071920"/>
<path d="M54.7041 62.0118C54.0483 62.1001 53.6826 63.2726 54.3384 63.9534C54.9942 64.6342 54.9942 64.5585 55.7761 63.9534C56.558 63.3482 57.7435 63.0582 57.4535 62.4657C57.1634 61.8731 55.3599 61.911 54.7041 62.0118Z" fill="#071920"/>
<path d="M59.9002 64.4451C60.1902 63.5499 61.691 64.4451 62.3468 65.3906C62.6027 65.9103 62.7358 66.4818 62.7358 67.0611C62.7358 67.6403 62.6027 68.2118 62.3468 68.7315C61.9937 69.7527 61.7541 70.9504 60.9217 70.4713C60.0893 69.9923 60.9217 68.555 60.8586 67.7229C60.7956 66.8909 59.6605 65.1889 59.9002 64.4451Z" fill="#071920"/>
<path d="M85.6655 14.5832C85.3628 15.3397 86.8132 15.6044 87.6455 16.0835C88.4779 16.5626 89.1337 16.8525 89.6129 16.0835C89.7103 15.9114 89.7659 15.7187 89.775 15.5212C89.7842 15.3237 89.7468 15.1267 89.6658 14.9463C89.5847 14.7659 89.4624 14.6071 89.3086 14.4827C89.1549 14.3583 88.974 14.2718 88.7806 14.2302C88.1248 14.0411 85.9682 13.8646 85.6655 14.5832Z" fill="#071920"/>
<path d="M96.9781 21.5803C97.5204 22.1602 98.4663 22.0594 99.1221 22.841C99.7779 23.6227 99.5383 25.1103 100.383 25.5264C101.228 25.9424 101.821 25.5264 101.871 24.9338C101.922 24.3413 100.673 22.841 100.799 22.5384C100.926 22.2359 102.527 22.9671 102.893 23.7992C103.259 24.6313 102.527 25.9424 103.372 26.1819C104.217 26.4215 104.028 25.3499 104.381 25.1103C104.734 24.8708 105.529 24.9843 105.466 24.2783C105.178 23.1767 104.552 22.1933 103.675 21.4668C102.898 20.7868 101.974 20.295 100.976 20.0296C100.435 19.8739 99.8667 19.8361 99.3097 19.9187C98.7527 20.0014 98.22 20.2025 97.7474 20.5087C97.0916 21.1642 96.6376 21.2147 96.9781 21.5803Z" fill="#071920"/>
<path d="M122.845 32.8386C122.804 33.0806 122.684 33.3022 122.504 33.4689C121.243 34.3641 119.755 31.2627 118.014 30.6575C116.274 30.0524 115.492 27.8587 115.152 28.3378C114.811 28.8169 114.912 29.4724 114.37 30.2415C113.827 31.0105 113.109 30.8466 112.692 32.3343C112.276 33.822 114.37 36.583 113.89 37.4781C113.411 38.3732 112.818 38.0706 111.86 38.0202C110.902 37.9697 111.078 38.7892 109.83 38.4362C108.581 38.0832 109.653 36.5199 107.673 34.654C105.693 32.7882 105.05 32.4478 105.466 31.6031C105.882 30.7584 105.289 29.5733 106.185 29.4598C107.08 29.3464 107.799 30.6449 108.392 31.0105C108.985 31.3761 109.766 30.2919 109.83 29.3338C109.893 28.3756 107.736 27.0644 106.954 26.3206C106.268 25.1112 106.079 23.6832 106.424 22.3367C106.714 21.8072 107.686 21.9837 107.85 20.6726C108.001 19.8909 106.778 18.605 105.743 17.672C112.302 21.6683 118.094 26.8046 122.845 32.8386Z" fill="#071920"/>
<path d="M131.774 86.4322C131.95 84.5158 130.992 84.4024 131.95 80.8723C132.239 79.4812 132.234 78.0453 131.937 76.656C131.639 75.2668 131.055 73.9548 130.222 72.8037C129.504 72.022 127.94 72.2616 126.691 73.0432C125.443 73.8249 126.325 74.4174 125.493 74.72C124.661 75.0226 123.816 74.5309 123.046 74.5939C122.277 74.6569 121.546 76.6237 119.868 76.5733C118.191 76.5228 117.119 74.1148 115.87 72.4128C114.622 70.7109 112.087 69.6392 111.204 67.5464C110.321 65.4536 111.986 62.2262 111.62 59.7677C111.254 57.3093 109.653 57.8641 109.35 56.4899C109.047 55.1157 109.59 55.7712 110.006 54.4475C110.422 53.1237 109.527 52.4177 110.372 50.1484C111.217 47.8791 112.692 46.7444 112.339 45.7232C111.986 44.702 110.851 43.0379 110.788 41.8402C110.725 40.6425 111.923 40.7055 114.193 39.0288C116.463 37.352 117.056 37.4781 118.796 38.0706C120.028 38.5285 121.293 38.8909 122.58 39.1549C123.601 39.3314 124.976 41.9663 125.392 41.8402C125.808 41.7141 125.871 40.9451 126.048 39.8104C126.169 39.3244 126.433 38.8855 126.805 38.5497C133.553 49.368 136.918 61.9537 136.469 74.6953C136.02 87.4369 131.776 99.7544 124.282 110.071C130.412 100.741 131.597 88.3359 131.774 86.4322Z" fill="#071920"/>
</g>
<path opacity="0.1" d="M122.113 112.895C115.281 121.262 106.442 127.766 96.4188 131.8C86.3957 135.834 75.5146 137.267 64.7883 135.967C54.062 134.666 43.8393 130.673 35.0718 124.361C26.3043 118.048 19.2771 109.62 14.6443 99.8623C10.0115 90.1043 7.92378 79.3332 8.57546 68.5516C9.22713 57.77 12.597 47.3286 18.3714 38.1992C24.1458 29.0698 32.137 21.5493 41.6011 16.3378C51.0651 11.1263 61.6944 8.39328 72.4993 8.39306C74.2649 8.39306 75.9927 8.4687 77.7205 8.60738C78.1997 8.60738 78.679 8.68303 79.1456 8.74606C70.093 9.7293 61.3936 12.805 53.7356 17.7298C46.0776 22.6547 39.6711 29.2935 35.0231 37.121C30.3751 44.9485 27.613 53.75 26.9556 62.8289C26.2981 71.9079 27.7632 81.0152 31.2349 89.4303C34.7067 97.8455 40.0898 105.337 46.9584 111.314C53.8271 117.29 61.9926 121.586 70.8091 123.862C79.6256 126.139 88.8511 126.333 97.7556 124.429C106.66 122.526 114.999 118.577 122.113 112.895Z" fill="#071920"/>
<path opacity="0.3" d="M136.515 72.4759C136.537 86.0002 132.253 99.1805 124.282 110.109C118.274 118.354 110.389 125.053 101.279 129.65C109.206 125.116 116.084 118.954 121.457 111.571C129.717 100.236 134.043 86.5132 133.776 72.4927C133.51 58.4722 128.666 44.9231 119.982 33.9102C115.203 27.8448 109.377 22.6828 102.779 18.668C94.2494 13.4393 84.6137 10.2788 74.643 9.43946C72.9152 9.30078 71.1622 9.22514 69.3966 9.22514C64.1865 9.2266 58.9955 9.85303 53.9347 11.091C59.9547 9.27212 66.2101 8.35028 72.499 8.35523C74.2646 8.35523 75.9924 8.43087 77.7202 8.56955C87.6427 9.36319 97.2407 12.4722 105.743 17.6468C112.299 21.6318 118.09 26.7551 122.845 32.7755C124.275 34.6 125.61 36.4979 126.842 38.4614C133.211 48.6607 136.565 60.4527 136.515 72.4759Z" fill="white"/>
<path d="M144.499 72.4759C144.521 87.6816 139.702 102.5 130.74 114.786V114.786C123.498 124.748 113.82 132.687 102.632 137.842C91.4444 142.997 79.1205 145.196 66.8394 144.229C54.5583 143.261 42.7309 139.16 32.4884 132.318C22.246 125.475 13.9311 116.12 8.33914 105.147C2.74719 94.174 0.065232 81.9502 0.549799 69.6448C1.03437 57.3394 4.66925 45.3641 11.1068 34.8644C17.5443 24.3647 26.5691 15.6919 37.3179 9.67534C48.0667 3.65883 60.1801 0.499979 72.4992 0.500918C74.475 0.500918 76.4298 0.576552 78.3636 0.72784C89.5276 1.6198 100.327 5.11747 109.893 10.9397C117.268 15.4262 123.781 21.1944 129.125 27.9722C130.734 30.0218 132.233 32.1554 133.615 34.3641C140.758 45.7914 144.53 59.0013 144.499 72.4759Z" stroke="#FFD87C" stroke-miterlimit="10" stroke-dasharray="4 4"/>
</svg>
