<svg width="42" height="42" viewBox="0 0 42 42" fill="none" xmlns="http://www.w3.org/2000/svg">
<g clip-path="url(#clip0_0_801)">
<path d="M33.3577 23.9063L25.9302 20.7983L22.0096 27.6814C21.5772 28.4408 20.4235 28.4408 19.9915 27.6814L16.0712 20.7983L8.72314 23.5656C7.94881 23.8567 7.45166 24.5003 7.45166 25.2095V41.3227H34.5484V25.5191C34.5484 24.8364 34.087 24.2119 33.3577 23.9063Z" fill="white"/>
<path d="M34.5484 41.9999H7.45159C7.07782 41.9999 6.77417 41.6963 6.77417 41.3225V25.2093C6.77417 24.217 7.44497 23.3223 8.48326 22.9313L15.832 20.1641C16.1456 20.0467 16.4952 20.174 16.6596 20.4628L20.5799 27.3461C20.7 27.5575 20.9322 27.5737 21.0006 27.5737C21.0691 27.5737 21.3006 27.5575 21.4207 27.3468L25.3423 20.4634C25.5117 20.1654 25.8802 20.0414 26.1924 20.174L33.6189 23.2816C34.595 23.6901 35.2264 24.5686 35.2264 25.5189V41.3225C35.2258 41.6963 34.9231 41.9999 34.5484 41.9999ZM8.12901 40.6451H33.8709V25.5189C33.8709 25.1098 33.5742 24.731 33.0953 24.5313L26.2222 21.6549L22.5973 28.0173C22.2728 28.5878 21.6754 28.9285 21.0006 28.9292C20.3252 28.9292 19.7278 28.5885 19.4027 28.0173L15.7682 21.6367L8.9609 24.2002C8.45548 24.3897 8.12901 24.7859 8.12901 25.2093V40.6451Z" fill="#641C36"/>
<path d="M9.48389 39.2903V25.4568L15.1639 23.3127L18.2252 28.6874C18.7868 29.6715 19.8496 30.2834 21.0007 30.2834C22.1518 30.2834 23.2152 29.6715 23.7762 28.6874L26.8067 23.3677L32.5161 25.7575V39.2903H9.48389Z" fill="#F9DEE4"/>
<path d="M13.0938 10.6301V8.142C13.0938 4.03151 16.6462 0.67749 20.9998 0.67749C25.3535 0.67749 28.9059 4.03151 28.9059 8.142V10.6301C28.9059 14.7415 25.3544 18.0946 20.9998 18.0946C16.6452 18.0946 13.0938 14.7415 13.0938 10.6301Z" fill="white"/>
<path d="M20.9998 18.7719C16.2675 18.7719 12.417 15.1192 12.417 10.63V8.14193C12.417 3.65271 16.2675 0 20.9998 0C25.7322 0 29.5834 3.65271 29.5834 8.14193V10.63C29.5834 15.1199 25.7322 18.7719 20.9998 18.7719ZM20.9998 1.35484C17.0141 1.35484 13.7718 4.39992 13.7718 8.14193V10.63C13.7718 14.372 17.0147 17.4171 20.9998 17.4171C24.985 17.4171 28.2285 14.372 28.2285 10.63V8.14193C28.2285 4.39992 24.9856 1.35484 20.9998 1.35484Z" fill="#641C36"/>
</g>
<defs>
<clipPath id="clip0_0_801">
<rect width="42" height="42" fill="white"/>
</clipPath>
</defs>
</svg>
