<svg width="28" height="8" viewBox="0 0 28 8" fill="none" xmlns="http://www.w3.org/2000/svg">
<path d="M0 5.56788L0.104063 5.20386C0.35116 5.20386 0.93639 4.50183 1.40457 3.9038C2.13286 2.92875 2.88715 1.9147 3.62844 2.12271C4.36973 2.33072 4.44775 3.25377 4.55179 4.07281C4.65583 4.89185 4.72087 5.37286 5.05901 5.47687C5.39714 5.58087 5.94335 4.48882 6.35952 3.69578C7.06179 2.39572 7.79007 1.09566 8.62239 1.30367C9.45472 1.51168 9.49375 2.1617 9.6108 2.72073C9.72784 3.27976 9.81885 3.74778 10.3911 3.91679C10.9633 4.0858 11.4055 3.05876 11.8867 2.09671C12.3679 1.13466 13.0441 -0.217405 13.9025 0.029607C14.7608 0.27662 14.5267 1.88869 14.2796 3.61778C14.0845 5.00885 13.8504 6.73794 14.4227 6.90695C14.7738 6.99795 15.177 6.67294 15.5931 6.32192C16.0093 5.9709 16.6986 5.41187 17.3748 5.60688C17.748 5.74974 18.0572 6.02199 18.2462 6.37391C18.4607 6.74653 18.7954 7.03531 19.1956 7.19296C19.5337 7.28397 20.0929 6.46493 20.4961 5.8149C21.1593 4.83985 21.7966 3.83879 22.5899 4.0598C23.3832 4.28081 23.5132 5.08686 23.6563 5.8149C23.7603 6.34792 23.8644 6.85495 24.1635 6.93295C24.4626 7.01096 24.8918 6.38693 25.321 5.8409C26.0492 4.90486 26.9596 3.74779 28 4.04681L27.883 4.44982C27.0896 4.22881 26.2963 5.22985 25.6071 6.1269C24.9178 7.02394 24.5406 7.42697 24.0464 7.34896C23.5522 7.27096 23.4092 6.59492 23.2791 5.94489C23.1491 5.29486 23.0061 4.64484 22.4858 4.47583C21.9656 4.30682 21.3544 5.25586 20.7952 6.07491C20.2359 6.89395 19.6377 7.76498 19.0525 7.60897C18.566 7.4335 18.1564 7.09309 17.895 6.64694C17.7468 6.36529 17.5088 6.1411 17.2188 6.0099C16.7376 5.87989 16.2564 6.28291 15.7882 6.65993C15.32 7.03695 14.8128 7.46597 14.2796 7.30996C13.3823 7.06295 13.6164 5.38587 13.8635 3.61778C14.0585 2.31772 14.2926 0.588625 13.7464 0.445618C13.2002 0.302611 12.654 1.35567 12.1728 2.31772C11.6916 3.27976 11.0413 4.55382 10.235 4.31981C9.4287 4.0858 9.31167 3.43578 9.19462 2.85075C9.07758 2.26572 8.98654 1.86268 8.46634 1.71968C7.94614 1.57667 7.16584 2.87675 6.64563 3.9298C6.12543 4.98286 5.48814 6.0489 4.90291 5.8929C4.31768 5.73689 4.22665 4.96984 4.13562 4.1768C4.04458 3.38376 3.94057 2.66873 3.47238 2.53872C3.0042 2.40872 2.24987 3.38376 1.65163 4.1768C1.0534 4.96984 0.494194 5.74989 0 5.56788Z" fill="#FFD87C"/>
</svg>
