<svg width="1" height="1" viewBox="0 0 1 1" fill="none" xmlns="http://www.w3.org/2000/svg">
<path d="M0.0214464 0.363531C0.0596182 0.236619 0.145623 0.129517 0.261349 0.0648684C0.377075 0.000220065 0.513446 -0.0169116 0.641576 0.017099C0.704127 0.0358238 0.762325 0.0667946 0.812792 0.108214C0.863258 0.149634 0.904975 0.200678 0.935526 0.258366C0.966077 0.316055 0.984846 0.379234 0.990743 0.444241C0.996639 0.509248 0.989543 0.574775 0.96987 0.637016C0.935692 0.762545 0.853214 0.869458 0.740431 0.934371C0.627648 0.999285 0.493756 1.01692 0.367997 0.983448C0.303804 0.966681 0.24364 0.937115 0.19116 0.896534C0.138679 0.855953 0.0949468 0.805199 0.0625806 0.7473C0.0302143 0.689401 0.00987052 0.625565 0.00279968 0.559617C-0.00427115 0.493669 0.00208995 0.426972 0.0214464 0.363531Z" fill="#D0D0D0"/>
</svg>
