<svg width="280" height="349" viewBox="0 0 280 349" fill="none" xmlns="http://www.w3.org/2000/svg">
<path d="M161.119 219.397C155.941 225.381 150.098 230.756 143.703 235.419C150.973 215.31 141.571 174.762 141.381 180.843C140.41 209.86 128.685 243.72 122.312 246.446C122.312 246.446 122.312 246.446 122.199 246.446C104.745 252.173 87.5815 250.432 72.5509 245.436C72.5468 245.407 72.5468 245.377 72.5509 245.348C82.4956 222.261 74.0275 180.843 73.5731 183.53C68.5251 212.547 50.6171 232.366 46.9824 233.01C31.0937 222.816 21.4645 211.348 23.1934 209.67C35.3467 197.534 42.578 170.839 48.4338 142.958C54.1255 115.468 54.87 90.2361 65.4457 64.6386C75.1254 41.2488 101.615 32.1275 119.069 39.8232C164.842 60.0464 168.464 210.995 161.119 219.397Z" fill="#5F5F5F"/>
<path d="M84.7922 47.5063C74.0777 52.2877 66.8085 64.3232 62.7322 74.9457C57.3307 89.0503 54.8951 104.328 50.9954 118.912C43.2845 147.714 31.8759 175.015 15.7852 199.994C15.7249 200.101 15.706 200.227 15.732 200.348C15.7581 200.468 15.8273 200.575 15.9266 200.648C16.0259 200.721 16.1485 200.755 16.2712 200.743C16.394 200.732 16.5084 200.677 16.5929 200.587C35.2328 180.048 45.6192 153.681 53.3049 127.175C57.1919 113.613 59.615 99.7485 63.1739 86.1108C64.9531 78.5993 67.7423 71.3634 71.4653 64.6007C75.2514 58.1162 80.0975 53.7511 85.8776 49.2347C86.0329 49.0634 86.128 48.8461 86.1484 48.6159C86.1687 48.3856 86.1132 48.155 85.9902 47.9592C85.8673 47.7634 85.6837 47.6132 85.4674 47.5314C85.2511 47.4497 85.014 47.4408 84.7922 47.5063Z" fill="#5F5F5F"/>
<path d="M118.147 184.603C153.572 225.869 212.874 276.698 232.902 265.142C249.763 255.415 263.304 193.598 263.468 174.068C263.544 165.237 203.005 145.153 202.892 154.653C202.766 164.745 200.721 192.904 199.308 192.5C194.878 191.087 182.725 183.429 139.576 162.79C115.522 151.234 94.6612 157.289 118.147 184.603Z" fill="#F6C1C8"/>
<path d="M211.562 230.915C207.927 225.163 199.119 208.762 199.573 191.806C199.573 191.617 199.787 191.592 199.8 191.806C201.062 205.684 208.634 224.898 211.751 230.802C211.827 230.915 211.65 231.054 211.562 230.915Z" fill="#5F5F5F"/>
<path d="M163.252 238.788L182.864 180.2C182.864 180.2 142.404 158.967 119.17 152.546C106.133 148.938 103.168 158.992 108.784 169.829C128.458 207.753 163.252 238.788 163.252 238.788Z" fill="#FFD87C"/>
<path d="M163.252 238.788L182.864 180.2C182.864 180.2 142.404 158.967 119.17 152.546C106.133 148.938 103.168 158.992 108.784 169.829C128.458 207.753 163.252 238.788 163.252 238.788Z" fill="#FFD87C"/>
<path d="M144.069 181.373C143.222 179.457 142.105 177.673 140.75 176.074C141.082 178.141 141.707 180.151 142.606 182.042C143.445 183.965 144.563 185.755 145.925 187.353C145.594 185.281 144.97 183.268 144.069 181.373ZM181.4 179.443C179.946 179.832 178.528 180.343 177.16 180.969C175.244 181.816 173.462 182.938 171.872 184.3C173.94 183.964 175.95 183.335 177.841 182.433C179.385 181.755 180.85 180.909 182.208 179.91L181.4 179.443ZM108.468 169.211L108.783 169.842L109.149 170.536C109.406 169.532 109.566 168.505 109.629 167.47C109.21 168.029 108.823 168.61 108.468 169.211ZM149.168 215.562C147.214 214.806 145.161 214.334 143.072 214.162C146.51 216.575 150.515 218.057 154.696 218.464C152.998 217.242 151.138 216.265 149.168 215.562Z" fill="white"/>
<path opacity="0.1" d="M176.39 199.527L163.252 238.788C163.252 238.788 128.458 207.753 108.796 169.842C106.849 166.461 105.932 162.585 106.158 158.69L176.39 199.527Z" fill="#071920"/>
<path d="M172.907 179.165C169.121 187.933 159.63 211.966 155.491 228.443C155.491 228.544 155.819 228.682 155.869 228.581C161.372 215.423 170.458 188.425 173.449 179.38C173.55 179.203 173.02 179.001 172.907 179.165Z" fill="#5F5F5F"/>
<path d="M247.189 197.471C240.803 201.167 203.939 175.456 203.271 167.912C202.804 162.676 202.463 140.157 196.607 126.444C191.71 114.925 183.129 98.386 189.224 95.5222C198.058 91.3211 211.474 110.939 218.465 122.659C222.163 116.225 225.936 111.027 229.255 108.781C240.26 101.414 279.421 146.326 275.37 159.169C271.47 171.621 253.575 193.812 247.189 197.471Z" fill="#F6C1C8"/>
<path d="M224.437 91.7634L215.17 96.7246L240.407 143.835L249.675 138.874L224.437 91.7634Z" fill="#D0D0D0"/>
<path d="M206.804 96.0016C208.249 95.7108 209.664 95.2886 211.032 94.74C211.36 94.6138 211.688 94.475 212.004 94.3237C212.319 94.1723 212.584 94.0587 212.874 93.9073L213.455 93.6171L222.125 88.9745C221.345 89.4012 220.54 89.7804 219.715 90.11C219.008 90.3875 218.301 90.6398 217.569 90.8543C216.837 91.0688 216.181 91.2328 215.462 91.3842C197.617 95.068 177.046 79.3486 169.549 56.2995C163.744 38.5238 167.379 21.5807 177.525 13.0524C178.784 11.988 180.15 11.0577 181.602 10.2769L172.906 14.8943H172.843C172.466 15.0847 172.1 15.2953 171.745 15.5251C171.43 15.6992 171.127 15.893 170.837 16.1054L170.42 16.3956C170.193 16.547 169.978 16.711 169.764 16.875L169.385 17.1651C163 22.2115 159.049 30.5379 158.242 40.3026C158.242 40.8072 158.166 41.2993 158.141 41.8039C157.867 48.2707 158.786 54.7327 160.854 60.8664C168.376 83.9282 188.947 99.698 206.804 96.0016Z" fill="#5F5F5F"/>
<path d="M239.793 41.7913C247.428 65.2315 241.055 87.4354 225.633 95.7745L217.014 100.417C232.461 92.1033 238.809 69.8868 231.186 46.4339C222.352 19.4108 198.222 1.01686 177.286 5.2684C174.563 5.8278 171.935 6.77974 169.486 8.09436L178.093 3.45173C180.545 2.14338 183.171 1.19178 185.893 0.625778C206.779 -3.68884 230.959 14.7681 239.793 41.7913Z" fill="#5F5F5F"/>
<path d="M209.164 103.23C210.861 102.893 212.522 102.395 214.124 101.742C215.3 101.278 216.439 100.725 217.531 100.089C217.574 100.078 217.613 100.057 217.645 100.026C218.099 99.7737 218.541 99.4962 218.97 99.206C219.24 99.044 219.502 98.8672 219.752 98.6762C223.366 96.1102 226.38 92.7917 228.587 88.9493C229.104 88.0915 229.584 87.1957 230.025 86.2748C230.708 84.8665 231.302 83.4171 231.805 81.9349C231.981 81.4177 232.158 80.9131 232.31 80.4084C232.625 79.3739 232.903 78.3268 233.13 77.2671C233.357 76.2073 233.584 75.0719 233.748 73.9617C233.912 72.8515 234.051 71.7035 234.152 70.5554C234.748 62.397 233.714 54.2016 231.111 46.4466C222.277 19.436 198.147 1.02952 177.21 5.29368C176.358 5.46287 175.515 5.67764 174.686 5.93708C173.853 6.17678 173.058 6.46696 172.263 6.78236C171.821 6.95898 171.392 7.14821 171.001 7.35007C170.895 7.38577 170.794 7.43227 170.698 7.48884L169.65 8.0061C153.976 16.2569 147.666 38.5112 155.238 62.0524C164.072 89.1134 188.215 107.558 209.164 103.23ZM160.879 60.9169C158.812 54.7832 157.892 48.3212 158.166 41.8544C158.166 41.3498 158.166 40.8578 158.267 40.3531C159.075 30.5885 163.025 22.2746 169.411 17.2156L169.789 16.9255C170.004 16.7615 170.218 16.5975 170.446 16.4461L170.862 16.1559C171.152 15.9435 171.456 15.7497 171.771 15.5756C172.125 15.3458 172.492 15.1353 172.869 14.9448H172.932C173.714 14.5235 174.519 14.1444 175.342 13.8094C176.036 13.5318 176.743 13.2921 177.475 13.0777C178.207 12.8632 178.851 12.6992 179.57 12.5478C197.427 8.88919 218.011 24.5959 225.52 47.6451C231.313 65.4208 227.665 82.3639 217.519 90.8796C216.095 92.0789 214.537 93.1078 212.874 93.9452C212.584 94.0966 212.307 94.2354 212.004 94.3616C211.701 94.4877 211.36 94.6517 211.032 94.7779C209.664 95.3265 208.249 95.7487 206.804 96.0395C188.947 99.6981 168.376 83.9282 160.879 60.9169Z" fill="#8C8C8C"/>
<path opacity="0.4" d="M215.411 91.3589C216.13 91.2076 216.837 91.0309 217.519 90.8291C227.615 82.3134 231.312 65.3703 225.52 47.5946C218.011 24.5454 197.427 8.83871 179.57 12.4973C178.85 12.6487 178.156 12.8253 177.475 13.0272C167.379 21.5555 163.694 38.4986 169.499 56.2743C176.995 79.3234 197.566 95.0428 215.411 91.3589Z" fill="white"/>
<g opacity="0.3">
<path d="M167.53 31.0804L219.601 34.7264C218.005 32.1375 216.207 29.6783 214.225 27.3714L169.549 24.2174C168.652 26.4331 167.976 28.7319 167.53 31.0804Z" fill="#EBEBEB"/>
<path d="M174.32 16.219L204.028 18.3258C196.291 13.1533 187.621 10.8446 179.57 12.4973C178.85 12.6487 178.156 12.8253 177.475 13.0272C176.327 13.9917 175.271 15.0602 174.32 16.219Z" fill="#EBEBEB"/>
<path d="M166.823 36.5053L222.68 40.454C222.075 39.1924 221.418 38.0065 220.8 36.8333L167.189 33.0485C167.013 34.1713 166.899 35.3194 166.823 36.5053Z" fill="#EBEBEB"/>
<path d="M185.312 81.0897C186.809 82.4541 188.394 83.7184 190.057 84.8744L221.09 87.0696C221.946 86.0211 222.718 84.9075 223.4 83.739L185.312 81.0897Z" fill="#EBEBEB"/>
<path d="M175.354 68.991L227.488 72.6875C228.382 67.9193 228.518 63.0403 227.892 58.2297L168.817 54.0413C169.019 54.773 169.246 55.5173 169.499 56.2743C170.941 60.7295 172.907 64.9981 175.354 68.991Z" fill="#EBEBEB"/>
</g>
<path d="M269.501 170.145L255.48 177.651L233.104 135.893L247.125 128.386L269.501 170.145Z" fill="#5F5F5F"/>
<path d="M214.553 123.592C216.181 130.279 223.135 124.539 223.135 124.539C223.135 124.539 215.121 135.212 219.45 141.456C223.652 147.462 231.805 140.195 232.398 139.728C231.981 140.296 224.826 150.288 229.874 156.129C235.073 162.184 242.015 153.517 242.494 152.962C242.267 153.618 239.402 162.411 244.223 165.969C252.489 172.088 260.415 149.821 268.088 146.566C268.088 146.566 275.079 158.929 275.37 159.245C275.37 159.245 283.333 138.202 278.373 128.109C277.673 126.629 276.487 125.434 275.014 124.72C273.54 124.007 271.867 123.818 270.271 124.185C270.271 124.185 273.59 117.676 269.791 112.97C267.835 110.56 262.219 111.532 262.219 111.532C262.219 111.532 264.655 106.22 261.02 102.234C258.13 99.0546 252.956 100.531 252.956 100.531C252.956 100.531 252.956 94.3363 248.918 92.0528C240.853 87.3849 211.12 109.261 214.553 123.592Z" fill="#F6C1C8"/>
<path d="M252.123 100.632C252.224 100.569 252.123 100.405 252.048 100.455C240.513 105.262 229.331 114.08 222.744 124.804C222.529 125.157 223.009 125.661 223.324 125.321C232.221 115.556 240.854 107.596 252.123 100.632Z" fill="#5F5F5F"/>
<path d="M262.345 111.355C262.472 111.279 262.345 111.078 262.207 111.141C250.344 116.187 238.001 126.431 231.918 139.678C231.716 140.144 231.918 140.75 232.259 140.245C236.966 131.742 252.161 117.575 262.345 111.355Z" fill="#5F5F5F"/>
<path d="M242.393 154.022C248.703 141.545 258.446 132.348 269.779 124.337C269.93 124.236 269.779 124.047 269.615 124.097C263.002 126.507 256.313 132.36 251.492 137.356C246.941 141.9 243.657 147.554 241.964 153.757C241.888 154.047 242.317 154.287 242.393 154.022Z" fill="#5F5F5F"/>
<path d="M222.92 124.551C222.668 124.968 223.564 124.879 223.324 125.321C222.289 127.125 217.014 138.555 220.384 141.557C223.059 143.942 228.145 142.012 229.798 140.498L233.975 136.713L231.376 141.759C230.2 143.976 229.399 146.372 229.003 148.849C228.75 149.985 228.741 151.161 228.976 152.301C229.211 153.44 229.685 154.517 230.366 155.46C231.012 156.326 231.935 156.946 232.981 157.217C234.028 157.488 235.135 157.393 236.121 156.949C238.302 155.9 240.182 154.316 241.585 152.344L245.636 147.033L243.579 153.315C243.002 155.072 242.65 156.895 242.532 158.74C242.354 160.48 242.687 162.233 243.491 163.786C243.892 164.47 244.474 165.029 245.174 165.401C245.874 165.773 246.663 165.944 247.454 165.893C249.201 165.506 250.803 164.631 252.073 163.37C254.86 160.686 257.438 157.793 259.784 154.716C261.046 153.202 262.308 151.675 263.57 150.212C264.804 148.662 266.358 147.397 268.126 146.503C266.497 147.572 265.091 148.948 263.986 150.552C262.8 152.104 261.689 153.706 260.566 155.309C258.395 158.618 255.914 161.715 253.158 164.556C251.691 166.126 249.795 167.231 247.706 167.735C246.541 167.887 245.357 167.695 244.301 167.181C243.244 166.668 242.362 165.856 241.762 164.846C240.685 162.951 240.205 160.774 240.386 158.601C240.476 156.539 240.841 154.499 241.472 152.533L243.441 153.542C241.824 155.907 239.613 157.804 237.03 159.043C235.58 159.687 233.952 159.807 232.423 159.384C230.935 158.944 229.615 158.064 228.637 156.86C227.77 155.667 227.167 154.303 226.867 152.859C226.566 151.415 226.576 149.923 226.896 148.484C227.379 145.765 228.304 143.144 229.634 140.725L231.212 141.986C229.041 143.841 223.64 146.629 218.97 143.437C213.543 138.328 221.343 126.595 222.92 124.551Z" fill="#5F5F5F"/>
<path d="M223.16 124.539C221.914 125.209 220.574 125.686 219.184 125.952C218.628 126.077 218.047 126.05 217.505 125.872C216.963 125.695 216.479 125.373 216.105 124.942C215.406 123.896 215.029 122.668 215.02 121.41C214.944 120.022 214.944 118.571 215.02 117.057C214.237 118.378 213.738 119.848 213.556 121.372C213.414 122.206 213.437 123.06 213.626 123.885C213.814 124.709 214.164 125.489 214.654 126.179C215.268 126.881 216.083 127.379 216.988 127.604C217.832 127.77 218.706 127.7 219.512 127.402C221.005 126.866 222.285 125.861 223.16 124.539Z" fill="#5F5F5F"/>
<path d="M10.9263 321.989L162.974 321.598L153.787 264.436C153.787 264.436 166.937 248.477 164.438 231.168C161.712 212.244 127.511 164.14 124.634 161.44C113.061 150.578 100.883 147.663 89.8529 153.353C51.9166 172.933 10.9263 321.989 10.9263 321.989Z" fill="#FFD87C"/>
<path d="M110.777 214.048C109.935 212.133 108.821 210.348 107.471 208.749C107.799 210.82 108.419 212.833 109.314 214.729C110.17 216.64 111.287 218.423 112.633 220.028C112.318 217.953 111.693 215.937 110.777 214.048ZM128.66 296.644C127.807 294.728 126.689 292.94 125.341 291.333C125.661 293.401 126.282 295.411 127.184 297.3C128.033 299.219 129.15 301.007 130.503 302.611C130.181 300.543 129.56 298.533 128.66 296.644ZM80.7793 290.992C79.9242 289.084 78.8071 287.305 77.4602 285.706C78.1669 289.85 79.9514 293.735 82.6345 296.972C82.3065 294.9 81.6817 292.886 80.7793 290.992ZM51.7529 228.19C49.8541 229.045 48.0898 230.171 46.5156 231.534C48.5825 231.192 50.5916 230.563 52.4849 229.666C54.4015 228.827 56.1834 227.709 57.7728 226.348C55.6889 226.674 53.6619 227.294 51.7529 228.19ZM48.3329 308.326C46.4239 309.18 44.644 310.297 43.045 311.644C45.1329 311.309 47.1608 310.672 49.0648 309.752C50.9824 308.912 52.7679 307.799 54.3653 306.446C52.2908 306.78 50.2758 307.413 48.3834 308.326H48.3329ZM127.84 246.357C125.924 247.206 124.14 248.323 122.539 249.675C126.685 248.969 130.571 247.185 133.809 244.503C131.761 244.832 129.772 245.457 127.903 246.357H127.84ZM106.701 172.996C105.949 174.951 105.478 177.003 105.3 179.09C106.542 177.401 107.529 175.539 108.228 173.564C108.984 171.61 109.456 169.558 109.629 167.47C108.399 169.166 107.414 171.026 106.701 172.996ZM81.0696 240.995C80.3119 242.953 79.8401 245.01 79.6687 247.102C80.8864 245.418 81.8673 243.576 82.584 241.626C83.3316 239.671 83.799 237.619 83.9722 235.533C82.753 237.209 81.7759 239.047 81.0696 240.995ZM154.67 269.898C154.241 270.756 153.875 271.639 153.522 272.522C152.774 274.482 152.307 276.538 152.134 278.629C153.367 276.932 154.349 275.067 155.049 273.09C155.049 273.002 155.112 272.926 155.137 272.838L154.67 269.898ZM147.01 321.623H147.906C147.997 321.098 148.056 320.567 148.083 320.034C147.697 320.549 147.339 321.084 147.01 321.636V321.623ZM49.7716 268.41C47.8195 267.646 45.7656 267.175 43.676 267.009C45.3689 268.238 47.2307 269.215 49.2037 269.911C51.1619 270.668 53.2191 271.14 55.3118 271.311C53.6115 270.087 51.7462 269.11 49.7716 268.41ZM104.127 318.394C102.17 317.628 100.113 317.152 98.0185 316.981C99.7199 318.193 101.585 319.158 103.559 319.845C105.513 320.602 107.566 321.074 109.654 321.245C107.957 320.036 106.096 319.076 104.127 318.394ZM149.168 215.562C147.214 214.806 145.161 214.334 143.072 214.162C146.51 216.575 150.515 218.057 154.696 218.464C152.998 217.242 151.138 216.265 149.168 215.562ZM105.591 270.554C103.636 269.798 101.583 269.327 99.495 269.154C102.914 271.57 106.901 273.057 111.068 273.469C109.391 272.24 107.546 271.259 105.591 270.554ZM74.9614 197.118C73.0028 196.361 70.9458 195.89 68.8533 195.717C72.2995 198.119 76.3071 199.592 80.4891 199.994C78.7903 198.781 76.9296 197.813 74.9614 197.118Z" fill="white"/>
<path d="M127.474 260.058C120.67 260.664 113.921 261.773 107.282 263.376C103.988 264.221 100.757 265.218 97.5388 266.278C95.936 266.808 94.3207 267.274 92.6927 267.741C91.0051 268.276 89.2594 268.606 87.4931 268.725C87.4679 268.733 87.4459 268.749 87.4303 268.771C87.4147 268.792 87.4064 268.818 87.4064 268.845C87.4064 268.872 87.4147 268.897 87.4303 268.919C87.4459 268.94 87.4679 268.957 87.4931 268.965C89.1759 269.051 90.8625 269.021 92.5412 268.876C94.1539 268.68 95.7518 268.376 97.3242 267.968C100.669 267.148 103.962 266.177 107.307 265.319C114.033 263.59 120.76 261.862 127.6 260.626C127.865 260.55 127.777 260.033 127.474 260.058Z" fill="#5F5F5F"/>
<path d="M144.271 266.088C138.667 265.5 133.033 265.226 127.398 265.268C124.584 265.268 121.782 265.508 118.98 265.773L114.967 266.227C113.491 266.416 112.052 266.795 110.575 266.971C110.424 266.971 110.424 267.224 110.575 267.211C111.964 267.098 113.377 267.211 114.778 267.211L118.98 267.098C121.795 267.035 124.609 266.997 127.411 266.908C133.039 266.719 138.643 266.58 144.271 266.58C144.587 266.543 144.561 266.114 144.271 266.088Z" fill="#5F5F5F"/>
<path d="M71.3898 169.716C33.4788 217.896 -10.086 315.252 2.07985 332.624C15.596 351.964 69.9006 283.65 67.7047 280.824C65.8369 278.414 81.9403 220.394 93.2858 178.269C104.631 136.145 80.7792 157.731 71.3898 169.716Z" fill="#F6C1C8"/>
<path d="M24.8338 227.597L86.4202 232.644C86.4202 232.644 97.3998 188.312 98.1065 164.215C98.5103 150.704 90.6101 150.918 81.4226 158.955C49.2286 187.113 24.8338 227.597 24.8338 227.597Z" fill="#FFD87C"/>
<path d="M74.9615 197.118C73.0029 196.361 70.9459 195.89 68.8534 195.717C72.2996 198.119 76.3073 199.592 80.4892 199.994C78.7904 198.781 76.9297 197.813 74.9615 197.118ZM51.7531 228.19C50.8438 228.611 49.959 229.083 49.1028 229.603L52.0055 229.843L52.4219 229.654C54.3385 228.814 56.1204 227.696 57.7098 226.336C55.6468 226.671 53.6415 227.295 51.7531 228.19ZM43.8654 200.057V200.133L43.9412 200.221C43.9412 200.221 43.9285 200.108 43.9159 200.057H43.8654Z" fill="white"/>
<path d="M85.0699 222.803C75.6552 221.226 50.011 217.757 33.0369 217.631C32.936 217.631 32.8981 218.009 33.0369 218.022C47.1463 220.242 75.5416 222.627 85.0446 223.371C85.1708 223.384 85.2465 222.829 85.0699 222.803Z" fill="#5F5F5F"/>
<path d="M78.9114 232.051C81.4354 232.051 83.9595 232.051 86.4835 232.202L85.9913 232.568C87.1524 225.793 88.5153 219.082 90.055 212.383C91.5947 205.684 93.2605 199.035 95.2545 192.45C94.308 199.25 93.0334 205.999 91.6325 212.723C90.2317 219.448 88.6415 226.134 86.8747 232.795L86.7611 233.199H86.3825C83.8837 232.795 81.3976 232.467 78.9114 232.051Z" fill="#5F5F5F"/>
<path d="M92.4782 205.898C92.8847 204.496 93.4522 203.146 94.1693 201.874C94.8794 200.595 95.6852 199.372 96.5797 198.215C96.5153 198.952 96.3409 199.675 96.0623 200.36C95.8112 201.047 95.5074 201.713 95.1536 202.353C94.4504 203.666 93.5479 204.862 92.4782 205.898Z" fill="#5F5F5F"/>
<path d="M93.8535 158.538C94.6738 161.352 109.263 179.14 122.262 177.841C126.489 177.412 125.177 154.211 125.177 154.211L125.467 152.47L129.581 128.185L100.416 111.582L96.2135 109.4C96.2135 109.4 95.532 116.111 94.7622 124.539C94.7622 124.93 94.6865 125.321 94.6486 125.737C94.6107 126.153 94.535 126.658 94.5098 127.1C94.371 128.361 94.2447 129.623 94.1438 130.884C94.0681 131.856 93.9797 132.789 93.9292 133.811C93.8788 134.833 93.803 135.83 93.7273 136.852C93.2099 146.919 93.5254 157.34 93.8535 158.538Z" fill="#F6C1C8"/>
<path d="M94.7622 124.488C97.54 131.102 101.726 137.031 107.028 141.863C112.331 146.696 118.623 150.315 125.467 152.47L129.581 128.185L100.416 111.582L96.2135 109.4C96.2135 109.4 95.532 116.111 94.7622 124.488Z" fill="#5F5F5F"/>
<path d="M157.409 81.241C169.815 122.659 146.404 134.757 137.469 137.419C129.354 139.829 101.426 147.033 84.8052 107.141C68.1844 67.25 83.5432 48.3768 101.792 41.867C120.041 35.3572 145.016 39.7727 157.409 81.241Z" fill="#F6C1C8"/>
<path d="M150.19 74.3402C149.235 74.6246 148.266 74.8604 147.287 75.0467C146.3 75.4454 145.207 75.5031 144.183 75.2107C143.881 75.057 143.638 74.808 143.492 74.5024C143.346 74.1968 143.305 73.8515 143.375 73.5201C143.611 72.8819 144.014 72.3189 144.542 71.8905C145.071 71.462 145.705 71.1838 146.379 71.0853C147.706 70.6659 149.143 70.7605 150.404 71.3502C150.685 71.4994 150.915 71.7267 151.069 72.0044C151.222 72.2821 151.292 72.5984 151.269 72.9149C151.247 73.2314 151.133 73.5345 150.941 73.7875C150.749 74.0404 150.488 74.2324 150.19 74.3402Z" fill="#5F5F5F"/>
<path d="M122.262 90.4254C123.233 90.2235 124.194 89.9709 125.139 89.6684C126.196 89.5455 127.181 89.0751 127.941 88.3311C128.134 88.0514 128.23 87.716 128.214 87.3764C128.198 87.0367 128.071 86.7118 127.852 86.4514C127.341 86.0079 126.72 85.7096 126.054 85.5876C125.388 85.4655 124.702 85.5242 124.066 85.7575C122.699 86.0216 121.479 86.7864 120.646 87.9022C120.472 88.1669 120.378 88.4764 120.376 88.7933C120.374 89.1102 120.464 89.4208 120.635 89.6877C120.806 89.9546 121.051 90.1663 121.339 90.2972C121.628 90.4282 121.948 90.4726 122.262 90.4254Z" fill="#5F5F5F"/>
<path d="M146.505 87.6246C146.505 87.5111 146.757 87.713 146.782 87.8391C147.275 90.7408 148.347 93.983 151.149 94.3994C151.237 94.3994 151.263 94.5634 151.149 94.5634C147.88 94.7652 146.517 90.4632 146.505 87.6246Z" fill="#5F5F5F"/>
<path d="M148.461 84.0922C153.03 82.8306 155.301 92.0023 151.074 93.2135C146.846 94.4246 144.637 85.1898 148.461 84.0922Z" fill="#5F5F5F"/>
<path d="M150.531 84.2184C151.389 84.5338 152.323 85.2403 153.206 85.0763C154.09 84.9123 154.733 83.7138 155.15 82.5531C155.15 82.4396 155.276 82.5531 155.314 82.6162C155.793 84.3698 155.667 86.4009 154.052 87.1074C152.436 87.8139 151.073 86.5649 150.266 84.9123C150.064 84.6473 150.19 84.0922 150.531 84.2184Z" fill="#5F5F5F"/>
<path d="M135.147 116.111C135.955 116.666 136.8 117.486 137.873 117.373C138.953 117.172 139.977 116.742 140.877 116.111C140.895 116.097 140.917 116.09 140.94 116.09C140.963 116.091 140.985 116.099 141.003 116.114C141.021 116.128 141.033 116.149 141.037 116.171C141.042 116.194 141.039 116.217 141.028 116.237C140.708 116.88 140.22 117.423 139.616 117.81C139.011 118.196 138.313 118.412 137.595 118.433C136.979 118.378 136.394 118.141 135.913 117.752C135.432 117.363 135.077 116.841 134.895 116.25C134.819 116.124 135.046 116.023 135.147 116.111Z" fill="#5F5F5F"/>
<path d="M144.801 103.016C144.801 103.016 146.366 107.167 146.833 109.185C146.833 109.374 146.404 109.576 145.723 109.778C145.723 109.778 145.723 109.778 145.647 109.778C143.981 110.489 142.152 110.727 140.36 110.467C138.568 110.206 136.882 109.457 135.488 108.302C135.456 108.266 135.438 108.22 135.435 108.172C135.433 108.124 135.447 108.077 135.474 108.038C135.502 107.999 135.542 107.97 135.588 107.956C135.634 107.942 135.683 107.944 135.728 107.961C138.707 109.135 141.986 109.321 145.079 108.491C145.079 107.898 142.164 101.464 142.479 101.363C144.083 101.148 145.709 101.148 147.313 101.363C144.309 92.6205 139.93 84.4202 137.065 75.6648C137.034 75.5979 137.03 75.5211 137.054 75.4513C137.079 75.3815 137.131 75.3245 137.198 75.2927C137.265 75.2609 137.342 75.257 137.411 75.2818C137.481 75.3067 137.538 75.3582 137.57 75.4251C142.77 83.6885 146.404 93.6803 149.774 102.625C150.19 103.748 145.698 103.18 144.801 103.016Z" fill="#5F5F5F"/>
<path d="M120.23 94.8788C120.999 94.3086 121.85 93.8577 122.754 93.5415C123.667 93.2082 124.623 93.0085 125.593 92.9485C126.617 92.9038 127.64 93.0492 128.61 93.3775C129.605 93.7522 130.502 94.3474 131.235 95.1185L132.522 96.5441L130.616 96.8595C129.262 97.0775 127.933 97.4369 126.654 97.9318C125.317 98.4137 124.123 99.2251 123.183 100.291C123.581 98.7264 124.578 97.3808 125.959 96.5441C127.281 95.6641 128.773 95.071 130.339 94.8031L129.746 96.5441C128.591 95.4661 127.105 94.8121 125.53 94.6895C123.763 94.5294 121.982 94.5929 120.23 94.8788Z" fill="#5F5F5F"/>
<path d="M127.474 100.821C128.783 100.107 129.996 99.2296 131.083 98.2093C131.323 97.9444 132.231 96.8216 132.105 96.6071C131.763 95.9546 131.339 95.3483 130.843 94.8031C131.502 95.228 132.069 95.7815 132.509 96.4305C132.526 96.8526 132.449 97.2732 132.283 97.6617C132.118 98.0502 131.867 98.3967 131.55 98.6761C130.402 99.7344 128.996 100.474 127.474 100.821Z" fill="#5F5F5F"/>
<path d="M90.4208 110.421C99.0026 107.368 92.6294 87.5237 92.6294 87.5237C92.6294 87.5237 106.259 79.8155 108.897 67.8682C108.897 67.8682 107.811 77.8095 103.306 83.2848C102.549 84.2058 131.07 71.0979 126.123 47.4936C126.123 47.4936 138.138 68.3476 153.206 68.3098C153.926 68.3098 144.246 48.6291 138.264 45.3363C134.815 43.4048 131.128 41.9331 127.297 40.9586C116.134 37.371 104.008 38.3041 93.5254 43.5575C76.2736 52.3886 70.9227 75.5765 72.2352 83.9282C74.7971 100.165 86.3571 111.847 90.4208 110.421Z" fill="#5F5F5F"/>
<path d="M104.417 83.4236C120.306 77.204 129.657 62.5065 125.303 45.5761C125.297 45.4894 125.32 45.403 125.368 45.3307C125.416 45.2584 125.487 45.2042 125.57 45.1767C125.652 45.1492 125.742 45.15 125.824 45.1789C125.906 45.2078 125.976 45.2632 126.023 45.3364C133.936 61.2954 120.066 79.7271 104.366 83.7642C103.988 83.9282 104.051 83.575 104.417 83.4236Z" fill="#5F5F5F"/>
<path d="M90.1434 109.475C97.3496 101.994 95.7216 92.7467 93.3237 83.6002C93.3237 83.3353 93.7023 83.1713 93.8033 83.4362C96.9331 92.1411 99.0154 103.394 90.7114 110.093C90.6294 110.169 90.5208 110.208 90.4096 110.204C90.2983 110.199 90.1935 110.15 90.1182 110.068C90.0429 109.986 90.0033 109.878 90.008 109.767C90.0127 109.655 90.0614 109.551 90.1434 109.475Z" fill="#5F5F5F"/>
<path d="M125.101 44.0117C125.102 43.9915 125.109 43.972 125.12 43.9557C125.132 43.9394 125.149 43.927 125.168 43.9202C125.187 43.9134 125.208 43.9125 125.227 43.9175C125.247 43.9226 125.264 43.9334 125.278 43.9486C130.402 52.5147 136.144 67.9187 148.776 66.2282C148.842 66.2224 148.907 66.2409 148.959 66.2803C149.012 66.3197 149.048 66.377 149.06 66.4413C149.073 66.5056 149.061 66.5723 149.027 66.6284C148.993 66.6846 148.94 66.7263 148.877 66.7454C136.901 69.4704 127.133 53.9908 125.101 44.0117Z" fill="#5F5F5F"/>
<path d="M73.775 82.8432L71.8189 87.0191L85.638 96.7585L89.8531 87.3597L73.775 82.8432ZM84.5653 92.4943L75.0118 86.5649L75.4409 85.5809L86.1175 89.2016L84.5653 92.4943Z" fill="#FFD87C"/>
<path d="M74.2042 75.5261L73.9644 80.1435L90.4464 83.9282L90.7997 73.6337L74.2042 75.5261ZM87.8971 80.3705L76.804 78.4782V77.4058L88.0611 76.7498L87.8971 80.3705Z" fill="#FFD87C"/>
<path d="M92.3392 108.327C92.3392 108.327 80.3627 96.973 75.0496 101.565C69.7365 106.157 80.6529 123.82 88.2377 124.98C89.2022 125.202 90.2018 125.227 91.1759 125.051C92.1501 124.875 93.0783 124.504 93.9045 123.959C94.7306 123.414 95.4373 122.707 95.9818 121.88C96.5262 121.054 96.8971 120.126 97.0718 119.152L92.3392 108.327Z" fill="#F6C1C8"/>
<path d="M78.2552 106.637C78.2359 106.644 78.2192 106.657 78.2075 106.674C78.1957 106.691 78.1894 106.711 78.1894 106.731C78.1894 106.752 78.1957 106.772 78.2075 106.789C78.2192 106.806 78.2359 106.819 78.2552 106.826C83.6062 107.81 87.1524 111.872 89.9541 116.212C88.1115 114.686 85.903 114.105 83.8207 116.351C83.7071 116.477 83.8207 116.654 84.01 116.591C84.8206 116.138 85.7509 115.946 86.6745 116.041C87.5981 116.136 88.47 116.513 89.1716 117.12C90.3553 118.129 91.422 119.268 92.3519 120.514C92.68 120.905 93.4246 120.514 93.1596 120.035V119.934C91.9102 113.601 85.1963 105.804 78.2552 106.637Z" fill="#5F5F5F"/>
<path d="M3.35426 334.151C15.9744 345.505 42.2749 341.973 109.364 339.487C118.639 339.147 133.784 273.027 123.864 272.888C111.37 272.699 62.7952 274.718 59.2616 275.323C29.4654 280.344 -5.20221 326.493 3.35426 334.151Z" fill="#F6C1C8"/>
<path d="M105.868 276.61C105.868 276.61 130.2 267.11 144.536 266.076C163.732 264.688 180.882 271.387 187.887 274.629C202.539 281.404 233.256 307.897 227.173 318.066C221.658 327.275 191.622 298.625 191.622 298.625C191.622 298.625 227.072 322.784 218.39 332.687C209.707 342.591 176.693 307.229 176.693 307.229C176.693 307.229 212.559 332.877 201.996 341.645C194.02 348.268 162.356 318.028 162.356 318.028C162.356 318.028 193.036 340.282 185.072 347.448C176.327 355.371 145.357 329.281 145.357 329.281C122.173 344.105 105.073 341.695 93.1092 338.529C90.3202 337.809 105.868 276.61 105.868 276.61Z" fill="#F6C1C8"/>
<path d="M179.898 289.478C184.164 292.165 188.505 294.852 192.518 297.918C196.531 300.984 200.444 304.226 204.141 307.595C213.241 315.971 217.632 322.645 217.317 322.267C209.846 313.221 195.648 302.081 191.635 298.991C187.622 295.9 183.785 292.683 179.772 289.617C179.671 289.566 179.797 289.415 179.898 289.478Z" fill="#5F5F5F"/>
<path d="M168.59 303.759C173.891 307.431 179.28 310.875 184.416 314.773C189.552 318.671 194.045 322.797 198.879 327.023C199.257 327.351 198.954 327.439 198.563 327.124C193.515 323.099 188.644 319.756 183.596 315.77C178.548 311.783 173.664 307.632 168.451 303.86C168.414 303.822 168.515 303.696 168.59 303.759Z" fill="#5F5F5F"/>
<path d="M156.677 314.268C165.057 319.466 172.477 326.19 179.595 332.978C179.949 333.318 179.595 333.394 179.166 333.066C171.67 326.758 165.827 321.712 156.45 314.558C156.349 314.458 156.5 314.167 156.677 314.268Z" fill="#5F5F5F"/>
<path d="M33.5923 288.002C38.5142 284.154 52.674 274.743 67.9318 274.541C68.1085 274.541 68.1337 274.755 67.9318 274.781C55.5893 276.534 38.8044 284.798 33.6933 288.179C33.6049 288.305 33.4661 288.09 33.5923 288.002Z" fill="#5F5F5F"/>
</svg>
