<svg width="1" height="1" viewBox="0 0 1 1" fill="none" xmlns="http://www.w3.org/2000/svg">
<path d="M0.0134995 0.362889C0.0516038 0.236202 0.137513 0.129288 0.253034 0.0647538C0.368556 0.000219676 0.504686 -0.0168818 0.632589 0.0170688C0.69667 0.033806 0.756672 0.0633203 0.809059 0.103829C0.861447 0.144339 0.905102 0.195004 0.937411 0.2528C0.969721 0.310597 0.990028 0.374348 0.997087 0.44018C1.00415 0.506011 0.997795 0.57259 0.978473 0.635919C0.940369 0.762607 0.854515 0.869493 0.738994 0.934027C0.623472 0.998561 0.487342 1.01566 0.359439 0.981712C0.235229 0.939883 0.131056 0.853386 0.0671184 0.73901C0.00318033 0.624634 -0.0159571 0.490561 0.0134995 0.362889Z" fill="#D0D0D0"/>
</svg>
