<svg width="49" height="63" viewBox="0 0 49 63" fill="none" xmlns="http://www.w3.org/2000/svg">
<g clip-path="url(#clip0_320_20244)">
<path d="M33.6078 22.9004C32.8176 21.2521 31.9031 19.6615 30.869 18.1395C31.765 15.5122 33.2502 13.1051 35.2589 11.0849C37.0046 9.32923 39.0405 7.97067 41.2584 7.05336C42.1844 7.98507 43.0342 8.99319 43.7992 10.0664C38.2475 11.849 34.118 16.8639 33.6078 22.9004Z" fill="#C64B68"/>
<path d="M40.909 24.1645V38.959C40.909 48.1364 33.4852 55.6028 24.3603 55.6028C15.2354 55.6028 7.81156 48.1363 7.81156 38.959C7.81156 34.8801 4.51206 31.5617 0.4566 31.5617V27.8631C6.53991 27.8631 11.4891 32.8407 11.4891 38.959C11.4891 46.0969 17.2631 51.9041 24.3604 51.9041C31.4577 51.9041 37.2318 46.0969 37.2318 38.959V24.1644C37.2318 18.9091 40.8832 14.4955 45.7686 13.3549C46.3228 14.4735 46.7938 15.6406 47.1714 16.8492C43.6322 17.3819 40.909 20.4591 40.909 24.1645Z" fill="#C64B68"/>
<path d="M32.6584 8.46917C31.4266 9.708 30.3436 11.0871 29.4396 12.5681L28.2154 14.5733L26.4651 12.7999C22.2416 8.55223 17.168 5.46805 11.6293 3.70171C13.0534 2.79695 14.5778 2.03837 16.1829 1.44885C20.3208 3.20251 24.166 5.65619 27.5697 8.75341C28.3254 7.72953 29.1577 6.75931 30.0581 5.85393C31.4205 4.48368 32.9091 3.28631 34.4973 2.27215C35.7848 2.88111 37.0104 3.60094 38.1603 4.42166C36.1546 5.4619 34.2994 6.81874 32.6584 8.46917Z" fill="#C64B68"/>
<path d="M24.3599 63C11.1794 63 0.456108 52.2152 0.456108 38.9588V35.2602C2.48384 35.2602 4.13365 36.9193 4.13365 38.9588C4.13365 50.1757 13.2072 59.3013 24.3599 59.3013C35.5127 59.3013 44.5862 50.1757 44.5862 38.9588V24.1643C44.5862 22.214 46.0952 20.6125 48.0006 20.4761C48.1733 21.6395 48.2637 22.8297 48.2637 24.041V38.9588C48.2637 52.2152 37.5404 63 24.3599 63Z" fill="#C64B68"/>
<path d="M24.3599 48.2056C19.2905 48.2056 15.1661 44.0575 15.1661 38.959C15.1661 30.8013 8.56727 24.1644 0.456108 24.1644V24.0411C0.456108 22.8275 0.546765 21.6348 0.720249 20.4689C5.53644 20.5366 10.0519 22.451 13.4608 25.8794C16.9318 29.3705 18.8436 34.0155 18.8436 38.959C18.8436 42.0181 21.3182 44.5069 24.3598 44.5069C27.4014 44.5069 29.8761 42.018 29.8761 38.959C29.8761 24.2507 19.1497 12.0162 5.15131 9.74834C6.00331 8.5933 6.95576 7.51787 7.99531 6.53424C13.96 7.92282 19.4324 10.9578 23.8647 15.4156C30.1125 21.6995 33.5535 30.0606 33.5535 38.959C33.5537 44.0575 29.4294 48.2056 24.3599 48.2056Z" fill="#C64B68"/>
<path d="M27.4579 3.23882C27.3461 3.35116 27.2351 3.46461 27.1251 3.57892C25.4556 2.30157 23.7029 1.14997 21.8764 0.129173C22.6929 0.0440242 23.5213 -0.000145266 24.36 -0.000145266C26.4008 -0.000145266 28.3824 0.25899 30.2746 0.745271C29.2878 1.51481 28.3449 2.34697 27.4579 3.23882Z" fill="#C64B68"/>
<path d="M24.3598 40.8078C23.3443 40.8078 22.5211 39.9799 22.5211 38.9586C22.5211 27.0965 13.2191 17.3785 1.56633 16.7947C1.95893 15.548 2.45002 14.3451 3.03054 13.195C8.93842 13.7801 14.4145 16.3744 18.6628 20.6471C23.5223 25.5346 26.1985 32.0378 26.1985 38.9586C26.1985 39.9799 25.3752 40.8078 24.3598 40.8078Z" fill="#C64B68"/>
</g>
<defs>
<clipPath id="clip0_320_20244">
<rect width="48.2972" height="62.4533" fill="white" transform="matrix(1.00876 0 0 -1.00876 0 63)"/>
</clipPath>
</defs>
</svg>
