<svg width="107" height="40" viewBox="0 0 107 40" fill="none" xmlns="http://www.w3.org/2000/svg">
<g opacity="0.8" clip-path="url(#clip0_320_20599)">
<path opacity="0.5" d="M19.8249 14.0333L11.5041 18.8333L3.2041 14.0333L11.5041 9.21667L19.8249 14.0333Z" fill="white"/>
<path d="M9.65456 19.9L2.27539 24.175V15.625L9.65456 19.9Z" fill="white"/>
<path opacity="0.5" d="M19.8249 25.7667L11.5208 30.5833L3.19995 25.7667L11.5208 20.9708L19.8249 25.7667Z" fill="white"/>
<path d="M0.7125 27.0917L10.8292 32.9375C11.2708 33.1917 11.8125 33.1917 12.2542 32.9375L22.4167 27.0625C23.3667 26.5125 23.3625 25.1458 22.4167 24.6L14.2958 19.9167L22.2792 15.3125C23.2292 14.7667 23.2292 13.3958 22.2792 12.85L12.2417 7.05833C11.8 6.80416 11.2583 6.80416 10.8208 7.05833L0.7125 12.8917C0.270833 13.1458 0 13.6167 0 14.125V25.8625C0 26.3708 0.270833 26.8375 0.7125 27.0917ZM11.5042 9.72916L18.9375 14.0125L11.5042 18.3L4.07083 14.0167L11.5042 9.72916ZM8.76666 19.9L2.72083 23.4042V16.3958L8.76666 19.9ZM11.5042 30.0708L4.09166 25.7875L11.5208 21.5L18.9542 25.7833L11.5042 30.0708Z" fill="#641C36"/>
<path d="M36.325 15.6708C37.0708 15.6708 37.7833 15.8667 38.4042 16.2208C38.9917 16.5583 39.7375 16.45 40.2167 15.9708C40.9083 15.2792 40.7875 14.1042 39.9333 13.6042C38.85 12.9833 37.6208 12.6458 36.325 12.6458C32.3417 12.6458 29.125 15.8833 29.125 19.8833C29.125 23.8667 32.3625 27.1208 36.325 27.1208C37.6042 27.1208 38.85 26.7833 39.9333 26.1625C40.7875 25.6667 40.9125 24.4917 40.2167 23.8167C39.7375 23.3375 38.9917 23.2292 38.4042 23.5667C37.7833 23.9208 37.0542 24.1167 36.325 24.1167C34.0125 24.1167 32.1292 22.2125 32.1292 19.8833C32.1292 17.5708 34.0125 15.6708 36.325 15.6708ZM53.6958 12.6625C52.8583 12.6625 52.1833 13.3375 52.1833 14.175V19.8292C52.1833 22.1958 50.6708 24.1125 48.8208 24.1125C46.9708 24.1125 45.4583 22.1917 45.4583 19.8292V14.175C45.4583 13.3375 44.7833 12.6625 43.9458 12.6625C43.1083 12.6625 42.4333 13.3375 42.4333 14.175V19.8292C42.4333 23.8458 45.2958 27.1208 48.8 27.1208C52.3208 27.1208 55.1667 23.85 55.1667 19.8292V14.175C55.2083 13.3375 54.5333 12.6625 53.6958 12.6625ZM79.2292 12.6625C77.7167 12.6625 76.2958 13.1583 75.1583 13.9792V9.64167C75.1583 8.80417 74.4833 8.12917 73.6458 8.12917C72.8083 8.12917 72.1333 8.80417 72.1333 9.64167V19.8833C72.1333 23.8667 75.3167 27.1208 79.2292 27.1208C83.1417 27.1208 86.325 23.8833 86.325 19.8833C86.3083 15.9167 83.125 12.6625 79.2292 12.6625ZM79.2292 24.1333C76.9708 24.1333 75.1583 22.2292 75.1583 19.9C75.1583 17.5708 76.9917 15.6667 79.2292 15.6667C81.4875 15.6667 83.3167 17.5708 83.3167 19.9C83.3042 22.2292 81.4708 24.1333 79.2292 24.1333ZM89.3833 12.6625C88.5458 12.6625 87.8708 13.3375 87.8708 14.175V25.625C87.8708 26.4625 88.5458 27.1375 89.3833 27.1375C90.2208 27.1375 90.8958 26.4625 90.8958 25.625V14.175C90.8958 13.3375 90.2208 12.6625 89.3833 12.6625ZM63.6708 12.6625C59.7583 12.6625 56.575 15.9 56.575 19.9C56.575 23.8833 59.8833 27.1375 63.9542 27.1375C65.2708 27.1375 66.55 26.8 67.6542 26.1583C68.5083 25.6792 68.65 24.5042 67.975 23.8125C67.4958 23.3333 66.7667 23.2083 66.1792 23.5458C65.5208 23.9208 64.7583 24.1333 63.975 24.1333C62.1083 24.1333 60.525 22.9958 59.8875 21.4125H69.275C70.1125 21.4125 70.7875 20.7375 70.7875 19.9C70.7667 15.9167 67.5833 12.6625 63.6708 12.6625ZM59.85 18.3875C60.4375 16.8042 61.9292 15.6667 63.6708 15.6667C65.4125 15.6667 66.9083 16.8042 67.4917 18.3875H59.85ZM89.3833 8.16667C88.5458 8.16667 87.8708 8.84167 87.8708 9.67917C87.8708 10.5167 88.5458 11.1917 89.3833 11.1917C90.2208 11.1917 90.8958 10.5167 90.8958 9.67917C90.8958 8.825 90.2208 8.16667 89.3833 8.16667ZM99.5542 12.6625C95.6417 12.6625 92.4583 15.9 92.4583 19.9C92.4583 23.8833 95.6417 27.1375 99.5542 27.1375C101.067 27.1375 102.487 26.6417 103.642 25.8042V30.1417C103.642 30.9792 104.317 31.6542 105.154 31.6542C105.992 31.6542 106.667 30.9792 106.667 30.1417V19.9C106.65 15.9167 103.467 12.6625 99.5542 12.6625ZM99.5542 24.1333C97.2958 24.1333 95.4667 22.2292 95.4667 19.9C95.4667 17.5708 97.3 15.6667 99.5542 15.6667C101.812 15.6667 103.642 17.5708 103.642 19.9C103.642 22.2292 101.812 24.1333 99.5542 24.1333Z" fill="#641C36"/>
</g>
<defs>
<clipPath id="clip0_320_20599">
<rect width="106.667" height="40" fill="white"/>
</clipPath>
</defs>
</svg>
