<svg width="5" height="5" viewBox="0 0 5 5" fill="none" xmlns="http://www.w3.org/2000/svg">
<path d="M4.90185 3.1796C4.76689 3.65483 4.49399 4.07937 4.11765 4.39954C3.74131 4.71971 3.27843 4.92113 2.78757 4.9783C2.29672 5.03548 1.79994 4.94583 1.36004 4.72074C0.920146 4.49565 0.556879 4.14522 0.316237 3.71374C0.0755956 3.28226 -0.0316456 2.78912 0.00809128 2.29671C0.0478282 1.8043 0.232753 1.33473 0.539473 0.947388C0.846192 0.56005 1.26092 0.272355 1.73123 0.120664C2.20153 -0.0310273 2.70629 -0.039898 3.18163 0.0951953C3.49812 0.183262 3.79401 0.333203 4.05216 0.536327C4.3103 0.739451 4.5256 0.991723 4.68557 1.27857C4.84555 1.56541 4.94701 1.88113 4.98413 2.20744C5.02126 2.53374 4.9933 2.86417 4.90185 3.1796Z" fill="white"/>
</svg>
