<svg width="102" height="179" viewBox="0 0 102 179" fill="none" xmlns="http://www.w3.org/2000/svg">
<path d="M53.3789 124.589C53.3789 124.589 65.2016 82.1988 74.6319 67.7988C84.0621 53.3988 101.657 37.5943 101.657 37.5943C101.657 37.5943 101.239 102.951 53.3789 124.589Z" fill="#FBA0B5"/>
<path d="M54.2271 123.868C58.2039 117.231 61.8003 110.375 64.9992 103.331C66.3526 95.7538 68.3125 88.2978 70.8599 81.0346C70.8599 80.8954 71.1004 80.9714 71.0751 81.1106C69.5055 87.8044 67.6827 94.4476 66.0118 101.129C70.7839 90.8033 75.3155 80.3513 80.999 70.608C82.3079 65.894 84.1466 61.3434 86.4799 57.0431C86.4799 56.9166 86.7458 56.9799 86.6825 57.1064C85.2419 60.4211 84.0116 63.8233 82.999 67.2927C85.674 62.9392 88.6741 58.7939 91.9735 54.892C92.1761 54.6516 92.5938 54.892 92.3913 55.183C84.7964 64.8631 79.556 75.8972 74.556 87.0578C79.9209 81.234 84.8737 75.0441 89.3787 68.5328C89.3787 68.4695 89.5305 68.5327 89.4926 68.596C84.7987 75.8907 79.4882 82.77 73.6193 89.1584C69.9865 97.3453 66.4169 105.608 62.0752 113.327C70.7459 106.013 77.4041 96.5355 83.999 87.3995C84.0322 87.3644 84.077 87.3424 84.1251 87.3374C84.1731 87.3325 84.2214 87.3449 84.2611 87.3724C84.3009 87.3999 84.3295 87.4407 84.3418 87.4874C84.354 87.5342 84.3492 87.5838 84.3281 87.6273C77.7332 97.649 70.8978 107.101 61.4043 114.516C59.4826 117.935 57.3696 121.243 55.0752 124.424C55.0387 124.48 54.9915 124.528 54.9364 124.565C54.8813 124.603 54.8193 124.629 54.7541 124.643C54.6889 124.656 54.6216 124.657 54.5562 124.644C54.4907 124.632 54.4284 124.606 54.3727 124.57C54.317 124.533 54.2691 124.486 54.2316 124.431C54.1942 124.376 54.1679 124.314 54.1544 124.249C54.1409 124.184 54.1404 124.116 54.1528 124.051C54.1653 123.986 54.1906 123.923 54.2271 123.868Z" fill="#5F5F5F"/>
<path d="M49.7208 128.385C49.7208 128.385 70.9611 89.2975 64.7839 51.3995C58.6068 13.5016 52.0119 0 52.0119 0C52.0119 0 18.6452 58.9791 49.7208 128.385Z" fill="#FBA0B5"/>
<path d="M40.9997 66.9637C42.7995 77.7039 45.5443 88.2644 49.2021 98.5221C49.2021 84.603 49.5185 70.6839 49.8983 56.7647C47.5228 48.3538 46.1754 39.6861 45.8857 30.9511C45.8857 30.6853 46.2654 30.698 46.2781 30.9511C46.9513 38.4666 48.1954 45.9201 49.9995 53.247C50.3286 41.7742 50.7042 30.3015 51.1261 18.8288C51.1355 18.7975 51.1547 18.7699 51.1809 18.7504C51.2071 18.7309 51.239 18.7203 51.2717 18.7203C51.3044 18.7203 51.3362 18.7309 51.3625 18.7504C51.3887 18.7699 51.4079 18.7975 51.4173 18.8288C51.4173 36.7592 51.4172 54.6769 51.3033 72.6073C53.884 65.6745 55.9321 58.5551 57.4299 51.311C57.4299 51.2477 57.5564 51.311 57.5438 51.311C56.9109 59.6878 54.3666 67.7608 51.2147 75.5429C51.1388 87.0072 51.0122 98.4589 50.759 109.911C54.3413 97.7376 58.1893 85.9443 59.2273 73.0754C59.2208 73.0546 59.2193 73.0325 59.2229 73.011C59.2265 72.9895 59.2351 72.9691 59.248 72.9515C59.261 72.9339 59.2779 72.9196 59.2974 72.9097C59.3169 72.8999 59.3384 72.8948 59.3602 72.8948C59.3821 72.8948 59.4036 72.8999 59.4231 72.9097C59.4426 72.9196 59.4595 72.9339 59.4724 72.9515C59.4853 72.9691 59.4939 72.9895 59.4975 73.011C59.5011 73.0325 59.4996 73.0546 59.4931 73.0754C59.2146 87.273 55.5564 101.673 50.8729 115.023C50.8263 115.157 50.743 115.275 50.6324 115.364C50.5312 119.54 50.4088 123.724 50.2654 127.917C50.2654 128.041 50.216 128.16 50.1282 128.248C50.0404 128.336 49.9212 128.385 49.797 128.385C49.6728 128.385 49.5537 128.336 49.4658 128.248C49.378 128.16 49.3287 128.041 49.3287 127.917C49.1641 119.35 49.1135 110.784 49.1261 102.217C44.4941 91.0021 41.666 79.1253 40.7465 67.0269C40.8098 66.8751 40.987 66.8498 40.9997 66.9637Z" fill="#5F5F5F"/>
<path d="M42.4551 60.9151C43.1944 64.3173 43.6894 67.7679 43.9361 71.2406C43.9361 71.3545 43.7716 71.3798 43.7336 71.2406C42.9109 67.8523 42.3272 64.4105 41.9868 60.9405C41.9614 60.7001 42.4045 60.6494 42.4551 60.9151Z" fill="#5F5F5F"/>
<path d="M54.8726 32.343C54.8726 32.2165 55.0752 32.2544 55.0752 32.343C55.0458 34.7549 54.6881 37.1516 54.0119 39.4671C54.0119 39.6569 53.6828 39.5683 53.7207 39.3785C54.1891 37.0629 54.4676 34.7472 54.8726 32.343Z" fill="#5F5F5F"/>
<path d="M41.9742 131.409C41.9742 131.409 42.835 90.6009 31.1262 70.3169C19.4175 50.0329 0 39.7075 0 39.7075C0 39.7075 7.83536 111.631 41.9742 131.409Z" fill="#FBA0B5"/>
<path d="M20.6326 96.5102C25.3408 103.638 30.6423 110.355 36.4805 116.592C34.143 108.24 31.4426 100.036 28.3793 91.9801C21.8098 86.2227 15.3035 80.2628 11.2782 72.3921C11.2661 72.3798 11.257 72.365 11.2515 72.3486C11.2459 72.3323 11.2441 72.315 11.2463 72.2979C11.2485 72.2808 11.2545 72.2644 11.2639 72.2499C11.2734 72.2355 11.286 72.2234 11.3007 72.2145C11.3155 72.2057 11.3321 72.2002 11.3493 72.1987C11.3665 72.1972 11.3838 72.1996 11.3999 72.2057C11.416 72.2119 11.4305 72.2216 11.4424 72.2341C11.4542 72.2467 11.463 72.2618 11.4681 72.2782C15.7972 79.2505 21.5946 84.8308 27.6831 90.196C22.979 78.0634 17.5342 66.231 11.3795 54.7654C11.3443 54.7067 11.3338 54.6364 11.3504 54.5699C11.367 54.5035 11.4093 54.4464 11.4681 54.4111C11.5268 54.3759 11.5972 54.3654 11.6637 54.382C11.7301 54.3986 11.7873 54.441 11.8225 54.4997C15.5671 60.5185 18.9814 66.7364 22.0503 73.126C20.949 68.7605 20.0756 64.2684 18.949 59.9788C18.949 59.9553 18.9584 59.9328 18.975 59.9162C18.9916 59.8995 19.0141 59.8902 19.0376 59.8902C19.0611 59.8902 19.0837 59.8995 19.1003 59.9162C19.1169 59.9328 19.1263 59.9553 19.1263 59.9788C21.4348 65.5295 23.0503 71.3434 23.9363 77.2891C28.0412 86.3385 31.4889 95.6715 34.2526 105.216C33.9488 99.1042 33.5691 93.0051 32.9868 86.906C32.9868 86.7921 33.1641 86.7668 33.1894 86.906C34.4933 93.6756 35.0872 100.563 34.9615 107.456C36.6451 113.542 38.0754 119.692 39.2146 125.892C39.2146 126.057 38.9995 126.133 38.9488 125.968C38.3159 123.361 37.683 120.793 36.9235 118.211C36.8777 118.222 36.8301 118.222 36.7843 118.211C30.4552 111.884 24.5439 104.748 20.6199 96.7L20.6326 96.5102Z" fill="#5F5F5F"/>
<path d="M7.06327 63.3067C8.32908 64.7113 9.59489 66.1918 10.8607 67.647C12.0882 68.8687 13.2181 70.1844 14.2404 71.5823C14.2495 71.5944 14.254 71.6095 14.2529 71.6247C14.2518 71.6399 14.2453 71.6542 14.2345 71.665C14.2237 71.6757 14.2095 71.6823 14.1943 71.6834C14.1791 71.6844 14.164 71.68 14.1518 71.6708C12.6822 70.5925 11.3701 69.3149 10.2531 67.8747C9.01545 66.5126 7.90137 65.0432 6.92401 63.4839C6.90525 63.464 6.89424 63.4381 6.893 63.4108C6.89175 63.3836 6.90034 63.3567 6.91722 63.3353C6.93409 63.3138 6.95813 63.2991 6.98493 63.2939C7.01174 63.2886 7.03955 63.2932 7.06327 63.3067Z" fill="#5F5F5F"/>
<path d="M76.7584 126.424L75.2901 139.508L70.8344 179H32.05L27.5944 139.457L26.1261 126.373H76.7584V126.424Z" fill="#8C8C8C"/>
<path d="M76.7584 126.424L75.2901 139.508H27.5944L26.1261 126.424H76.7584Z" fill="#5F5F5F"/>
<path d="M22.6834 131.764H80.2144V116.946L22.6834 116.946V131.764Z" fill="#8C8C8C"/>
</svg>
