<svg width="71" height="34" viewBox="0 0 71 34" fill="none" xmlns="http://www.w3.org/2000/svg">
<path d="M37.5668 20.7636C43.0338 20.7636 47.4656 16.2638 47.4656 10.7131C47.4656 5.16241 43.0338 0.662667 37.5668 0.662667C32.0999 0.662667 27.668 5.16241 27.668 10.7131C27.668 16.2638 32.0999 20.7636 37.5668 20.7636Z" fill="#C64B68"/>
<path fill-rule="evenodd" clip-rule="evenodd" d="M0 16.5667C8.57833 6.42442 21.3003 0 35.5 0C49.6998 0 62.4218 6.42442 71.0001 16.5667C62.4218 26.709 49.6998 33.1334 35.5 33.1334C21.3003 33.1334 8.57833 26.709 0 16.5667ZM51.8167 16.5667C51.8167 25.5942 44.6089 32.9125 35.7176 32.9125C26.8263 32.9125 19.6185 25.5942 19.6185 16.5667C19.6185 7.53915 26.8263 0.220889 35.7176 0.220889C44.6089 0.220889 51.8167 7.53915 51.8167 16.5667Z" fill="#C64B68"/>
</svg>
