<svg width="2" height="2" viewBox="0 0 2 2" fill="none" xmlns="http://www.w3.org/2000/svg">
<path d="M1.98589 0.855302H1.87319H1.80278C1.72472 0.707346 1.61682 0.577181 1.48592 0.472981C1.35502 0.368782 1.20395 0.29282 1.04222 0.249897C0.881066 0.201773 0.711823 0.186942 0.544751 0.206307C0.377678 0.225671 0.216269 0.278826 0.0704041 0.362535V0.292133L0 0.179495C0.0422916 0.14769 0.0900237 0.123832 0.140851 0.109094L0.450707 0.0105487C0.577075 -0.00351623 0.704598 -0.00351623 0.830966 0.0105487H1.01407H1.16897H1.28167C1.38909 0.0497913 1.48908 0.106908 1.57743 0.179495C1.64463 0.223364 1.70613 0.275385 1.76053 0.33437C1.82842 0.394702 1.88556 0.466126 1.92954 0.545574C1.96088 0.577587 1.98493 0.615997 1.99998 0.658191L1.98589 0.855302Z" fill="#D0D0D0"/>
<path d="M0.28161 0.827154L0.18301 0.644115C0.379529 0.532815 0.606885 0.48835 0.830874 0.517405C0.995087 0.538553 1.15201 0.597992 1.28902 0.690927C1.42602 0.783863 1.53927 0.9077 1.61959 1.05243L1.43649 1.15098C1.38365 1.0522 1.31139 0.965135 1.22403 0.894999C1.13666 0.824863 1.03603 0.773103 0.928142 0.742853C0.820256 0.712603 0.707345 0.704477 0.596237 0.718963C0.485129 0.73345 0.378125 0.770255 0.28161 0.827154Z" fill="#D0D0D0"/>
<path d="M1.25344 1.24957L1.08444 1.36219C1.05628 1.31084 1.0181 1.2657 0.972126 1.22942C0.926152 1.19314 0.873328 1.16646 0.816833 1.15101C0.707905 1.10993 0.587752 1.10993 0.478824 1.15101L0.380224 0.967966C0.455619 0.927054 0.538554 0.901867 0.623973 0.893934C0.709393 0.886001 0.795535 0.895492 0.877179 0.92182C0.958823 0.948148 1.03428 0.990776 1.09896 1.04711C1.16365 1.10345 1.21617 1.17233 1.25344 1.24957Z" fill="#D0D0D0"/>
<path d="M0.873197 1.43256C0.860666 1.46591 0.837019 1.49394 0.806232 1.5119C0.775444 1.52985 0.739406 1.53664 0.704193 1.53112C0.686986 1.52644 0.670964 1.51817 0.657171 1.50687C0.643378 1.49557 0.632137 1.48148 0.624161 1.46553C0.616185 1.44959 0.611648 1.43213 0.61088 1.41432C0.610111 1.39651 0.613118 1.37873 0.619691 1.36216C0.622591 1.34544 0.629238 1.3296 0.639119 1.31582C0.648999 1.30203 0.661833 1.29066 0.676728 1.28254C0.691623 1.27442 0.708179 1.26976 0.725125 1.26892C0.742071 1.26808 0.758972 1.27107 0.774597 1.27768C0.791448 1.28099 0.807479 1.2877 0.821662 1.29738C0.835845 1.30706 0.847902 1.31951 0.857122 1.33399C0.866342 1.34847 0.872539 1.36468 0.875303 1.38162C0.878068 1.39856 0.877336 1.4159 0.873197 1.43256Z" fill="#D0D0D0"/>
</svg>
