<svg width="175" height="120" viewBox="0 0 175 120" fill="none" xmlns="http://www.w3.org/2000/svg">
<path d="M0.501672 120V117.475" stroke="#FFD87C" stroke-miterlimit="10"/>
<path d="M0.501672 112.361V94.4697" stroke="#FFD87C" stroke-miterlimit="10" stroke-dasharray="4.05 4.05"/>
<path d="M0.501672 91.9066V89.3813H3.02779" stroke="#FFD87C" stroke-miterlimit="10"/>
<path d="M8.09289 89.3813H116.868" stroke="#FFD87C" stroke-miterlimit="10" stroke-dasharray="4.01 4.01"/>
<path d="M119.393 89.3814H121.92V86.8561" stroke="#FFD87C" stroke-miterlimit="10"/>
<path d="M121.919 81.7298V74.0278" stroke="#FFD87C" stroke-miterlimit="10" stroke-dasharray="4.06 4.06"/>
<path d="M121.919 71.4647V68.9394" stroke="#FFD87C" stroke-miterlimit="10"/>
<path d="M124.294 69.053C124.294 68.5836 124.155 68.1246 123.894 67.7343C123.633 67.3439 123.262 67.0397 122.828 66.86C122.394 66.6803 121.917 66.6333 121.456 66.7249C120.996 66.8165 120.572 67.0426 120.24 67.3746C119.908 67.7065 119.682 68.1295 119.59 68.59C119.499 69.0504 119.546 69.5277 119.726 69.9614C119.905 70.3952 120.21 70.7659 120.6 71.0267C120.991 71.2876 121.45 71.4268 121.919 71.4268C122.549 71.4268 123.153 71.1767 123.598 70.7315C124.044 70.2864 124.294 69.6826 124.294 69.053Z" fill="#FFD87C"/>
<path d="M164.687 63.0556H85.8466L95.9132 5.9091H174.766L164.687 63.0556Z" fill="#FFD87C"/>
<path d="M124.824 0H96.9613L95.9129 5.90909H125.38L124.824 0Z" fill="#FFD87C"/>
<g opacity="0.2">
<path d="M164.687 63.0556H85.8466L95.9132 5.9091H174.766L164.687 63.0556Z" fill="#071920"/>
<path d="M124.825 0H96.9617L95.9134 5.90909H125.381L124.825 0Z" fill="#071920"/>
</g>
<path d="M121.566 5.22726H98.7804L99.3866 1.78029H122.172L121.566 5.22726Z" fill="white"/>
<path d="M160.62 0.19544L87.3605 3.75158L90.1319 60.8056L163.391 57.2494L160.62 0.19544Z" fill="#EBEBEB"/>
<path d="M105.487 53.8131L104.35 31.5278L103.327 9.24241L104.464 31.5278L105.487 53.8131Z" fill="#D0D0D0"/>
<path d="M107.306 53.7248L106.169 31.4394L105.146 9.15404L106.283 31.4394L107.306 53.7248Z" fill="#D0D0D0"/>
<path d="M109.125 53.6364L107.988 31.3637L106.965 9.06567L108.102 31.351L109.125 53.6364Z" fill="#D0D0D0"/>
<path d="M110.944 53.548L109.807 31.2753L108.771 8.9773L109.921 31.2627L110.944 53.548Z" fill="#D0D0D0"/>
<path d="M112.762 53.4596L111.625 31.1869L110.59 8.88888L111.739 31.1742L112.762 53.4596Z" fill="#D0D0D0"/>
<path d="M114.581 53.3712L113.444 31.0985L112.409 8.80051L113.558 31.0859L114.581 53.3712Z" fill="#D0D0D0"/>
<path d="M116.4 53.2829L115.25 31.0101L114.227 8.71214L115.364 30.9975L116.4 53.2829Z" fill="#D0D0D0"/>
<path d="M118.219 53.1945L117.069 30.9218L116.046 8.62377L117.183 30.9091L118.219 53.1945Z" fill="#D0D0D0"/>
<path d="M120.037 53.1061L118.888 30.8333L117.865 8.53534L119.002 30.8207L120.037 53.1061Z" fill="#D0D0D0"/>
<path d="M121.844 53.0177L120.707 30.745L119.684 8.44697L120.821 30.7323L121.844 53.0177Z" fill="#D0D0D0"/>
<path d="M123.662 52.9293L122.526 30.6566L121.503 8.3586L122.639 30.644L123.662 52.9293Z" fill="#D0D0D0"/>
<path d="M125.481 52.8409L124.345 30.5682L123.322 8.28285L124.458 30.5556L125.481 52.8409Z" fill="#D0D0D0"/>
<path d="M127.3 52.7525L126.163 30.4798L125.14 8.19442L126.277 30.4672L127.3 52.7525Z" fill="#D0D0D0"/>
<path d="M129.119 52.6641L127.982 30.3914L126.959 8.10605L128.096 30.3788L129.119 52.6641Z" fill="#D0D0D0"/>
<path d="M130.938 52.5758L129.801 30.303L128.778 8.01769L129.915 30.2904L130.938 52.5758Z" fill="#D0D0D0"/>
<path d="M125.006 44.7544L125.17 48.1342L132.803 47.7637L132.638 44.3839L125.006 44.7544Z" fill="#FFD87C"/>
<path d="M120.632 38.685L120.797 42.0649L132.491 41.4972L132.327 38.1173L120.632 38.685Z" fill="#FFD87C"/>
<path d="M115.804 32.6264L115.968 36.0063L132.23 35.2169L132.065 31.837L115.804 32.6264Z" fill="#FFD87C"/>
<path d="M113.551 26.4588L113.715 29.8386L131.932 28.9543L131.768 25.5745L113.551 26.4588Z" fill="#FFD87C"/>
<path d="M109.766 20.3574L109.93 23.7373L131.629 22.6878L131.465 19.3079L109.766 20.3574Z" fill="#FFD87C"/>
<path d="M106.034 14.2597L106.198 17.6397L131.341 16.4236L131.177 13.0436L106.034 14.2597Z" fill="#FFD87C"/>
<path d="M104.148 52.6641L111.36 52.2348L118.572 51.8182C123.372 51.5404 128.184 51.3005 132.984 51.0606L132.795 51.2752L132.251 40.4419L131.759 29.5454L131.304 18.6995L130.862 7.90403L131.506 18.7374L132.125 29.5454L132.681 40.3788L133.199 51.2247V51.4268H132.984C128.172 51.654 123.372 51.8687 118.56 52.0707L111.348 52.3485L104.148 52.6641Z" fill="#D0D0D0"/>
<path d="M134.196 44.3177L134.36 47.6975L134.663 47.6828L134.498 44.303L134.196 44.3177Z" fill="#D0D0D0"/>
<path d="M133.889 38.0434L134.054 41.4233L134.356 41.4086L134.192 38.0287L133.889 38.0434Z" fill="#D0D0D0"/>
<path d="M133.558 31.7691L133.722 35.149L134.025 35.1343L133.861 31.7545L133.558 31.7691Z" fill="#D0D0D0"/>
<path d="M133.252 25.4942L133.416 28.8741L133.719 28.8594L133.554 25.4795L133.252 25.4942Z" fill="#D0D0D0"/>
<path d="M132.945 19.22L133.11 22.5999L133.412 22.5852L133.248 19.2053L132.945 19.22Z" fill="#D0D0D0"/>
<path d="M132.639 12.9577L132.803 16.3375L133.106 16.3228L132.942 12.943L132.639 12.9577Z" fill="#D0D0D0"/>
<path d="M126.138 47.702C126.037 46.0539 125.834 44.4137 125.532 42.7904C125.244 41.1648 124.873 39.5549 124.421 37.9672C123.559 34.7921 122.33 31.7284 120.758 28.8384C119.183 25.9454 117.187 23.3029 114.834 20.9975L114.404 20.5555L113.937 20.1515L113.015 19.3308C112.371 18.8257 111.752 18.2828 111.057 17.8283C109.707 16.8833 108.288 16.0393 106.813 15.303C111.401 17.3366 115.399 20.4989 118.434 24.4949C119.449 25.8161 120.361 27.2133 121.162 28.6742C124.352 34.5412 126.085 41.0887 126.214 47.7651L126.138 47.702Z" fill="#5F5F5F"/>
<path d="M109.062 14.1919L109.201 14.6465L106.927 15.3409L107.773 17.5632L107.319 17.7399L106.283 15.0253L109.062 14.1919Z" fill="#5F5F5F"/>
<path d="M146.348 52.7917L144.091 6.31866L142.211 6.40991L144.468 52.8829L146.348 52.7917Z" fill="#DBDBDB"/>
<path d="M151.097 52.5592L149.826 26.3905L147.946 26.4817L149.217 52.6504L151.097 52.5592Z" fill="#DBDBDB"/>
<path d="M99.3715 44.8992L98.1004 18.7305L96.2206 18.8218L97.4918 44.9904L99.3715 44.8992Z" fill="#DBDBDB"/>
<path d="M164.838 63.0555H85.9856L70.6647 10.6565H149.505L164.838 63.0555Z" fill="#FFD87C"/>
<path d="M96.9361 5.22726H69.073L70.6644 10.6566H100.119L96.9361 5.22726Z" fill="#FFD87C"/>
</svg>
