<svg width="140" height="131" viewBox="0 0 140 131" fill="none" xmlns="http://www.w3.org/2000/svg">
<path d="M53.3435 131H137.281V51.5321L53.3435 51.5321L53.3435 131Z" fill="#5F5F5F"/>
<path d="M45.2941 76.7224L120.056 76.7224V55.7958L45.2941 55.7958V76.7224Z" fill="#5F5F5F"/>
<path d="M139.85 55.7958H120.056V76.7224H139.85V55.7958Z" fill="#8C8C8C"/>
<path d="M80.5292 61.0212L116.246 61.0212V59.2498L80.5292 59.2498V61.0212Z" fill="#8C8C8C"/>
<path d="M80.5292 64.083H116.246V62.3117H80.5292V64.083Z" fill="#8C8C8C"/>
<path d="M80.5292 67.1447H116.246V65.3735L80.5292 65.3735V67.1447Z" fill="#8C8C8C"/>
<path d="M80.5292 70.2066H116.246V68.4353L80.5292 68.4353V70.2066Z" fill="#8C8C8C"/>
<path d="M80.5292 73.2684H116.246V71.4971L80.5292 71.4971V73.2684Z" fill="#8C8C8C"/>
<path d="M71.1128 61.0085C71.1128 61.3563 71.216 61.6964 71.4093 61.9856C71.6026 62.2748 71.8774 62.5002 72.1988 62.6333C72.5203 62.7664 72.874 62.8012 73.2153 62.7334C73.5565 62.6655 73.87 62.498 74.116 62.2521C74.3621 62.0061 74.5296 61.6928 74.5975 61.3516C74.6654 61.0105 74.6305 60.6569 74.4974 60.3355C74.3642 60.0142 74.1388 59.7395 73.8495 59.5463C73.5602 59.353 73.22 59.2499 72.8721 59.2499C72.6406 59.2482 72.411 59.2925 72.1968 59.3803C71.9826 59.4681 71.788 59.5976 71.6243 59.7612C71.4607 59.9249 71.3311 60.1194 71.2433 60.3335C71.1555 60.5477 71.1111 60.7771 71.1128 61.0085Z" fill="#FFD87C"/>
<path d="M65.3166 61.0085C65.3166 61.3569 65.42 61.6974 65.6139 61.9869C65.8078 62.2763 66.0833 62.5018 66.4055 62.6345C66.7277 62.7672 67.0821 62.8013 67.4237 62.7324C67.7653 62.6635 68.0787 62.4947 68.3243 62.2475C68.5698 62.0003 68.7363 61.6858 68.8028 61.3438C68.8692 61.0018 68.8326 60.6478 68.6975 60.3267C68.5624 60.0056 68.3349 59.7318 68.0439 59.5401C67.753 59.3484 67.4116 59.2474 67.0631 59.2499C66.8327 59.2499 66.6046 59.2955 66.3918 59.384C66.1791 59.4725 65.986 59.6023 65.8236 59.7657C65.6613 59.9292 65.5329 60.1232 65.4459 60.3365C65.3588 60.5498 65.3149 60.7782 65.3166 61.0085Z" fill="#5F5F5F"/>
<path d="M59.5576 61.0085C59.5576 61.3563 59.6608 61.6964 59.8541 61.9856C60.0474 62.2748 60.3221 62.5002 60.6436 62.6333C60.9651 62.7664 61.3188 62.8012 61.66 62.7334C62.0013 62.6655 62.3148 62.498 62.5608 62.2521C62.8068 62.0061 62.9744 61.6928 63.0423 61.3516C63.1101 61.0105 63.0753 60.6569 62.9422 60.3355C62.809 60.0142 62.5835 59.7395 62.2942 59.5463C62.0049 59.353 61.6648 59.2499 61.3168 59.2499C61.0853 59.2482 60.8558 59.2925 60.6416 59.3803C60.4274 59.4681 60.2328 59.5976 60.0691 59.7612C59.9054 59.9249 59.7759 60.1194 59.6881 60.3335C59.6003 60.5477 59.5559 60.7771 59.5576 61.0085Z" fill="#FFD87C"/>
<path d="M53.7864 61.0085C53.7864 61.3563 53.8896 61.6964 54.0829 61.9856C54.2762 62.2748 54.5509 62.5002 54.8724 62.6333C55.1938 62.7664 55.5476 62.8012 55.8888 62.7334C56.2301 62.6655 56.5436 62.498 56.7896 62.2521C57.0356 62.0061 57.2032 61.6928 57.271 61.3516C57.3389 61.0105 57.3041 60.6569 57.1709 60.3355C57.0378 60.0142 56.8123 59.7395 56.523 59.5463C56.2337 59.353 55.8936 59.2499 55.5456 59.2499C55.3141 59.2482 55.0846 59.2925 54.8704 59.3803C54.6562 59.4681 54.4616 59.5976 54.2979 59.7612C54.1342 59.9249 54.0047 60.1194 53.9169 60.3335C53.829 60.5477 53.7847 60.7771 53.7864 61.0085Z" fill="#FFD87C"/>
<path d="M48.0152 61.0085C48.0152 61.3569 48.1187 61.6974 48.3126 61.9869C48.5064 62.2763 48.7819 62.5018 49.1041 62.6345C49.4263 62.7672 49.7807 62.8013 50.1223 62.7324C50.4639 62.6635 50.7774 62.4947 51.0229 62.2475C51.2684 62.0003 51.435 61.6858 51.5014 61.3438C51.5678 61.0018 51.5312 60.6478 51.3961 60.3267C51.261 60.0056 51.0336 59.7318 50.7426 59.5401C50.4516 59.3484 50.1102 59.2474 49.7618 59.2499C49.5313 59.2499 49.3032 59.2955 49.0904 59.384C48.8777 59.4725 48.6846 59.6023 48.5223 59.7657C48.3599 59.9292 48.2315 60.1232 48.1445 60.3365C48.0575 60.5498 48.0135 60.7782 48.0152 61.0085Z" fill="#FFD87C"/>
<path d="M71.1128 66.2591C71.1103 66.6075 71.2114 66.9487 71.4031 67.2396C71.5949 67.5305 71.8688 67.7578 72.19 67.8929C72.5112 68.0279 72.8654 68.0646 73.2074 67.9982C73.5495 67.9317 73.8642 67.7653 74.1115 67.5198C74.3588 67.2744 74.5276 66.961 74.5965 66.6196C74.6654 66.2781 74.6314 65.9238 74.4986 65.6017C74.3658 65.2796 74.1404 65.0042 73.8508 64.8104C73.5612 64.6166 73.2206 64.5131 72.8721 64.5131C72.4077 64.5131 71.9621 64.6967 71.6325 65.0238C71.303 65.3508 71.1161 65.7949 71.1128 66.2591Z" fill="#FFD87C"/>
<path d="M65.3165 66.2591C65.314 66.608 65.4154 66.9498 65.6077 67.2409C65.8001 67.532 66.0747 67.7594 66.3967 67.8941C66.7187 68.0288 67.0734 68.0647 67.4159 67.9972C67.7583 67.9298 68.0729 67.762 68.3197 67.5153C68.5665 67.2686 68.7343 66.954 68.8018 66.6117C68.8693 66.2694 68.8334 65.9148 68.6987 65.5929C68.5639 65.2711 68.3365 64.9965 68.0452 64.8043C67.754 64.612 67.4122 64.5106 67.0631 64.5131C66.5999 64.5131 66.1557 64.6971 65.8281 65.0245C65.5006 65.352 65.3165 65.7961 65.3165 66.2591Z" fill="white"/>
<path d="M59.5576 66.2591C59.5551 66.6075 59.6561 66.9487 59.8479 67.2396C60.0397 67.5305 60.3136 67.7578 60.6348 67.8929C60.956 68.0279 61.3101 68.0646 61.6522 67.9982C61.9943 67.9317 62.3089 67.7653 62.5562 67.5198C62.8036 67.2744 62.9724 66.961 63.0413 66.6196C63.1102 66.2781 63.0761 65.9238 62.9433 65.6017C62.8106 65.2796 62.5851 65.0042 62.2955 64.8104C62.006 64.6166 61.6653 64.5131 61.3168 64.5131C60.8524 64.5131 60.4069 64.6967 60.0773 65.0238C59.7477 65.3508 59.5609 65.7949 59.5576 66.2591Z" fill="#FFD87C"/>
<path d="M53.7864 66.2591C53.7839 66.6075 53.8849 66.9487 54.0767 67.2396C54.2685 67.5305 54.5423 67.7578 54.8636 67.8929C55.1848 68.0279 55.5389 68.0646 55.881 67.9982C56.2231 67.9317 56.5377 67.7653 56.785 67.5198C57.0323 67.2744 57.2012 66.961 57.2701 66.6196C57.339 66.2781 57.3049 65.9238 57.1721 65.6017C57.0393 65.2796 56.8139 65.0042 56.5243 64.8104C56.2347 64.6166 55.8941 64.5131 55.5456 64.5131C55.0812 64.5131 54.6356 64.6967 54.3061 65.0238C53.9765 65.3508 53.7897 65.7949 53.7864 66.2591Z" fill="white"/>
<path d="M48.0152 66.2591C48.0127 66.608 48.114 66.9498 48.3064 67.2409C48.4987 67.532 48.7734 67.7594 49.0953 67.8941C49.4173 68.0288 49.7721 68.0647 50.1145 67.9972C50.457 67.9298 50.7716 67.762 51.0184 67.5153C51.2652 67.2686 51.433 66.954 51.5004 66.6117C51.5679 66.2694 51.532 65.9148 51.3973 65.5929C51.2626 65.2711 51.0351 64.9965 50.7439 64.8043C50.4527 64.612 50.1108 64.5106 49.7618 64.5131C49.2985 64.5131 48.8543 64.6971 48.5267 65.0245C48.1992 65.352 48.0152 65.7961 48.0152 66.2591Z" fill="#FFD87C"/>
<path d="M71.1128 71.5098C71.1103 71.8581 71.2114 72.1994 71.4031 72.4902C71.5949 72.7811 71.8688 73.0085 72.19 73.1435C72.5112 73.2786 72.8654 73.3152 73.2074 73.2488C73.5495 73.1824 73.8642 73.0159 74.1115 72.7704C74.3588 72.525 74.5276 72.2117 74.5965 71.8702C74.6654 71.5287 74.6314 71.1744 74.4986 70.8524C74.3658 70.5303 74.1404 70.2549 73.8508 70.0611C73.5612 69.8673 73.2206 69.7638 72.8721 69.7638C72.4077 69.7637 71.9621 69.9473 71.6325 70.2744C71.303 70.6015 71.1161 71.0455 71.1128 71.5098Z" fill="white"/>
<path d="M65.3165 71.5097C65.314 71.8586 65.4154 72.2004 65.6077 72.4915C65.8001 72.7827 66.0747 73.0101 66.3967 73.1447C66.7187 73.2794 67.0734 73.3153 67.4159 73.2478C67.7583 73.1804 68.0729 73.0126 68.3197 72.7659C68.5665 72.5192 68.7343 72.2047 68.8018 71.8624C68.8693 71.5201 68.8334 71.1654 68.6987 70.8435C68.5639 70.5217 68.3365 70.2471 68.0452 70.0549C67.754 69.8626 67.4122 69.7612 67.0631 69.7637C66.5999 69.7637 66.1557 69.9477 65.8281 70.2751C65.5006 70.6026 65.3165 71.0467 65.3165 71.5097Z" fill="#FFD87C"/>
<path d="M59.5576 71.5098C59.5551 71.8581 59.6561 72.1994 59.8479 72.4902C60.0397 72.7811 60.3136 73.0085 60.6348 73.1435C60.956 73.2786 61.3101 73.3152 61.6522 73.2488C61.9943 73.1824 62.3089 73.0159 62.5562 72.7704C62.8036 72.525 62.9724 72.2117 63.0413 71.8702C63.1102 71.5287 63.0761 71.1744 62.9433 70.8524C62.8106 70.5303 62.5851 70.2549 62.2955 70.0611C62.006 69.8673 61.6653 69.7638 61.3168 69.7638C60.8524 69.7637 60.4069 69.9473 60.0773 70.2744C59.7477 70.6015 59.5609 71.0455 59.5576 71.5098Z" fill="#FFD87C"/>
<path d="M53.7864 71.5098C53.7839 71.8581 53.8849 72.1994 54.0767 72.4902C54.2685 72.7811 54.5423 73.0085 54.8636 73.1435C55.1848 73.2786 55.5389 73.3152 55.881 73.2488C56.2231 73.1824 56.5377 73.0159 56.785 72.7704C57.0323 72.525 57.2012 72.2117 57.2701 71.8702C57.339 71.5287 57.3049 71.1744 57.1721 70.8524C57.0393 70.5303 56.8139 70.2549 56.5243 70.0611C56.2347 69.8673 55.8941 69.7638 55.5456 69.7638C55.0812 69.7637 54.6356 69.9473 54.3061 70.2744C53.9765 70.6015 53.7897 71.0455 53.7864 71.5098Z" fill="#FFD87C"/>
<path d="M48.0152 71.5097C48.0127 71.8586 48.114 72.2004 48.3064 72.4915C48.4987 72.7827 48.7734 73.0101 49.0953 73.1447C49.4173 73.2794 49.7721 73.3153 50.1145 73.2478C50.457 73.1804 50.7716 73.0126 51.0184 72.7659C51.2652 72.5192 51.433 72.2047 51.5004 71.8624C51.5679 71.5201 51.532 71.1654 51.3973 70.8435C51.2626 70.5217 51.0351 70.2471 50.7439 70.0549C50.4527 69.8626 50.1108 69.7612 49.7618 69.7637C49.2985 69.7637 48.8543 69.9477 48.5267 70.2751C48.1992 70.6026 48.0152 71.0467 48.0152 71.5097Z" fill="#5F5F5F"/>
<path d="M76.9348 73.2684H77.9473V59.2498H76.9348V73.2684Z" fill="#5F5F5F"/>
<path d="M45.2941 100.293L120.056 100.293V79.3667L45.2941 79.3667V100.293Z" fill="#5F5F5F"/>
<path d="M139.85 79.3794H120.056V100.306H139.85V79.3794Z" fill="#8C8C8C"/>
<path d="M80.5292 84.592H116.246V82.8207L80.5292 82.8207V84.592Z" fill="#8C8C8C"/>
<path d="M80.5292 87.6539H116.246V85.8825H80.5292V87.6539Z" fill="#8C8C8C"/>
<path d="M80.5292 90.7157H116.246V88.9444L80.5292 88.9444V90.7157Z" fill="#8C8C8C"/>
<path d="M80.5292 93.7775H116.246V92.0062L80.5292 92.0062V93.7775Z" fill="#8C8C8C"/>
<path d="M80.5292 96.8393H116.246V95.068L80.5292 95.068V96.8393Z" fill="#8C8C8C"/>
<path d="M71.1128 84.5794C71.1103 84.9278 71.2114 85.269 71.4031 85.5599C71.5949 85.8507 71.8688 86.0781 72.19 86.2132C72.5112 86.3482 72.8654 86.3848 73.2074 86.3184C73.5495 86.252 73.8642 86.0855 74.1115 85.8401C74.3588 85.5946 74.5276 85.2813 74.5965 84.9398C74.6654 84.5984 74.6314 84.2441 74.4986 83.922C74.3658 83.5999 74.1404 83.3245 73.8508 83.1307C73.5612 82.9369 73.2206 82.8334 72.8721 82.8334C72.4077 82.8334 71.9621 83.0169 71.6325 83.344C71.303 83.6711 71.1161 84.1152 71.1128 84.5794Z" fill="#FFD87C"/>
<path d="M65.3165 84.5794C65.314 84.9283 65.4154 85.27 65.6077 85.5612C65.8001 85.8523 66.0747 86.0797 66.3967 86.2144C66.7187 86.349 67.0734 86.3849 67.4159 86.3175C67.7583 86.25 68.0729 86.0823 68.3197 85.8356C68.5665 85.5888 68.7343 85.2743 68.8018 84.932C68.8693 84.5897 68.8334 84.235 68.6987 83.9132C68.5639 83.5913 68.3365 83.3168 68.0452 83.1245C67.754 82.9322 67.4122 82.8309 67.0631 82.8334C66.5999 82.8334 66.1557 83.0174 65.8281 83.3448C65.5006 83.6723 65.3165 84.1164 65.3165 84.5794Z" fill="white"/>
<path d="M59.5576 84.5794C59.5551 84.9278 59.6561 85.269 59.8479 85.5599C60.0397 85.8507 60.3136 86.0781 60.6348 86.2132C60.956 86.3482 61.3101 86.3848 61.6522 86.3184C61.9943 86.252 62.3089 86.0855 62.5562 85.8401C62.8036 85.5946 62.9724 85.2813 63.0413 84.9398C63.1102 84.5984 63.0761 84.2441 62.9433 83.922C62.8106 83.5999 62.5851 83.3245 62.2955 83.1307C62.006 82.9369 61.6653 82.8334 61.3168 82.8334C60.8524 82.8334 60.4069 83.0169 60.0773 83.344C59.7477 83.6711 59.5609 84.1152 59.5576 84.5794Z" fill="#FFD87C"/>
<path d="M53.7864 84.5794C53.7839 84.9278 53.8849 85.269 54.0767 85.5599C54.2685 85.8507 54.5423 86.0781 54.8636 86.2132C55.1848 86.3482 55.5389 86.3848 55.881 86.3184C56.2231 86.252 56.5377 86.0855 56.785 85.8401C57.0323 85.5946 57.2012 85.2813 57.2701 84.9398C57.339 84.5984 57.3049 84.2441 57.1721 83.922C57.0393 83.5999 56.8139 83.3245 56.5243 83.1307C56.2347 82.9369 55.8941 82.8334 55.5456 82.8334C55.0812 82.8334 54.6356 83.0169 54.3061 83.344C53.9765 83.6711 53.7897 84.1152 53.7864 84.5794Z" fill="#FFD87C"/>
<path d="M48.0152 84.5794C48.0127 84.9283 48.114 85.27 48.3064 85.5612C48.4987 85.8523 48.7734 86.0797 49.0953 86.2144C49.4173 86.349 49.7721 86.3849 50.1145 86.3175C50.457 86.25 50.7716 86.0823 51.0184 85.8356C51.2652 85.5888 51.433 85.2743 51.5004 84.932C51.5679 84.5897 51.532 84.235 51.3973 83.9132C51.2626 83.5913 51.0351 83.3168 50.7439 83.1245C50.4527 82.9322 50.1108 82.8309 49.7618 82.8334C49.2985 82.8334 48.8543 83.0174 48.5267 83.3448C48.1992 83.6723 48.0152 84.1164 48.0152 84.5794Z" fill="#FFD87C"/>
<path d="M71.1128 89.8427C71.1128 90.1905 71.216 90.5305 71.4093 90.8197C71.6026 91.1089 71.8774 91.3343 72.1988 91.4674C72.5203 91.6006 72.874 91.6354 73.2153 91.5675C73.5565 91.4997 73.87 91.3322 74.116 91.0862C74.3621 90.8403 74.5296 90.5269 74.5975 90.1858C74.6654 89.8446 74.6305 89.491 74.4974 89.1697C74.3642 88.8483 74.1388 88.5736 73.8495 88.3804C73.5602 88.1872 73.22 88.084 72.8721 88.084C72.6406 88.0823 72.411 88.1267 72.1968 88.2145C71.9826 88.3022 71.788 88.4317 71.6243 88.5954C71.4607 88.759 71.3311 88.9536 71.2433 89.1677C71.1555 89.3818 71.1111 89.6113 71.1128 89.8427Z" fill="white"/>
<path d="M65.3166 89.8427C65.3166 90.191 65.42 90.5315 65.6139 90.821C65.8078 91.1105 66.0833 91.3359 66.4055 91.4686C66.7277 91.6014 67.0821 91.6354 67.4237 91.5666C67.7653 91.4977 68.0787 91.3289 68.3243 91.0817C68.5698 90.8345 68.7363 90.5199 68.8028 90.1779C68.8692 89.836 68.8326 89.482 68.6975 89.1608C68.5624 88.8397 68.3349 88.5659 68.0439 88.3742C67.753 88.1825 67.4116 88.0815 67.0631 88.084C66.8327 88.084 66.6046 88.1296 66.3918 88.2181C66.1791 88.3067 65.986 88.4364 65.8236 88.5999C65.6613 88.7633 65.5329 88.9573 65.4459 89.1706C65.3588 89.3839 65.3149 89.6123 65.3166 89.8427Z" fill="#5F5F5F"/>
<path d="M59.5576 89.8427C59.5576 90.1905 59.6608 90.5305 59.8541 90.8197C60.0474 91.1089 60.3221 91.3343 60.6436 91.4674C60.9651 91.6006 61.3188 91.6354 61.66 91.5675C62.0013 91.4997 62.3148 91.3322 62.5608 91.0862C62.8068 90.8403 62.9744 90.5269 63.0423 90.1858C63.1101 89.8446 63.0753 89.491 62.9422 89.1697C62.809 88.8483 62.5835 88.5736 62.2942 88.3804C62.0049 88.1872 61.6648 88.084 61.3168 88.084C61.0853 88.0823 60.8558 88.1267 60.6416 88.2145C60.4274 88.3022 60.2328 88.4317 60.0691 88.5954C59.9054 88.759 59.7759 88.9536 59.6881 89.1677C59.6003 89.3818 59.5559 89.6113 59.5576 89.8427Z" fill="#FFD87C"/>
<path d="M53.7864 89.8427C53.7864 90.1905 53.8896 90.5305 54.0829 90.8197C54.2762 91.1089 54.5509 91.3343 54.8724 91.4674C55.1938 91.6006 55.5476 91.6354 55.8888 91.5675C56.2301 91.4997 56.5436 91.3322 56.7896 91.0862C57.0356 90.8403 57.2032 90.5269 57.271 90.1858C57.3389 89.8446 57.3041 89.491 57.1709 89.1697C57.0378 88.8483 56.8123 88.5736 56.523 88.3804C56.2337 88.1872 55.8936 88.084 55.5456 88.084C55.3141 88.0823 55.0846 88.1267 54.8704 88.2145C54.6562 88.3022 54.4616 88.4317 54.2979 88.5954C54.1342 88.759 54.0047 88.9536 53.9169 89.1677C53.829 89.3818 53.7847 89.6113 53.7864 89.8427Z" fill="#5F5F5F"/>
<path d="M48.0152 89.8427C48.0152 90.191 48.1187 90.5315 48.3126 90.821C48.5064 91.1105 48.7819 91.3359 49.1041 91.4686C49.4263 91.6014 49.7807 91.6354 50.1223 91.5666C50.4639 91.4977 50.7774 91.3289 51.0229 91.0817C51.2684 90.8345 51.435 90.5199 51.5014 90.1779C51.5678 89.836 51.5312 89.482 51.3961 89.1608C51.261 88.8397 51.0336 88.5659 50.7426 88.3742C50.4516 88.1825 50.1102 88.0815 49.7618 88.084C49.5313 88.084 49.3032 88.1296 49.0904 88.2181C48.8777 88.3067 48.6846 88.4364 48.5223 88.5999C48.3599 88.7633 48.2315 88.9573 48.1445 89.1706C48.0575 89.3839 48.0135 89.6123 48.0152 89.8427Z" fill="white"/>
<path d="M71.1128 95.0933C71.1104 95.44 71.2106 95.7797 71.4007 96.0697C71.5909 96.3597 71.8626 96.587 72.1816 96.7231C72.5006 96.8592 72.8527 96.8979 73.1937 96.8345C73.5347 96.7711 73.8493 96.6084 74.0981 96.3667C74.3468 96.1251 74.5186 95.8153 74.5917 95.4764C74.6648 95.1375 74.6361 94.7845 74.5092 94.4618C74.3822 94.1392 74.1627 93.8612 73.8782 93.6629C73.5936 93.4646 73.2568 93.3548 72.91 93.3473C72.6764 93.3405 72.4439 93.3807 72.2261 93.4654C72.0083 93.5501 71.8097 93.6776 71.6422 93.8405C71.4746 94.0033 71.3414 94.198 71.2505 94.4132C71.1595 94.6284 71.1127 94.8597 71.1128 95.0933Z" fill="#FFD87C"/>
<path d="M65.3165 95.0933C65.314 95.4422 65.4154 95.784 65.6077 96.0751C65.8001 96.3662 66.0747 96.5936 66.3967 96.7283C66.7187 96.863 67.0734 96.8989 67.4159 96.8314C67.7583 96.764 68.0729 96.5962 68.3197 96.3495C68.5665 96.1028 68.7343 95.7882 68.8018 95.4459C68.8693 95.1036 68.8334 94.749 68.6987 94.4271C68.5639 94.1052 68.3365 93.8307 68.0452 93.6384C67.754 93.4461 67.4122 93.3448 67.0631 93.3473C66.5999 93.3473 66.1557 93.5313 65.8281 93.8587C65.5006 94.1862 65.3165 94.6303 65.3165 95.0933Z" fill="#FFD87C"/>
<path d="M59.5576 95.0933C59.5551 95.4417 59.6561 95.7829 59.8479 96.0738C60.0397 96.3646 60.3136 96.592 60.6348 96.7271C60.956 96.8621 61.3101 96.8988 61.6522 96.8323C61.9943 96.7659 62.3089 96.5995 62.5562 96.354C62.8036 96.1086 62.9724 95.7952 63.0413 95.4538C63.1102 95.1123 63.0761 94.758 62.9433 94.4359C62.8106 94.1138 62.5851 93.8384 62.2955 93.6446C62.006 93.4508 61.6653 93.3473 61.3168 93.3473C61.0864 93.3457 60.8579 93.3896 60.6446 93.4766C60.4312 93.5636 60.2372 93.6919 60.0736 93.8542C59.9101 94.0165 59.7803 94.2096 59.6917 94.4222C59.6032 94.6349 59.5576 94.863 59.5576 95.0933Z" fill="#FFD87C"/>
<path d="M53.7864 95.0933C53.7839 95.4417 53.8849 95.7829 54.0767 96.0738C54.2685 96.3646 54.5423 96.592 54.8636 96.7271C55.1848 96.8621 55.5389 96.8988 55.881 96.8323C56.2231 96.7659 56.5377 96.5995 56.785 96.354C57.0323 96.1086 57.2012 95.7952 57.2701 95.4538C57.339 95.1123 57.3049 94.758 57.1721 94.4359C57.0393 94.1138 56.8139 93.8384 56.5243 93.6446C56.2347 93.4508 55.8941 93.3473 55.5456 93.3473C55.3152 93.3457 55.0867 93.3896 54.8734 93.4766C54.66 93.5636 54.4659 93.6919 54.3024 93.8542C54.1389 94.0165 54.0091 94.2096 53.9205 94.4222C53.832 94.6349 53.7864 94.863 53.7864 95.0933Z" fill="#FFD87C"/>
<path d="M48.0152 95.0933C48.0127 95.4422 48.114 95.784 48.3064 96.0751C48.4987 96.3662 48.7734 96.5936 49.0953 96.7283C49.4173 96.863 49.7721 96.8989 50.1145 96.8314C50.457 96.764 50.7716 96.5962 51.0184 96.3495C51.2652 96.1028 51.433 95.7882 51.5004 95.4459C51.5679 95.1036 51.532 94.749 51.3973 94.4271C51.2626 94.1052 51.0351 93.8307 50.7439 93.6384C50.4527 93.4461 50.1108 93.3448 49.7618 93.3473C49.2985 93.3473 48.8543 93.5313 48.5267 93.8587C48.1992 94.1862 48.0152 94.6303 48.0152 95.0933Z" fill="#FFD87C"/>
<path d="M76.9348 96.8393H77.9473V82.8208H76.9348V96.8393Z" fill="#5F5F5F"/>
<path d="M45.2941 123.89L120.056 123.89V102.963L45.2941 102.963V123.89Z" fill="#5F5F5F"/>
<path d="M139.85 102.95H120.056V123.877H139.85V102.95Z" fill="#8C8C8C"/>
<path d="M80.5292 108.176H116.246V106.404H80.5292V108.176Z" fill="#8C8C8C"/>
<path d="M80.5292 111.237H116.246V109.466L80.5292 109.466V111.237Z" fill="#8C8C8C"/>
<path d="M80.5292 114.299H116.246V112.528L80.5292 112.528V114.299Z" fill="#8C8C8C"/>
<path d="M80.5292 117.361H116.246V115.59L80.5292 115.59V117.361Z" fill="#8C8C8C"/>
<path d="M80.5292 120.423H116.246V118.652L80.5292 118.652V120.423Z" fill="#8C8C8C"/>
<path d="M71.1128 108.163C71.1103 108.511 71.2114 108.853 71.4031 109.143C71.5949 109.434 71.8688 109.662 72.19 109.797C72.5112 109.932 72.8654 109.968 73.2074 109.902C73.5495 109.836 73.8642 109.669 74.1115 109.424C74.3588 109.178 74.5276 108.865 74.5965 108.523C74.6654 108.182 74.6314 107.828 74.4986 107.506C74.3658 107.183 74.1404 106.908 73.8508 106.714C73.5612 106.52 73.2206 106.417 72.8721 106.417C72.6416 106.415 72.4131 106.459 72.1998 106.546C71.9864 106.633 71.7924 106.762 71.6289 106.924C71.4653 107.086 71.3356 107.279 71.247 107.492C71.1584 107.705 71.1128 107.933 71.1128 108.163Z" fill="white"/>
<path d="M65.3165 108.163C65.314 108.512 65.4154 108.854 65.6077 109.145C65.8001 109.436 66.0747 109.663 66.3967 109.798C66.7187 109.933 67.0734 109.968 67.4159 109.901C67.7583 109.834 68.0729 109.666 68.3197 109.419C68.5665 109.172 68.7343 108.858 68.8018 108.516C68.8693 108.173 68.8334 107.819 68.6987 107.497C68.5639 107.175 68.3365 106.9 68.0452 106.708C67.754 106.516 67.4122 106.414 67.0631 106.417C66.5999 106.417 66.1557 106.601 65.8281 106.928C65.5006 107.256 65.3165 107.7 65.3165 108.163Z" fill="#FFD87C"/>
<path d="M59.5576 108.163C59.5551 108.511 59.6561 108.853 59.8479 109.143C60.0397 109.434 60.3136 109.662 60.6348 109.797C60.956 109.932 61.3101 109.968 61.6522 109.902C61.9943 109.836 62.3089 109.669 62.5562 109.424C62.8036 109.178 62.9724 108.865 63.0413 108.523C63.1102 108.182 63.0761 107.828 62.9433 107.506C62.8106 107.183 62.5851 106.908 62.2955 106.714C62.006 106.52 61.6653 106.417 61.3168 106.417C61.0864 106.415 60.8579 106.459 60.6446 106.546C60.4312 106.633 60.2372 106.762 60.0736 106.924C59.9101 107.086 59.7803 107.279 59.6917 107.492C59.6032 107.705 59.5576 107.933 59.5576 108.163Z" fill="#FFD87C"/>
<path d="M53.7864 108.163C53.7839 108.511 53.8849 108.853 54.0767 109.143C54.2685 109.434 54.5423 109.662 54.8636 109.797C55.1848 109.932 55.5389 109.968 55.881 109.902C56.2231 109.836 56.5377 109.669 56.785 109.424C57.0323 109.178 57.2012 108.865 57.2701 108.523C57.339 108.182 57.3049 107.828 57.1721 107.506C57.0393 107.183 56.8139 106.908 56.5243 106.714C56.2347 106.52 55.8941 106.417 55.5456 106.417C55.3152 106.415 55.0867 106.459 54.8734 106.546C54.66 106.633 54.4659 106.762 54.3024 106.924C54.1389 107.086 54.0091 107.279 53.9205 107.492C53.832 107.705 53.7864 107.933 53.7864 108.163Z" fill="#FFD87C"/>
<path d="M48.0152 108.163C48.0127 108.512 48.114 108.854 48.3064 109.145C48.4987 109.436 48.7734 109.663 49.0953 109.798C49.4173 109.933 49.7721 109.968 50.1145 109.901C50.457 109.834 50.7716 109.666 51.0184 109.419C51.2652 109.172 51.433 108.858 51.5004 108.516C51.5679 108.173 51.532 107.819 51.3973 107.497C51.2626 107.175 51.0351 106.9 50.7439 106.708C50.4527 106.516 50.1108 106.414 49.7618 106.417C49.2985 106.417 48.8543 106.601 48.5267 106.928C48.1992 107.256 48.0152 107.7 48.0152 108.163Z" fill="#FFD87C"/>
<path d="M71.1132 113.414C71.1057 113.761 71.2016 114.103 71.3887 114.397C71.5757 114.69 71.8456 114.921 72.1641 115.061C72.4826 115.201 72.8354 115.243 73.178 115.183C73.5206 115.122 73.8376 114.962 74.0889 114.721C74.3401 114.481 74.5144 114.171 74.5896 113.831C74.6649 113.492 74.6377 113.138 74.5116 112.813C74.3854 112.489 74.166 112.21 73.881 112.01C73.596 111.811 73.2582 111.7 72.9104 111.693C72.6794 111.688 72.4496 111.728 72.2342 111.812C72.0188 111.896 71.8221 112.021 71.6552 112.181C71.4883 112.341 71.3545 112.532 71.2615 112.743C71.1685 112.955 71.1181 113.183 71.1132 113.414Z" fill="#5F5F5F"/>
<path d="M65.3164 113.414C65.3089 113.762 65.4053 114.106 65.5934 114.399C65.7816 114.693 66.0529 114.925 66.3728 115.064C66.6928 115.203 67.047 115.244 67.3904 115.182C67.7337 115.119 68.0508 114.956 68.3011 114.713C68.5514 114.47 68.7238 114.158 68.7962 113.816C68.8686 113.475 68.8379 113.12 68.7079 112.796C68.5779 112.473 68.3544 112.195 68.0661 111.998C67.7777 111.802 67.4373 111.695 67.0883 111.693C66.8589 111.69 66.6312 111.731 66.418 111.816C66.2048 111.901 66.0104 112.027 65.8458 112.186C65.6813 112.346 65.5499 112.537 65.459 112.747C65.3682 112.958 65.3197 113.184 65.3164 113.414Z" fill="#FFD87C"/>
<path d="M59.5576 113.414C59.5551 113.762 59.6561 114.103 59.8479 114.394C60.0397 114.685 60.3136 114.912 60.6348 115.047C60.956 115.182 61.3101 115.219 61.6522 115.153C61.9943 115.086 62.3089 114.92 62.5562 114.674C62.8036 114.429 62.9724 114.115 63.0413 113.774C63.1102 113.433 63.0761 113.078 62.9433 112.756C62.8106 112.434 62.5851 112.159 62.2955 111.965C62.006 111.771 61.6653 111.668 61.3168 111.668C60.8524 111.668 60.4069 111.851 60.0773 112.178C59.7477 112.505 59.5609 112.949 59.5576 113.414Z" fill="white"/>
<path d="M53.7864 113.414C53.7839 113.762 53.8849 114.103 54.0767 114.394C54.2685 114.685 54.5423 114.912 54.8636 115.047C55.1848 115.182 55.5389 115.219 55.881 115.153C56.2231 115.086 56.5377 114.92 56.785 114.674C57.0323 114.429 57.2012 114.115 57.2701 113.774C57.339 113.433 57.3049 113.078 57.1721 112.756C57.0393 112.434 56.8139 112.159 56.5243 111.965C56.2347 111.771 55.8941 111.668 55.5456 111.668C55.0812 111.668 54.6356 111.851 54.3061 112.178C53.9765 112.505 53.7897 112.949 53.7864 113.414Z" fill="#5F5F5F"/>
<path d="M48.0152 113.414C48.0127 113.762 48.114 114.104 48.3064 114.395C48.4987 114.687 48.7734 114.914 49.0953 115.049C49.4173 115.183 49.7721 115.219 50.1145 115.152C50.457 115.084 50.7716 114.916 51.0184 114.67C51.2652 114.423 51.433 114.109 51.5004 113.766C51.5679 113.424 51.532 113.069 51.3973 112.747C51.2626 112.426 51.0351 112.151 50.7439 111.959C50.4527 111.766 50.1108 111.665 49.7618 111.668C49.2985 111.668 48.8543 111.852 48.5267 112.179C48.1992 112.506 48.0152 112.951 48.0152 113.414Z" fill="#FFD87C"/>
<path d="M71.1128 118.677C71.1128 119.025 71.216 119.365 71.4093 119.654C71.6026 119.943 71.8774 120.169 72.1988 120.302C72.5203 120.435 72.874 120.47 73.2153 120.402C73.5565 120.334 73.87 120.166 74.116 119.92C74.3621 119.674 74.5296 119.361 74.5975 119.02C74.6654 118.679 74.6305 118.325 74.4974 118.004C74.3642 117.682 74.1388 117.408 73.8495 117.215C73.5602 117.021 73.22 116.918 72.8721 116.918C72.6406 116.917 72.411 116.961 72.1968 117.049C71.9826 117.136 71.788 117.266 71.6243 117.43C71.4607 117.593 71.3311 117.788 71.2433 118.002C71.1555 118.216 71.1111 118.445 71.1128 118.677Z" fill="#FFD87C"/>
<path d="M65.3166 118.677C65.3166 119.025 65.42 119.366 65.6139 119.655C65.8078 119.945 66.0833 120.17 66.4055 120.303C66.7277 120.436 67.0821 120.47 67.4237 120.401C67.7653 120.332 68.0787 120.163 68.3243 119.916C68.5698 119.669 68.7363 119.354 68.8028 119.012C68.8692 118.67 68.8326 118.316 68.6975 117.995C68.5624 117.674 68.3349 117.4 68.0439 117.208C67.753 117.017 67.4116 116.916 67.0631 116.918C66.8327 116.918 66.6046 116.964 66.3918 117.052C66.1791 117.141 65.986 117.271 65.8236 117.434C65.6613 117.598 65.5329 117.792 65.4459 118.005C65.3588 118.218 65.3149 118.446 65.3166 118.677Z" fill="#5F5F5F"/>
<path d="M59.5576 118.677C59.5576 119.025 59.6608 119.365 59.8541 119.654C60.0474 119.943 60.3221 120.169 60.6436 120.302C60.9651 120.435 61.3188 120.47 61.66 120.402C62.0013 120.334 62.3148 120.166 62.5608 119.92C62.8068 119.674 62.9744 119.361 63.0423 119.02C63.1101 118.679 63.0753 118.325 62.9422 118.004C62.809 117.682 62.5835 117.408 62.2942 117.215C62.0049 117.021 61.6648 116.918 61.3168 116.918C61.0853 116.917 60.8558 116.961 60.6416 117.049C60.4274 117.136 60.2328 117.266 60.0691 117.43C59.9054 117.593 59.7759 117.788 59.6881 118.002C59.6003 118.216 59.5559 118.445 59.5576 118.677Z" fill="#FFD87C"/>
<path d="M53.7864 118.677C53.7864 119.025 53.8896 119.365 54.0829 119.654C54.2762 119.943 54.5509 120.169 54.8724 120.302C55.1938 120.435 55.5476 120.47 55.8888 120.402C56.2301 120.334 56.5436 120.166 56.7896 119.92C57.0356 119.674 57.2032 119.361 57.271 119.02C57.3389 118.679 57.3041 118.325 57.1709 118.004C57.0378 117.682 56.8123 117.408 56.523 117.215C56.2337 117.021 55.8936 116.918 55.5456 116.918C55.3141 116.917 55.0846 116.961 54.8704 117.049C54.6562 117.136 54.4616 117.266 54.2979 117.43C54.1342 117.593 54.0047 117.788 53.9169 118.002C53.829 118.216 53.7847 118.445 53.7864 118.677Z" fill="#FFD87C"/>
<path d="M48.0152 118.677C48.0152 119.025 48.1187 119.366 48.3126 119.655C48.5064 119.945 48.7819 120.17 49.1041 120.303C49.4263 120.436 49.7807 120.47 50.1223 120.401C50.4639 120.332 50.7774 120.163 51.0229 119.916C51.2684 119.669 51.435 119.354 51.5014 119.012C51.5678 118.67 51.5312 118.316 51.3961 117.995C51.261 117.674 51.0336 117.4 50.7426 117.208C50.4516 117.017 50.1102 116.916 49.7618 116.918C49.5313 116.918 49.3032 116.964 49.0904 117.052C48.8777 117.141 48.6846 117.271 48.5223 117.434C48.3599 117.598 48.2315 117.792 48.1445 118.005C48.0575 118.218 48.0135 118.446 48.0152 118.677Z" fill="white"/>
<path d="M76.9348 120.423H77.9473V106.404H76.9348V120.423Z" fill="#5F5F5F"/>
<path d="M0.502699 0V2.53042" stroke="#FFD87C" stroke-miterlimit="10"/>
<path d="M0.502699 7.2876V23.9251" stroke="#FFD87C" stroke-miterlimit="10" stroke-dasharray="3.76 3.76"/>
<path d="M0.502699 26.3038V28.8342H3.03399" stroke="#FFD87C" stroke-miterlimit="10"/>
<path d="M7.70445 28.8342H61.3551" stroke="#FFD87C" stroke-miterlimit="10" stroke-dasharray="3.69 3.69"/>
<path d="M63.6837 28.8342H66.215V31.3646" stroke="#FFD87C" stroke-miterlimit="10"/>
<path d="M66.2149 34.8566V40.1072" stroke="#FFD87C" stroke-miterlimit="10" stroke-dasharray="2.77 2.77"/>
<path d="M66.2149 41.8532V44.3836" stroke="#FFD87C" stroke-miterlimit="10"/>
<path d="M63.8354 44.2697C63.8354 44.7402 63.975 45.2001 64.2364 45.5913C64.4979 45.9824 64.8695 46.2873 65.3043 46.4673C65.7391 46.6473 66.2175 46.6944 66.6791 46.6026C67.1406 46.5109 67.5646 46.2843 67.8973 45.9517C68.2301 45.619 68.4567 45.1952 68.5485 44.7338C68.6403 44.2724 68.5932 43.7942 68.4131 43.3595C68.233 42.9249 67.9281 42.5534 67.5368 42.292C67.1455 42.0307 66.6854 41.8911 66.2148 41.8911C65.5838 41.8911 64.9786 42.1418 64.5323 42.5878C64.0861 43.0339 63.8354 43.6389 63.8354 44.2697Z" fill="#FFD87C"/>
</svg>
