<svg width="130" height="159" viewBox="0 0 130 159" fill="none" xmlns="http://www.w3.org/2000/svg">
<path d="M128.942 159V156.481" stroke="#FFD87C" stroke-miterlimit="10"/>
<path d="M128.942 151.821V126.228" stroke="#FFD87C" stroke-miterlimit="10" stroke-dasharray="3.69 3.69"/>
<path d="M128.942 123.91V121.391H126.422" stroke="#FFD87C" stroke-miterlimit="10"/>
<path d="M121.786 121.391H68.3769" stroke="#FFD87C" stroke-miterlimit="10" stroke-dasharray="3.69 3.69"/>
<path d="M66.0586 121.391H63.5387V118.872" stroke="#FFD87C" stroke-miterlimit="10"/>
<path d="M63.5387 114.577V108.154" stroke="#FFD87C" stroke-miterlimit="10" stroke-dasharray="3.4 3.4"/>
<path d="M63.5387 106V103.481" stroke="#FFD87C" stroke-miterlimit="10"/>
<path d="M63.5387 105.975C64.8468 105.975 65.9073 104.915 65.9073 103.607C65.9073 102.299 64.8468 101.239 63.5387 101.239C62.2305 101.239 61.17 102.299 61.17 103.607C61.17 104.915 62.2305 105.975 63.5387 105.975Z" fill="#FFD87C"/>
<path d="M77.0451 74.0211L19.3652 89.0974L0 15.0763L42.8252 3.87928L57.6799 0L61.3715 14.1065L77.0451 74.0211Z" fill="#EBEBEB"/>
<path d="M9.36967 27.9134L56.3611 15.6335L55.864 13.7325L8.87256 26.0125L9.36967 27.9134Z" fill="#DBDBDB"/>
<path d="M10.6281 32.7207L57.6195 20.4407L57.1224 18.5398L10.131 30.8197L10.6281 32.7207Z" fill="#DBDBDB"/>
<path d="M11.8743 37.5154L58.8657 25.2354L58.3686 23.3344L11.3772 35.6144L11.8743 37.5154Z" fill="#DBDBDB"/>
<path d="M13.1322 42.3068L60.1237 30.0269L59.6266 28.1259L12.6351 40.4059L13.1322 42.3068Z" fill="#DBDBDB"/>
<path d="M14.3911 47.1015L61.3826 34.8216L60.8855 32.9206L13.894 45.2006L14.3911 47.1015Z" fill="#DBDBDB"/>
<path d="M15.649 51.893L62.6405 39.613L62.1434 37.7121L15.1519 49.9921L15.649 51.893Z" fill="#DBDBDB"/>
<path d="M16.8952 56.7002L63.8867 44.4203L63.3896 42.5193L16.3981 54.7993L16.8952 56.7002Z" fill="#DBDBDB"/>
<path d="M17.8288 60.8032L64.9423 48.6647L64.4509 46.7588L17.3375 58.8973L17.8288 60.8032Z" fill="#DBDBDB"/>
<path d="M19.4115 66.2864L66.403 54.0064L65.9059 52.1055L18.9144 64.3855L19.4115 66.2864Z" fill="#DBDBDB"/>
<path d="M20.6577 71.0811L67.6492 58.8011L67.1521 56.9002L20.1606 69.1801L20.6577 71.0811Z" fill="#DBDBDB"/>
<path d="M21.6392 75.1585L68.7527 63.02L68.2613 61.1141L21.1479 73.2526L21.6392 75.1585Z" fill="#DBDBDB"/>
<path d="M23.1775 80.692L70.1689 68.412L69.6718 66.5111L22.6804 78.791L23.1775 80.692Z" fill="#DBDBDB"/>
<path d="M92.3659 95.3824L32.8339 98.7075L28.5627 22.3185L72.7613 19.8498L88.9011 33.5407L92.3659 95.3824Z" fill="#EBEBEB"/>
<path d="M72.7615 19.8498L88.9013 33.5407L73.5679 34.3971L72.7615 19.8498Z" fill="#DBDBDB"/>
<path d="M35.1882 36.7609L68.2855 34.9111L68.1758 32.9493L35.0785 34.7991L35.1882 36.7609Z" fill="#DBDBDB"/>
<path d="M35.4663 41.7214L68.5636 39.8716L68.4538 37.9098L35.3566 39.7596L35.4663 41.7214Z" fill="#DBDBDB"/>
<path d="M35.7449 46.6692L68.8421 44.8194L68.7324 42.8577L35.6352 44.7075L35.7449 46.6692Z" fill="#DBDBDB"/>
<path d="M36.021 51.6198L84.5158 48.9095L84.4061 46.9477L35.9113 49.658L36.021 51.6198Z" fill="#DBDBDB"/>
<path d="M36.299 56.5676L84.7939 53.8573L84.6842 51.8955L36.1893 54.6059L36.299 56.5676Z" fill="#DBDBDB"/>
<path d="M36.5776 61.5281L85.0724 58.8177L84.9627 56.856L36.4679 59.5663L36.5776 61.5281Z" fill="#DBDBDB"/>
<path d="M36.8552 66.4634L85.35 63.753L85.2403 61.7913L36.7455 64.5016L36.8552 66.4634Z" fill="#DBDBDB"/>
<path d="M37.1337 71.4112L85.6286 68.7009L85.5189 66.7391L37.024 69.4495L37.1337 71.4112Z" fill="#DBDBDB"/>
<path d="M37.4123 76.3717L85.9071 73.6613L85.7974 71.6996L37.3026 74.4099L37.4123 76.3717Z" fill="#DBDBDB"/>
<path d="M37.6904 81.3195L86.1852 78.6092L86.0755 76.6474L37.5807 79.3577L37.6904 81.3195Z" fill="#DBDBDB"/>
<path d="M37.969 86.2674L86.4638 83.557L86.3541 81.5953L37.8592 84.3056L37.969 86.2674Z" fill="#DBDBDB"/>
<path d="M38.2475 91.2278L86.7423 88.5174L86.6326 86.5557L38.1378 89.266L38.2475 91.2278Z" fill="#DBDBDB"/>
</svg>
