<svg width="107" height="40" viewBox="0 0 107 40" fill="none" xmlns="http://www.w3.org/2000/svg">
<g opacity="0.8" clip-path="url(#clip0_320_20600)">
<path d="M0.658333 14.7L0 5.30417H9.39583V14.2625L0.658333 14.7Z" fill="#641C36"/>
<path opacity="0.5" d="M11.7999 5.74167L21.429 6.4V14.2667H11.3416L11.7999 5.74167Z" fill="#641C36"/>
<path opacity="0.5" d="M0.658447 17.0042V23.9958L10.0501 25.0875V17.0042H0.658447Z" fill="#641C36"/>
<path d="M12.2041 17.2333L12.2333 24.5958L20.4791 24.3042L20.8374 16.9583L12.2041 17.2333Z" fill="#641C36"/>
<path d="M9.39609 27.2667V34.6917H0.871094L1.52943 26.825L9.39609 27.2667Z" fill="#641C36"/>
<path d="M35.4247 30.7584C35.4747 31.2334 35.2288 31.6875 34.8038 31.9042C34.5788 31.9959 34.3413 32.0459 34.0955 32.0459C33.8705 32.0375 33.6538 31.9875 33.4455 31.9042C33.0247 31.6834 32.7788 31.2334 32.8247 30.7584V19.4334H31.3872C30.8413 19.4834 30.3622 19.0834 30.3122 18.5375C30.3038 18.4709 30.308 18.4 30.3163 18.3334C30.2497 17.7917 30.633 17.3 31.1747 17.2375C31.2455 17.2292 31.3163 17.2292 31.3872 17.2334H32.8413C32.8413 15.0875 32.8413 14.325 33.3205 13.4792C33.9955 12.2084 35.408 11.7292 37.1372 11.7292C37.5872 11.7292 38.6038 11.7292 38.6038 12.8292C38.6038 13.8167 37.7872 13.9042 37.333 13.9292C36.5705 13.9875 36.233 14.0125 35.8955 14.3125C35.4163 14.6959 35.4163 15.075 35.4163 17.25H37.4997C37.883 17.25 38.5747 17.3334 38.5747 18.35C38.6247 18.9 38.2163 19.3875 37.6663 19.4334C37.6038 19.4375 37.5413 19.4375 37.483 19.4334H35.4205L35.4247 30.7584ZM50.4247 30.8875C50.3997 31.1959 50.3413 32.0334 49.2788 32.0334C48.8288 32.0584 48.408 31.8167 48.2038 31.4125C48.1205 31.1875 48.0913 31.0709 48.0913 30.0584C46.9913 31.4334 45.308 32.2084 43.5455 32.1459C40.608 32.1459 38.8038 30.3417 38.8038 27.6584C38.8038 24.3 41.5705 23.7625 43.0955 23.4584L45.4955 22.95C46.4538 22.75 46.9622 22.6417 47.2163 22.5667C47.808 22.4 48.008 22.1834 48.008 21.4667C48.008 19.0667 45.5788 19.0667 45.0705 19.0667C42.6163 19.0667 42.1913 20.2792 41.9372 21.0459C41.8538 21.4292 41.7122 21.95 40.7497 21.95C39.7038 21.95 39.4247 21.3584 39.4247 20.85C39.4872 20.2625 39.6913 19.7042 40.0163 19.2125C41.1622 17.4917 43.1205 16.9834 45.0663 16.9834C46.7038 16.9834 48.3955 17.2917 49.4413 18.5125C50.3997 19.6584 50.3997 21.0834 50.3997 22.4625L50.4247 30.8875ZM44.6372 25.1625C44.1497 25.2542 43.6663 25.3792 43.1997 25.5459C42.1997 25.7709 41.4913 26.6667 41.5038 27.6917C41.5038 29.2459 42.7163 30.0334 44.1288 30.0334C45.3372 30.0375 46.483 29.4834 47.233 28.5375C47.9663 27.5209 47.9955 26.1917 48.0247 24.3042C47.4122 24.5584 46.7705 24.7375 46.1163 24.8417L44.6372 25.1625ZM62.5497 27.3667C62.7497 26.8334 62.9997 26.2667 63.7622 26.2667C64.1038 26.2667 65.1163 26.4667 65.1163 27.4542C65.0663 28.0584 64.8663 28.6417 64.5288 29.1459C64.0788 29.9375 62.7788 32.1375 58.7705 32.1375C53.6288 32.1375 51.9663 28.0459 51.9663 24.5C51.9497 23.3875 52.1205 22.2792 52.4747 21.225C54.0038 16.9334 57.8663 16.9334 58.9122 16.9334C62.1872 16.9334 63.4955 18.3167 64.258 19.5584C64.8497 20.4917 64.8497 20.8292 64.8497 21.0292C64.8247 21.7375 64.233 22.2959 63.5205 22.275C63.5038 22.275 63.483 22.275 63.4663 22.2709C62.6747 22.2709 62.4205 21.7375 62.1122 21.0834C61.5372 19.7917 60.2122 18.9959 58.7997 19.0959C55.808 19.0959 54.6497 21.6667 54.6497 24.4042C54.6497 26.8334 55.383 29.9375 58.7997 29.9375C61.3872 29.9375 62.1247 28.2709 62.5497 27.3667ZM68.283 19.4334H66.7872C66.2372 19.475 65.7538 19.0625 65.7122 18.5125C65.708 18.4542 65.708 18.3917 65.7163 18.3334C65.6497 17.7917 66.033 17.3 66.5747 17.2375C66.6455 17.2292 66.7163 17.2292 66.7872 17.2334H68.3163V13.9292C68.3163 13.5459 68.4288 12.7167 69.5872 12.7167C70.7455 12.7167 70.8872 13.5334 70.8872 13.9292V17.2334H72.6372C73.1747 17.1834 73.6497 17.575 73.7038 18.1125C73.7122 18.1834 73.708 18.2584 73.6997 18.3334C73.7538 18.8834 73.3497 19.375 72.7955 19.4292C72.7413 19.4334 72.6872 19.4334 72.6372 19.4334H70.8872V26.6084C70.8872 28.3042 70.9122 28.5167 70.9997 28.8375C71.1997 29.6542 71.733 29.7959 72.4955 29.8542C73.1747 29.8834 73.8788 29.9375 73.8788 30.9292C73.8788 31.9167 72.9747 32.0375 72.2122 32.0375C68.2872 32.0375 68.2872 29.9167 68.2872 27.7209V19.4334H68.283ZM87.8788 30.7834C87.9122 31.2417 87.6663 31.675 87.258 31.8834C86.8413 32.0542 86.3747 32.0542 85.958 31.8834C85.3663 31.575 85.3663 31.1209 85.3663 29.975C84.1538 31.5834 82.9372 32.1209 80.8747 32.1209C80.1997 32.1209 78.3872 32.0625 77.1205 30.6834C75.908 29.3292 75.908 27.5209 75.908 26.1917V18.3625C75.9372 17.6375 76.5497 17.075 77.2747 17.1084C77.9455 17.1375 78.4872 17.6667 78.5288 18.3375V25.3625C78.5288 27.2709 78.6122 28.0334 78.9788 28.7209C79.6288 29.9084 80.958 29.9084 81.2913 29.9084C83.1247 29.975 84.7371 28.7125 85.108 26.9167C85.2496 26.1334 85.2997 25.3375 85.2497 24.5459V18.3625C85.2872 17.6375 85.908 17.0834 86.633 17.1209C87.3038 17.1584 87.8371 17.6917 87.8746 18.3625L87.8788 30.7834ZM101.237 30.8875C101.212 31.1959 101.154 32.0334 100.091 32.0334C99.6413 32.0584 99.2205 31.8167 99.0163 31.4125C98.933 31.1875 98.9038 31.0709 98.9038 30.0584C97.8038 31.4334 96.1163 32.2084 94.358 32.1459C91.4205 32.1459 89.6163 30.3417 89.6163 27.6584C89.6163 24.3 92.383 23.7625 93.908 23.4584L96.308 22.95C97.2663 22.75 97.7747 22.6417 98.0288 22.5667C98.6205 22.4 98.8205 22.1834 98.8205 21.4667C98.8205 19.0667 96.3913 19.0667 95.883 19.0667C93.4288 19.0667 93.0038 20.2792 92.7497 21.0459C92.6663 21.4292 92.5247 21.95 91.5621 21.95C90.5163 21.95 90.2372 21.3584 90.2372 20.85C90.2997 20.2625 90.5038 19.7042 90.8288 19.2125C91.9747 17.4917 93.933 16.9834 95.8788 16.9834C97.5163 16.9834 99.2122 17.2917 100.254 18.5125C101.212 19.6584 101.212 21.0834 101.212 22.4625L101.237 30.8875ZM95.4622 25.1625C94.9746 25.2542 94.4913 25.3792 94.0247 25.5459C93.0247 25.7709 92.3163 26.6667 92.3288 27.6917C92.3288 29.2459 93.5413 30.0334 94.9538 30.0334C96.1621 30.0375 97.308 29.4834 98.058 28.5375C98.7913 27.5209 98.8205 26.1917 98.8497 24.3042C98.2372 24.5584 97.5955 24.7375 96.9413 24.8417L95.4622 25.1625ZM106.662 30.7584C106.662 31.475 106.079 32.0542 105.362 32.0542C104.645 32.0542 104.066 31.475 104.066 30.7584V13C104.033 12.3459 104.533 11.7917 105.187 11.7542C105.245 11.75 105.308 11.7542 105.366 11.7584C106.008 11.6834 106.587 12.1459 106.658 12.7875C106.666 12.8584 106.666 12.9292 106.662 13V30.7584Z" fill="#641C36"/>
</g>
<defs>
<clipPath id="clip0_320_20600">
<rect width="106.667" height="40" fill="white"/>
</clipPath>
</defs>
</svg>
