<svg width="72" height="12" viewBox="0 0 72 12" fill="none" xmlns="http://www.w3.org/2000/svg">
<g clip-path="url(#clip0_0_395)">
<path d="M11.4485 4.58597C11.3733 4.35354 11.1672 4.18846 10.9233 4.16648L7.6103 3.86566L6.30026 0.799381C6.20367 0.574662 5.98368 0.429199 5.73925 0.429199C5.49483 0.429199 5.27484 0.574662 5.17825 0.799906L3.86821 3.86566L0.554701 4.16648C0.311242 4.18899 0.105615 4.35354 0.0300369 4.58597C-0.0455407 4.81839 0.0242569 5.07332 0.208428 5.23403L2.71265 7.43024L1.97421 10.6831C1.92018 10.9222 2.01301 11.1695 2.21145 11.3129C2.31812 11.39 2.44292 11.4292 2.56876 11.4292C2.67727 11.4292 2.7849 11.3999 2.88149 11.3421L5.73925 9.63417L8.59597 11.3421C8.80501 11.4679 9.06852 11.4564 9.26653 11.3129C9.46506 11.169 9.55781 10.9217 9.50377 10.6831L8.76534 7.43024L11.2696 5.23446C11.4537 5.07332 11.524 4.81883 11.4485 4.58597Z" fill="#FFD87C"/>
</g>
<g clip-path="url(#clip1_0_395)">
<path d="M26.4485 4.58597C26.3733 4.35354 26.1672 4.18846 25.9233 4.16648L22.6103 3.86566L21.3003 0.799381C21.2037 0.574662 20.9837 0.429199 20.7393 0.429199C20.4948 0.429199 20.2748 0.574662 20.1782 0.799906L18.8682 3.86566L15.5547 4.16648C15.3112 4.18899 15.1056 4.35354 15.03 4.58597C14.9545 4.81839 15.0243 5.07332 15.2084 5.23403L17.7126 7.43024L16.9742 10.6831C16.9202 10.9222 17.013 11.1695 17.2115 11.3129C17.3181 11.39 17.4429 11.4292 17.5688 11.4292C17.6773 11.4292 17.7849 11.3999 17.8815 11.3421L20.7393 9.63417L23.596 11.3421C23.805 11.4679 24.0685 11.4564 24.2665 11.3129C24.4651 11.169 24.5578 10.9217 24.5038 10.6831L23.7653 7.43024L26.2696 5.23446C26.4537 5.07332 26.524 4.81883 26.4485 4.58597Z" fill="#FFD87C"/>
</g>
<g clip-path="url(#clip2_0_395)">
<path d="M41.4485 4.58597C41.3733 4.35354 41.1672 4.18846 40.9233 4.16648L37.6103 3.86566L36.3003 0.799381C36.2037 0.574662 35.9837 0.429199 35.7393 0.429199C35.4948 0.429199 35.2748 0.574662 35.1782 0.799906L33.8682 3.86566L30.5547 4.16648C30.3112 4.18899 30.1056 4.35354 30.03 4.58597C29.9545 4.81839 30.0243 5.07332 30.2084 5.23403L32.7126 7.43024L31.9742 10.6831C31.9202 10.9222 32.013 11.1695 32.2115 11.3129C32.3181 11.39 32.4429 11.4292 32.5688 11.4292C32.6773 11.4292 32.7849 11.3999 32.8815 11.3421L35.7393 9.63417L38.596 11.3421C38.805 11.4679 39.0685 11.4564 39.2665 11.3129C39.4651 11.169 39.5578 10.9217 39.5038 10.6831L38.7653 7.43024L41.2696 5.23446C41.4537 5.07332 41.524 4.81883 41.4485 4.58597Z" fill="#FFD87C"/>
</g>
<g clip-path="url(#clip3_0_395)">
<path d="M56.4485 4.58597C56.3733 4.35354 56.1672 4.18846 55.9233 4.16648L52.6103 3.86566L51.3003 0.799381C51.2037 0.574662 50.9837 0.429199 50.7393 0.429199C50.4948 0.429199 50.2748 0.574662 50.1782 0.799906L48.8682 3.86566L45.5547 4.16648C45.3112 4.18899 45.1056 4.35354 45.03 4.58597C44.9545 4.81839 45.0243 5.07332 45.2084 5.23403L47.7126 7.43024L46.9742 10.6831C46.9202 10.9222 47.013 11.1695 47.2115 11.3129C47.3181 11.39 47.4429 11.4292 47.5688 11.4292C47.6773 11.4292 47.7849 11.3999 47.8815 11.3421L50.7393 9.63417L53.596 11.3421C53.805 11.4679 54.0685 11.4564 54.2665 11.3129C54.4651 11.169 54.5578 10.9217 54.5038 10.6831L53.7653 7.43024L56.2696 5.23446C56.4537 5.07332 56.524 4.81883 56.4485 4.58597Z" fill="#FFD87C"/>
</g>
<g clip-path="url(#clip4_0_395)">
<path d="M71.4485 4.58597C71.3733 4.35354 71.1672 4.18846 70.9233 4.16648L67.6103 3.86566L66.3003 0.799381C66.2037 0.574662 65.9837 0.429199 65.7393 0.429199C65.4948 0.429199 65.2748 0.574662 65.1782 0.799906L63.8682 3.86566L60.5547 4.16648C60.3112 4.18899 60.1056 4.35354 60.03 4.58597C59.9545 4.81839 60.0243 5.07332 60.2084 5.23403L62.7126 7.43024L61.9742 10.6831C61.9202 10.9222 62.013 11.1695 62.2115 11.3129C62.3181 11.39 62.4429 11.4292 62.5688 11.4292C62.6773 11.4292 62.7849 11.3999 62.8815 11.3421L65.7393 9.63417L68.596 11.3421C68.805 11.4679 69.0685 11.4564 69.2665 11.3129C69.4651 11.169 69.5578 10.9217 69.5038 10.6831L68.7653 7.43024L71.2696 5.23446C71.4537 5.07332 71.524 4.81883 71.4485 4.58597Z" fill="#FFD87C"/>
</g>
<defs>
<clipPath id="clip0_0_395">
<rect width="12" height="12" fill="white"/>
</clipPath>
<clipPath id="clip1_0_395">
<rect width="12" height="12" fill="white" transform="translate(15)"/>
</clipPath>
<clipPath id="clip2_0_395">
<rect width="12" height="12" fill="white" transform="translate(30)"/>
</clipPath>
<clipPath id="clip3_0_395">
<rect width="12" height="12" fill="white" transform="translate(45)"/>
</clipPath>
<clipPath id="clip4_0_395">
<rect width="12" height="12" fill="white" transform="translate(60)"/>
</clipPath>
</defs>
</svg>
