<svg width="84" height="17" viewBox="0 0 84 17" fill="none" xmlns="http://www.w3.org/2000/svg">
<path d="M65.2909 12.8343H67.1398V0.447192H65.2909V12.8343ZM81.9439 4.90953L79.8245 10.2798H79.7611L77.5614 4.90953H75.5698L78.8693 12.4151L76.9877 16.5905H78.9159L83.9999 4.90953H81.9439ZM71.4579 11.4274C70.8535 11.4274 70.0083 11.1243 70.0083 10.3754C70.0083 9.41933 71.0605 9.05282 71.9681 9.05282C72.7806 9.05282 73.1641 9.2278 73.6575 9.46699C73.5139 10.6146 72.526 11.4274 71.4579 11.4274ZM71.6818 4.63854C70.3432 4.63854 68.957 5.22838 68.3833 6.5351L70.0241 7.22017C70.3749 6.5351 71.0279 6.31216 71.7135 6.31216C72.6697 6.31216 73.6417 6.88536 73.6575 7.90563V8.03295C73.3226 7.84172 72.6053 7.55497 71.7294 7.55497C69.9597 7.55497 68.1594 8.52679 68.1594 10.3436C68.1594 12.001 69.61 13.0688 71.2349 13.0688C72.4774 13.0688 73.1641 12.511 73.5931 11.8574H73.6575V12.8141H75.443V8.06466C75.443 5.86549 73.8002 4.63854 71.6818 4.63854ZM60.2554 6.41739H57.6258V2.17155H60.2554C61.6377 2.17155 62.4224 3.31567 62.4224 4.29442C62.4224 5.25434 61.6377 6.41739 60.2554 6.41739ZM60.2079 0.447192H55.7777V12.8343H57.6258V8.14135H60.2079C62.2569 8.14135 64.2713 6.65816 64.2713 4.29442C64.2713 1.93117 62.2569 0.447192 60.2079 0.447192ZM36.0499 11.4296C34.7726 11.4296 33.7036 10.3598 33.7036 8.89181C33.7036 7.40674 34.7726 6.32177 36.0499 6.32177C37.3109 6.32177 38.3006 7.40674 38.3006 8.89181C38.3006 10.3598 37.3109 11.4296 36.0499 11.4296ZM38.1728 5.60312H38.1089C37.6941 5.10839 36.8955 4.66143 35.8904 4.66143C33.7829 4.66143 31.8516 6.5134 31.8516 8.89181C31.8516 11.254 33.7829 13.0897 35.8904 13.0897C36.8955 13.0897 37.6941 12.6426 38.1089 12.1321H38.1728V12.7382C38.1728 14.3511 37.3109 15.2127 35.9221 15.2127C34.7892 15.2127 34.0868 14.3987 33.7992 13.7125L32.1872 14.3828C32.6497 15.4998 33.8785 16.8731 35.9221 16.8731C38.0935 16.8731 39.9292 15.5958 39.9292 12.4828V4.91686H38.1728V5.60312ZM41.2065 12.8343H43.0574V0.447192H41.2065V12.8343ZM45.7872 8.74784C45.7396 7.1195 47.049 6.28967 47.9903 6.28967C48.7249 6.28967 49.3468 6.65697 49.5551 7.18341L45.7872 8.74784ZM51.5337 7.34283C51.1826 6.40154 50.1132 4.66143 47.9264 4.66143C45.755 4.66143 43.9514 6.36943 43.9514 8.87556C43.9514 11.2381 45.7396 13.0897 48.1334 13.0897C50.0648 13.0897 51.1826 11.9088 51.6459 11.2222L50.2091 10.2642C49.7301 10.9667 49.0759 11.4296 48.1334 11.4296C47.1921 11.4296 46.5214 10.9985 46.091 10.1525L51.7252 7.822L51.5337 7.34283ZM6.64099 5.95447V7.74224H10.9189C10.7912 8.74784 10.456 9.48205 9.94514 9.99293C9.3224 10.6153 8.3486 11.3019 6.64099 11.3019C4.00705 11.3019 1.94799 9.17895 1.94799 6.54511C1.94799 3.91126 4.00705 1.788 6.64099 1.788C8.06176 1.788 9.09907 2.34683 9.86538 3.06519L11.1268 1.80385C10.057 0.782393 8.63654 0.000226999 6.64099 0.000226999C3.03286 0.000226999 0 2.93747 0 6.54511C0 10.1525 3.03286 13.0897 6.64099 13.0897C8.58819 13.0897 10.057 12.4511 11.2062 11.254C12.3875 10.0727 12.7548 8.41264 12.7548 7.07154C12.7548 6.65697 12.7226 6.27382 12.6588 5.95447H6.64099ZM17.6184 11.4296C16.3411 11.4296 15.2396 10.3761 15.2396 8.87556C15.2396 7.35908 16.3411 6.32177 17.6184 6.32177C18.8952 6.32177 19.9967 7.35908 19.9967 8.87556C19.9967 10.3761 18.8952 11.4296 17.6184 11.4296ZM17.6184 4.66143C15.2871 4.66143 13.3879 6.43324 13.3879 8.87556C13.3879 11.3019 15.2871 13.0897 17.6184 13.0897C19.9487 13.0897 21.8484 11.3019 21.8484 8.87556C21.8484 6.43324 19.9487 4.66143 17.6184 4.66143ZM26.8459 11.4296C25.5695 11.4296 24.4676 10.3761 24.4676 8.87556C24.4676 7.35908 25.5695 6.32177 26.8459 6.32177C28.1232 6.32177 29.2243 7.35908 29.2243 8.87556C29.2243 10.3761 28.1232 11.4296 26.8459 11.4296ZM26.8459 4.66143C24.5155 4.66143 22.6163 6.43324 22.6163 8.87556C22.6163 11.3019 24.5155 13.0897 26.8459 13.0897C29.1771 13.0897 31.0764 11.3019 31.0764 8.87556C31.0764 6.43324 29.1771 4.66143 26.8459 4.66143Z" fill="white"/>
</svg>
