<svg width="104" height="23" viewBox="0 0 104 23" fill="none" xmlns="http://www.w3.org/2000/svg">
<g opacity="0.8">
<path d="M64.3688 9.59288L58.7416 3.86325V3.82354C58.3993 3.49339 57.9463 3.31351 57.4781 3.32185C57.0099 3.33019 56.5632 3.52608 56.2321 3.86823C55.901 4.21037 55.7114 4.67201 55.7033 5.1558C55.6953 5.63959 55.8693 6.10771 56.1888 6.46144L56.2273 6.49547L61.7721 12.3045H64.3962V9.59288H64.3688Z" fill="#641C36"/>
<path d="M65.331 15.9806L70.9472 21.7102L70.9856 21.7499C71.3242 22.099 71.783 22.2948 72.2612 22.2942C72.7395 22.2937 73.1979 22.0969 73.5357 21.7471C73.8735 21.3973 74.063 20.9231 74.0624 20.429C74.0619 19.9348 73.8715 19.4611 73.5329 19.112L73.5 19.078L67.9552 13.2689H65.331V15.9806Z" fill="#641C36"/>
<path d="M67.9387 12.3045L73.4835 6.49541L73.522 6.46138C73.8415 6.10765 74.0155 5.63953 74.0075 5.15574C73.9994 4.67195 73.8098 4.21031 73.4787 3.86816C73.1476 3.52602 72.7009 3.33013 72.2327 3.32179C71.7645 3.31345 71.3115 3.49333 70.9692 3.82348L70.9362 3.86319L65.331 9.59282V12.3045H67.9387Z" fill="#641C36"/>
<path d="M61.7461 13.2689L56.2068 19.0723L56.1684 19.1063C55.8298 19.4591 55.6408 19.9365 55.6429 20.4333C55.6439 20.6793 55.6918 20.9227 55.7838 21.1496C55.8759 21.3764 56.0103 21.5824 56.1793 21.7556C56.3484 21.9288 56.5488 22.0659 56.7692 22.1591C56.9895 22.2522 57.2254 22.2996 57.4635 22.2986C57.9443 22.2965 58.4046 22.097 58.7431 21.7442L58.7761 21.7045L64.3977 15.9806V13.2632H61.7681L61.7461 13.2689Z" fill="#641C36"/>
<path d="M14.8722 19.4694L14.2079 9.64394C14.131 8.50936 14.0816 7.55631 14.0816 6.5749C13.873 7.63573 13.7193 8.27677 13.4118 9.41135L10.5955 19.4694H7.55411L5.01777 9.82547C4.7872 8.92348 4.46878 7.63006 4.2986 6.56923C4.2986 7.65842 4.24919 8.74195 4.17233 9.87653L3.55746 19.4694H0L1.64697 1.08353H6.23104L8.55876 10.2907C8.81336 11.2488 9.0186 12.2202 9.17363 13.2009C9.34352 12.1933 9.56341 11.1955 9.83242 10.2112L12.237 1.08353H16.7936L18.3802 19.4694H14.8722ZM30.4525 20.1558C29.6745 19.843 29.0236 19.2644 28.6079 18.5164C28.3627 18.7754 28.0984 19.0144 27.8173 19.2311C27.0319 19.7533 26.1099 20.0128 25.1767 19.9743C22.2616 19.9743 20.675 18.4369 20.675 15.7423C20.675 12.5655 22.7996 11.0849 26.9719 11.0849H27.7405V10.5176C27.7405 9.00858 27.455 8.50369 26.2033 8.50369C25.1053 8.50369 23.8207 9.07098 22.4153 10.041L20.955 7.49958C21.6272 7.05337 22.3385 6.6735 23.0796 6.365C24.208 5.84522 25.429 5.57471 26.6645 5.5708C28.8604 5.5708 30.3756 6.41606 30.8862 7.92505C31.1188 8.71239 31.1972 9.53973 31.1168 10.3587L31.0399 14.897C31.0399 16.3777 31.1168 17.013 32.2697 17.915L30.4525 20.1558ZM27.5319 13.5412C25.1547 13.5412 24.3313 13.9951 24.3313 15.6062C24.3093 15.8269 24.3316 16.05 24.3969 16.2614C24.4623 16.4727 24.5692 16.6679 24.7109 16.8346C24.8526 17.0013 25.0262 17.136 25.2207 17.2301C25.4151 17.3243 25.6263 17.3759 25.841 17.3818C26.1864 17.3645 26.5246 17.2729 26.8337 17.1127C27.1429 16.9524 27.4162 16.7272 27.6362 16.4514L27.6856 13.5412H27.5319ZM38.4293 19.7871C36.689 19.7871 35.3056 18.9929 34.8993 17.8016C34.6768 17.1312 34.5981 16.4189 34.6687 15.7139V8.33917H33.3622V5.92819H34.6687C34.6411 4.85808 34.6833 3.78725 34.795 2.723L38.2756 1.82668C38.1416 3.18948 38.0738 4.55837 38.0725 5.92819H41.1413L40.2739 8.36187H38.078V15.1693C38.078 16.8712 38.3854 17.3364 39.5603 17.3364C39.9798 17.308 40.3936 17.2202 40.79 17.0754L41.2237 19.1914C40.3396 19.5792 39.3898 19.7817 38.4293 19.7871ZM49.1511 9.01992C48.8476 8.83973 48.5019 8.74944 48.152 8.75897C47.7426 8.77442 47.3418 8.88433 46.9789 9.08065C46.6161 9.27698 46.3003 9.55473 46.0548 9.89355V19.4694H42.6236V10.4211C42.6728 9.0791 42.5096 7.73778 42.1405 6.4501L45.2094 5.60483C45.5373 6.1939 45.7254 6.8549 45.7584 7.53362C46.4995 6.50115 47.5536 5.60483 48.8327 5.60483C49.2758 5.58877 49.7157 5.68827 50.1119 5.89415L49.1511 9.01992ZM52.758 4.39083C52.4804 4.38935 52.2059 4.33138 51.95 4.22025C51.6941 4.10911 51.4619 3.94698 51.2666 3.74312C51.0714 3.53926 50.9169 3.29765 50.812 3.0321C50.7071 2.76654 50.6539 2.48224 50.6553 2.19542C50.6611 1.6101 50.8906 1.05087 51.2937 0.639633C51.6968 0.228393 52.2409 -0.00152011 52.8074 7.5646e-06C53.0847 0.000733026 53.359 0.0582645 53.6146 0.169273C53.8702 0.280282 54.102 0.442565 54.2965 0.646732C54.491 0.850899 54.6445 1.0929 54.7479 1.35873C54.8513 1.62456 54.9027 1.90894 54.899 2.19542C54.8998 2.48538 54.8448 2.7726 54.7373 3.04042C54.6297 3.30824 54.4718 3.55132 54.2726 3.75556C54.0734 3.9598 53.837 4.12112 53.577 4.23018C53.3169 4.33923 53.0386 4.39384 52.758 4.39083ZM51.0561 19.4694V6.16078L54.4873 5.59349V19.4694H51.0561ZM76.9136 4.39083C76.6363 4.38935 76.362 4.33134 76.1064 4.22014C75.8508 4.10894 75.619 3.94672 75.4242 3.74278C75.2293 3.53884 75.0754 3.29719 74.9711 3.03166C74.8668 2.76614 74.8143 2.48197 74.8164 2.19542C74.8208 1.61062 75.049 1.05138 75.4513 0.639984C75.8535 0.228585 76.397 -0.00150926 76.963 7.5646e-06C77.2402 0.000733026 77.5146 0.0582645 77.7702 0.169273C78.0258 0.280282 78.2576 0.442565 78.4521 0.646732C78.6466 0.850899 78.8 1.0929 78.9035 1.35873C79.0069 1.62456 79.0583 1.90894 79.0546 2.19542C79.0554 2.48538 79.0004 2.7726 78.8928 3.04042C78.7853 3.30824 78.6274 3.55132 78.4282 3.75556C78.229 3.9598 77.9925 4.12112 77.7325 4.23018C77.4725 4.33923 77.1942 4.39384 76.9136 4.39083ZM75.2117 19.4694V6.16078L78.6374 5.59349V19.4694H75.2117ZM90.1991 20.1558C89.4212 19.843 88.7702 19.2644 88.3545 18.5164C88.1105 18.7767 87.8461 19.0158 87.564 19.2311C86.7786 19.7533 85.8565 20.0128 84.9233 19.9743C82.0082 19.9743 80.4216 18.4369 80.4216 15.7423C80.4216 12.5655 82.5462 11.0849 86.7185 11.0849H87.4871V10.5176C87.4871 9.00858 87.2016 8.50369 85.95 8.50369C84.852 8.50369 83.5673 9.07098 82.1619 10.041L80.7016 7.53929C81.3738 7.09308 82.0851 6.71321 82.8262 6.40471C83.9546 5.88493 85.1756 5.61442 86.4111 5.61051C88.6071 5.61051 90.1223 6.45577 90.6328 7.96476C90.8654 8.7521 90.9438 9.57944 90.8634 10.3984L90.7866 14.9368C90.7866 16.4174 90.8634 17.0528 92.0163 17.9547L90.1991 20.1558ZM87.2895 13.5412C84.9124 13.5412 84.0944 13.9951 84.0944 15.6062C84.0715 15.8271 84.0933 16.0505 84.1583 16.2622C84.2233 16.474 84.3302 16.6695 84.4721 16.8364C84.614 17.0033 84.7878 17.1379 84.9827 17.2318C85.1776 17.3257 85.3891 17.3768 85.6041 17.3818C85.9467 17.3622 86.2817 17.2694 86.5878 17.1093C86.894 16.9492 87.1647 16.7252 87.3828 16.4514L87.4322 13.5412H87.2895ZM100.619 19.4694V10.6594C100.619 9.12771 100.361 8.67387 99.4661 8.67387C98.5606 8.78796 97.72 9.21828 97.0835 9.89355V19.4694H93.6523V9.64394C93.6689 8.56599 93.5131 7.4926 93.1911 6.46712L96.238 5.5708C96.5413 6.08454 96.7097 6.67113 96.7266 7.27267C97.2101 6.9073 97.7143 6.57201 98.2364 6.26856C98.97 5.89854 99.7751 5.70462 100.592 5.70127C102.052 5.70127 103.336 6.48981 103.743 7.65842C103.936 8.28093 104.022 8.93392 103.995 9.58721V19.4694H100.619Z" fill="#641C36"/>
</g>
</svg>
