<svg width="3" height="3" viewBox="0 0 3 3" fill="none" xmlns="http://www.w3.org/2000/svg">
<path d="M1.13425 2.95385C0.936037 2.90402 0.750084 2.81423 0.587836 2.68998C0.425588 2.56573 0.290441 2.40966 0.190707 2.23132C0.0909732 2.05298 0.0287671 1.85614 0.00786749 1.6529C-0.0130322 1.44966 0.00781042 1.24429 0.069165 1.0494C0.157106 0.770061 0.324973 0.52258 0.551992 0.337492C0.77901 0.152404 1.05525 0.0378076 1.34666 0.00786181C1.63807 -0.022084 1.93189 0.033922 2.19183 0.16897C2.45176 0.304018 2.66647 0.512209 2.80942 0.767823C2.95238 1.02344 3.01731 1.3153 2.99625 1.60739C2.97518 1.89948 2.86905 2.17901 2.6909 2.41149C2.51275 2.64396 2.27037 2.81919 1.99374 2.91557C1.71711 3.01195 1.41835 3.02527 1.13425 2.95385ZM1.91427 0.194666C1.57412 0.0974727 1.2093 0.13921 0.899909 0.310721C0.590522 0.482231 0.361859 0.769468 0.264182 1.10937C0.216904 1.27873 0.203477 1.45574 0.224629 1.63029C0.245781 1.80484 0.301101 1.97354 0.387463 2.12671C0.473826 2.27988 0.589539 2.41454 0.727964 2.52301C0.866389 2.63149 1.02481 2.71164 1.19422 2.7589C1.36363 2.80616 1.54071 2.81961 1.71532 2.79846C1.88993 2.77732 2.05865 2.72199 2.21188 2.63566C2.3651 2.54933 2.49981 2.43367 2.60832 2.2953C2.71683 2.15692 2.79703 1.99853 2.84431 1.82918C2.89199 1.6608 2.90571 1.48461 2.88464 1.31089C2.86357 1.13717 2.80812 0.969378 2.72158 0.81727C2.63503 0.665162 2.51908 0.53179 2.38048 0.424899C2.24188 0.318009 2.08341 0.239751 1.91427 0.194666Z" fill="#EBEBEB"/>
</svg>
