<svg width="75" height="75" viewBox="0 0 75 75" fill="none" xmlns="http://www.w3.org/2000/svg">
<path d="M56.8056 20.3244C52.4584 13.6583 45.24 9.67847 37.4995 9.67847C30.1424 9.67847 23.1348 13.3512 18.7534 19.5034L16.783 18.1C21.6169 11.3116 29.3609 7.25916 37.4995 7.25916C46.0616 7.25916 54.0366 11.6489 58.8333 19.0025L56.8056 20.3244Z" fill="#641C36"/>
<path d="M48.3679 58.0104L47.3142 55.8315C53.8598 52.6686 58.6949 46.4253 60.2483 39.1302L62.6157 39.6346C60.9087 47.6545 55.5816 54.5244 48.3679 58.0104Z" fill="#641C36"/>
<path d="M26.6231 58.0057C19.4355 54.5291 14.1155 47.6823 12.3943 39.689L14.7593 39.1798C16.3245 46.4496 21.1531 52.6721 27.6769 55.8268L26.6231 58.0057Z" fill="#641C36"/>
<path d="M30.043 57.9656V66.5324H44.957V57.9656C44.957 56.5964 43.8861 55.4872 42.5654 55.4872H40.4887L37.4994 60.4439L34.5101 55.4872H32.4333C31.1138 55.4872 30.043 56.5964 30.043 57.9656Z" fill="#F9DEE4"/>
<path d="M44.9557 67.7421H30.0429C29.3743 67.7421 28.8333 67.2004 28.8333 66.5324V57.9656C28.8333 55.9308 30.4481 54.2775 32.4345 54.2775H34.5112C34.9359 54.2775 35.3293 54.5002 35.5472 54.8629L37.4993 58.1008L39.4514 54.8629C39.6706 54.5002 40.0639 54.2775 40.4874 54.2775H42.5642C44.5505 54.2775 46.1654 55.9319 46.1654 57.9656V66.5324C46.1654 67.2004 45.6243 67.7421 44.9557 67.7421ZM31.2526 65.3227H43.7461V57.9656C43.7461 57.2651 43.2162 56.6968 42.5642 56.6968H41.1708L38.5347 61.0683C38.0982 61.7954 36.8992 61.7954 36.4627 61.0683L33.8266 56.6968H32.4333C31.7824 56.6968 31.2514 57.2662 31.2514 57.9656L31.2526 65.3227Z" fill="#641C36"/>
<path d="M40.2535 62.9034L41.3267 61.1238V62.9034H40.2535ZM33.6719 62.9034V61.1238L34.7451 62.9034H33.6719Z" fill="#F9DEE4"/>
<path d="M33.1479 48.0621V46.5476C33.1479 44.0462 35.103 42.0043 37.4993 42.0043C39.8956 42.0043 41.8506 44.045 41.8506 46.5476V48.0621C41.8506 50.5635 39.8956 52.6054 37.4993 52.6054C35.103 52.6054 33.1479 50.5635 33.1479 48.0621Z" fill="white"/>
<path d="M37.4995 53.8139C34.434 53.8139 31.9385 51.2339 31.9385 48.0609V46.5476C31.9385 43.3747 34.434 40.7947 37.4995 40.7947C40.565 40.7947 43.0605 43.3747 43.0605 46.5476V48.0609C43.0605 51.2339 40.565 53.8139 37.4995 53.8139ZM37.4995 43.214C35.7671 43.214 34.3578 44.7089 34.3578 46.5476V48.0609C34.3578 49.8996 35.7671 51.3945 37.4995 51.3945C39.2319 51.3945 40.6412 49.8996 40.6412 48.0609V46.5476C40.6412 44.7089 39.2319 43.214 37.4995 43.214Z" fill="#641C36"/>
<path d="M12.8586 22.1873C11.995 23.5157 10.4404 24.4088 8.66612 24.4088C6.89121 24.4088 5.3372 23.5157 4.47367 22.1873L1.7986 23.645C1.43476 23.8447 1.20972 24.2115 1.20972 24.6066V34.6229H16.1237V24.7909C16.1237 24.4159 15.9217 24.065 15.5862 23.8606L12.8586 22.1873Z" fill="#FBA0B5"/>
<path d="M16.1237 35.8338H1.20966C0.540448 35.8338 0 35.2916 0 34.6241V24.6078C0 23.7697 0.468388 22.9953 1.22029 22.5843L3.89536 21.1265C4.45057 20.8241 5.14223 20.9995 5.48835 21.5293C6.15815 22.56 7.37667 23.2003 8.66607 23.2003C9.95664 23.2003 11.1746 22.56 11.8438 21.5293C12.2017 20.9789 12.93 20.8135 13.4899 21.1566L16.2182 22.83C16.9157 23.2582 17.3333 23.9912 17.3333 24.7921V34.6241C17.3333 35.2916 16.7923 35.8338 16.1237 35.8338ZM2.41459 33.4145H14.914V24.7921L13.1468 23.7591C11.9997 24.941 10.3943 25.6208 8.66607 25.6208C6.92659 25.6208 5.31293 24.9309 4.16352 23.736L2.37679 24.7094L2.41459 33.4145Z" fill="#641C36"/>
<path d="M4.83862 30.9952V27.1677C6.00457 27.7324 7.30874 28.0389 8.66606 28.0389C10.0234 28.0389 11.3287 27.7336 12.4947 27.1677V30.9952H4.83862Z" fill="#FBA0B5"/>
<path d="M4.3147 14.9843V13.4693C4.3147 10.9679 6.26976 8.92596 8.66604 8.92596C11.0623 8.92596 13.0174 10.9667 13.0174 13.4693V14.9843C13.0174 17.4857 11.0623 19.5276 8.66604 19.5276C6.26976 19.5276 4.3147 17.4857 4.3147 14.9843Z" fill="white"/>
<path d="M8.66598 20.7373C5.60049 20.7373 3.10498 18.1567 3.10498 14.9855V13.4711C3.10498 10.2993 5.60049 7.71869 8.66598 7.71869C11.7327 7.71869 14.2282 10.2993 14.2282 13.4711V14.9855C14.2282 18.1555 11.7327 20.7373 8.66598 20.7373ZM8.66598 10.1368C6.93359 10.1368 5.5243 11.6324 5.5243 13.4693V14.9843C5.5243 16.823 6.93359 18.3168 8.66598 18.3168C10.3995 18.3168 11.8088 16.8212 11.8088 14.9843V13.4693C11.8088 11.6324 10.3995 10.1368 8.66598 10.1368Z" fill="#641C36"/>
<path d="M73.1334 23.9776L69.0461 22.0786L66.8878 26.2858C66.6498 26.7501 66.0149 26.7501 65.7774 26.2858L63.6192 22.0786L59.5756 23.7697C59.1497 23.9474 58.8762 24.3408 58.8762 24.7749V34.6241H73.789V24.964C73.789 24.5464 73.5351 24.1654 73.1334 23.9776Z" fill="#F9DEE4"/>
<path d="M73.7892 35.8338H58.8752C58.2066 35.8338 57.6655 35.2915 57.6655 34.6241V24.775C57.6655 23.8529 58.232 23.0207 59.1061 22.6545L63.1527 20.9635C63.7369 20.7225 64.4084 20.9658 64.6949 21.5269L66.3328 24.7182L67.9707 21.5269C68.266 20.9487 68.9624 20.7059 69.5577 20.983L73.6451 22.8819C74.469 23.2641 75 24.0821 75 24.9651V34.6241C74.9988 35.2915 74.4584 35.8338 73.7892 35.8338ZM60.0789 33.4144H72.5795V25.0543L69.5914 23.6657L67.9636 26.8387C67.644 27.4595 67.0197 27.844 66.3316 27.844C66.3304 27.844 66.3304 27.844 66.3292 27.844C65.6423 27.844 65.0168 27.4583 64.6996 26.8375L63.0523 23.6273L60.04 24.8878L60.0789 33.4144ZM72.6232 25.075H72.6362H72.6232Z" fill="#641C36"/>
<path d="M62.5042 30.9952V27.8558L62.549 27.9433C63.2809 29.3744 64.7315 30.2633 66.3328 30.2633C67.9293 30.2633 69.3799 29.3756 70.1141 27.9468L70.1602 27.857V30.994L62.5042 30.9952Z" fill="#F9DEE4"/>
<path d="M62.0098 14.9371V13.4226C62.0098 10.9206 63.9642 8.87872 66.3605 8.87872C68.7568 8.87872 70.7119 10.9194 70.7119 13.4226V14.9371C70.7119 17.4385 68.7568 19.4804 66.3605 19.4804C63.9642 19.4792 62.0098 17.4385 62.0098 14.9371Z" fill="white"/>
<path d="M66.3604 20.6888C63.2943 20.6888 60.7988 18.1088 60.7988 14.937V13.4226C60.7988 10.2508 63.2943 7.67023 66.3604 7.67023C69.4259 7.67023 71.9214 10.2508 71.9214 13.4226V14.937C71.9214 18.1088 69.4271 20.6888 66.3604 20.6888ZM66.3604 10.0884C64.6269 10.0884 63.2181 11.5839 63.2181 13.4214V14.9359C63.2181 16.7746 64.6269 18.2683 66.3604 18.2683C68.0928 18.2683 69.5021 16.7734 69.5021 14.9359V13.4214C69.5021 11.5839 68.0928 10.0884 66.3604 10.0884Z" fill="#641C36"/>
</svg>
