<svg width="183" height="40" viewBox="0 0 183 40" fill="none" xmlns="http://www.w3.org/2000/svg">
<g opacity="0.8" clip-path="url(#clip0_320_20603)">
<path opacity="0.25" d="M0 28.0591C0 27.1639 0.355717 26.3053 0.9889 25.6723C1.62208 25.0392 2.48087 24.6836 3.37632 24.6836H12.3448V37.0255H3.37632C2.48087 37.0255 1.62208 36.6699 0.9889 36.0368C0.355717 35.4037 0 34.5452 0 33.65V28.0591Z" fill="#641C36"/>
<path opacity="0.5" d="M12.3438 15.5565C12.3542 15.1237 12.4498 14.6973 12.6251 14.3015C12.8004 13.9056 13.0521 13.5483 13.3656 13.2496C13.6792 12.9511 14.0485 12.7172 14.4524 12.5614C14.8564 12.4056 15.2872 12.3308 15.72 12.3415H24.6885V37.0252H12.3438V15.5565Z" fill="#641C36"/>
<path d="M24.6875 3.26425C24.6948 2.82825 24.7879 2.39794 24.9615 1.99792C25.1351 1.59788 25.3858 1.23596 25.6994 0.932817C26.0128 0.629674 26.3831 0.391253 26.7887 0.231169C27.1944 0.0710861 27.6278 -0.0075233 28.0639 -0.00016859H33.656C34.0922 -0.0075233 34.5255 0.0710861 34.9311 0.231169C35.3368 0.391253 35.7071 0.629674 36.0206 0.932817C36.3342 1.23596 36.5848 1.59788 36.7584 1.99792C36.932 2.39794 37.0251 2.82825 37.0324 3.26425V33.7611C37.0251 34.1971 36.932 34.6273 36.7584 35.0274C36.5848 35.4274 36.3342 35.7894 36.0206 36.0924C35.7071 36.3956 35.3368 36.634 34.9311 36.7942C34.5255 36.9542 34.0922 37.0328 33.656 37.0255H24.6875V3.26425Z" fill="#641C36"/>
<path d="M43.4237 13.8783C43.4237 17.7473 45.6705 20.2035 49.9604 21.1352L53.9663 22.03C56.0403 22.4805 56.9044 23.4864 56.9044 25.1772C56.9044 27.2876 55.0527 28.5651 52.1023 28.5651C49.2691 28.5651 47.5408 27.2876 47.5037 25.1402H43.0781C43.1831 29.6696 46.7075 32.5454 52.1023 32.5454C57.6573 32.5454 61.3608 29.5031 61.3608 24.8008C61.3608 21.0365 59.2499 18.8273 54.9292 17.8893L50.9541 17.0253C48.8493 16.544 47.8679 15.5444 47.8679 13.7424C47.8679 11.6382 49.6332 10.3238 52.3615 10.3238C54.8304 10.3238 56.4044 11.6011 56.5093 13.7795H60.9349C60.7929 9.21916 57.5463 6.37436 52.4293 6.37436C47.0903 6.38053 43.4237 9.45365 43.4237 13.8783Z" fill="#641C36"/>
<path d="M64.3643 39.9996H68.5801V29.8052C69.6541 31.5331 71.8639 32.5389 74.4192 32.5389C79.4991 32.5389 82.4063 28.6697 82.4063 23.3443C82.4063 18.0188 79.2275 14.5013 74.4192 14.5013C71.8268 14.5013 69.58 15.6368 68.5431 17.5868L68.2715 14.9949H64.3643V39.9996ZM68.6171 23.554C68.6171 20.4685 70.5183 18.3335 73.4192 18.3335C76.3203 18.3335 78.1535 20.5117 78.1535 23.554C78.1535 26.5964 76.3881 28.7376 73.4192 28.7376C70.4503 28.7376 68.6171 26.6272 68.6171 23.554Z" fill="#641C36"/>
<path d="M93.0525 32.5389C97.5151 32.5389 100.626 30.2927 101.354 26.5593H97.4473C96.9597 28.1823 95.4413 29.0832 93.1266 29.0832C90.3243 29.0832 88.7318 27.5591 88.4231 24.5537H101.28V23.2393C101.28 17.92 98.0337 14.5013 92.9167 14.5013C87.9047 14.5013 84.4111 18.2039 84.4111 23.554C84.4111 28.9043 87.9726 32.5389 93.0525 32.5389ZM92.9538 17.9571C95.4721 17.9571 97.1017 19.5121 97.1017 21.8571H88.5281C88.9417 19.3023 90.4663 17.9571 92.9538 17.9571Z" fill="#641C36"/>
<path d="M108.528 32.0885V22.8937C108.528 20.1292 110.121 18.3335 112.713 18.3335C114.892 18.3335 116.305 19.7157 116.305 22.5852V32.0885H120.521V21.5979C120.521 17.1733 118.312 14.5136 114.028 14.5136C112.961 14.4676 111.899 14.6939 110.944 15.1711C109.988 15.6483 109.17 16.3607 108.565 17.2412L108.22 15.032H104.312V32.0885H108.528Z" fill="#641C36"/>
<path d="M131.343 32.5395C133.936 32.5395 136.145 31.3979 137.183 29.454L137.46 32.0889H141.349V6.38086H137.164V17.1924C136.096 15.5015 133.985 14.5019 131.609 14.5019C126.455 14.5019 123.344 18.3031 123.344 23.6224C123.344 28.9417 126.399 32.5395 131.343 32.5395ZM132.275 28.6703C129.337 28.6703 127.535 26.5228 127.535 23.4867C127.535 20.4505 129.337 18.2661 132.275 18.2661C135.213 18.2661 137.115 20.4073 137.115 23.4867C137.115 26.566 135.213 28.6703 132.275 28.6703Z" fill="#641C36"/>
<path d="M143.688 15.02V18.5436H146.156V32.0888H150.342V18.5436H157.131V32.0888H161.347V6.38074H157.131V15.02H150.342V12.959C150.342 11.262 150.755 10.1574 152.656 10.1574H154.144V6.55353C153.424 6.42825 152.695 6.37039 151.966 6.38074C148.508 6.38074 146.156 8.31225 146.156 12.9466V15.02H143.688Z" fill="#641C36"/>
<path d="M164.421 23.5174C164.421 28.8429 168.254 32.5022 173.545 32.5022C178.834 32.5022 182.668 28.8429 182.668 23.5174C182.668 18.1918 178.834 14.5325 173.545 14.5325C168.254 14.5325 164.421 18.1981 164.421 23.5174ZM168.637 23.5174C168.637 20.432 170.644 18.3029 173.576 18.3029C176.508 18.3029 178.482 20.4073 178.482 23.5174C178.482 26.6276 176.476 28.738 173.576 28.738C170.674 28.738 168.637 26.6276 168.637 23.5174Z" fill="#641C36"/>
</g>
<defs>
<clipPath id="clip0_320_20603">
<rect width="182.667" height="40" fill="white"/>
</clipPath>
</defs>
</svg>
