<svg width="116" height="149" viewBox="0 0 116 149" fill="none" xmlns="http://www.w3.org/2000/svg">
<g opacity="0.3">
<path d="M80.0195 54.1616C78.138 50.2632 75.9606 46.5012 73.4985 42.9017C75.6317 36.6879 79.168 30.9948 83.9505 26.2169C88.107 22.0647 92.9544 18.8516 98.235 16.6821C100.44 18.8856 102.463 21.2699 104.285 23.8082C91.0662 28.0241 81.2342 39.8847 80.0195 54.1616Z" fill="white"/>
<path d="M97.4015 57.151V92.1409C97.4015 113.846 79.7258 131.505 57.9999 131.505C36.2739 131.505 18.5982 113.846 18.5982 92.1409C18.5982 82.494 10.7423 74.646 1.08643 74.646V65.8983C15.5705 65.8983 27.3542 77.6708 27.3542 92.1409C27.3542 109.023 41.1019 122.757 58.0002 122.757C74.8984 122.757 88.6461 109.023 88.6461 92.1409V57.1507C88.6461 44.7215 97.3401 34.283 108.972 31.5853C110.291 34.2309 111.413 36.9912 112.312 39.8496C103.885 41.1097 97.4015 48.3874 97.4015 57.151Z" fill="white"/>
<path d="M77.7586 20.0315C74.8259 22.9614 72.2473 26.2231 70.095 29.7258L67.1803 34.4681L63.0127 30.274C52.9569 20.2279 40.8769 12.9336 27.6895 8.75609C31.0801 6.61625 34.7097 4.82215 38.5314 3.42789C48.3836 7.57544 57.5387 13.3786 65.6428 20.7037C67.4421 18.2822 69.4238 15.9875 71.5675 13.8462C74.8113 10.6055 78.3555 7.77362 82.1371 5.37507C85.2024 6.8153 88.1206 8.51774 90.8584 10.4588C86.083 12.9191 81.6658 16.1281 77.7586 20.0315Z" fill="white"/>
<path d="M58.0002 149C26.6181 149 1.08643 123.493 1.08643 92.1409V83.3933C5.91434 83.3933 9.84245 87.3173 9.84245 92.1409C9.84245 118.67 31.446 140.252 58.0002 140.252C84.5543 140.252 106.158 118.67 106.158 92.1409V57.1507C106.158 52.5381 109.751 48.7505 114.287 48.4278C114.699 51.1794 114.914 53.9944 114.914 56.8591V92.1409C114.914 123.493 89.3822 149 58.0002 149Z" fill="white"/>
<path d="M58.0002 114.01C45.9301 114.01 36.1102 104.199 36.1102 92.1409C36.1102 72.8474 20.3987 57.1507 1.08643 57.1507V56.8591C1.08643 53.9888 1.30228 51.168 1.71533 48.4106C13.1824 48.5707 23.9335 53.0983 32.0499 61.2068C40.3142 69.4635 44.866 80.4493 44.866 92.1409C44.866 99.3761 50.758 105.262 57.9999 105.262C65.2417 105.262 71.1338 99.3758 71.1338 92.1409C71.1338 57.3547 45.5948 28.4193 12.2654 23.0556C14.294 20.3239 16.5617 17.7804 19.0369 15.454C33.2384 18.7381 46.268 25.916 56.821 36.4592C71.6968 51.321 79.8895 71.0955 79.8895 92.1409C79.8901 104.199 70.0702 114.01 58.0002 114.01Z" fill="white"/>
<path d="M65.3761 7.66035C65.1098 7.92605 64.8456 8.19437 64.5838 8.46472C60.6087 5.44369 56.4357 2.72008 52.0869 0.305819C54.031 0.104436 56.0034 -2.76566e-05 58.0002 -2.76566e-05C62.8593 -2.76566e-05 67.5774 0.612845 72.0825 1.76294C69.733 3.58295 67.488 5.55108 65.3761 7.66035Z" fill="white"/>
<path d="M57.9999 96.5149C55.5822 96.5149 53.6221 94.5567 53.6221 92.1412C53.6221 64.0865 31.4746 41.1027 3.72998 39.7221C4.66474 36.7736 5.834 33.9286 7.2162 31.2085C21.2825 32.5923 34.3209 38.728 44.4358 48.8332C56.006 60.3927 62.3778 75.7731 62.3778 92.1412C62.3778 94.5567 60.4177 96.5149 57.9999 96.5149Z" fill="white"/>
</g>
</svg>
