<svg width="75" height="75" viewBox="0 0 75 75" fill="none" xmlns="http://www.w3.org/2000/svg">
<g clip-path="url(#clip0_0_424)">
<path d="M0 60.085H73.9466V62.5043H0V60.085Z" fill="#641C36"/>
<path d="M67.1459 67.7333L65.6362 65.8426L71.7584 60.9585L65.6912 56.7979L67.0591 54.8033L74.4742 59.8877C74.7914 60.1044 74.9857 60.4588 74.9993 60.8422C75.0141 61.2243 74.8446 61.5923 74.5457 61.8315L67.1459 67.7333Z" fill="#641C36"/>
<path d="M47.6343 62.509L46.6632 60.2929C56.366 56.0407 62.634 46.5512 62.634 36.1167C62.634 21.5376 50.6212 9.67836 35.8548 9.67836C21.1221 9.67836 9.1371 21.5387 9.1371 36.1167C9.1371 36.7599 9.15955 37.399 9.20562 38.0316L6.79279 38.207C6.74317 37.516 6.71777 36.8208 6.71777 36.1167C6.71777 20.2044 19.7878 7.25903 35.8548 7.25903C51.9555 7.25903 65.0533 20.2044 65.0533 36.1167C65.0533 47.5105 58.2165 57.87 47.6343 62.509Z" fill="#641C36"/>
<path d="M6.88169 40.2466C6.80904 40.2466 6.73521 40.2401 6.66256 40.2259C6.29044 40.1568 5.9709 39.9188 5.80138 39.5797L1.66797 31.3749L3.82859 30.2875L7.24435 37.0677L13.2436 31.5852L14.8762 33.3719L7.69975 39.9306C7.47353 40.1361 7.18174 40.2466 6.88169 40.2466Z" fill="#641C36"/>
<path d="M51.5306 34.9348C51.5306 26.3862 44.5148 19.4561 35.8605 19.4561C27.2062 19.4561 20.1904 26.3862 20.1904 34.9348C20.1904 43.4834 27.2062 50.4135 35.8605 50.4135C44.5148 50.4135 51.5306 43.4834 51.5306 34.9348Z" fill="#F9DEE4"/>
<path d="M35.8607 51.6231C26.5538 51.6231 18.981 44.1366 18.981 34.9336C18.981 25.7306 26.5538 18.2452 35.8607 18.2452C45.1677 18.2452 52.7405 25.7317 52.7405 34.9336C52.7405 44.1354 45.1677 51.6231 35.8607 51.6231ZM35.8607 20.6645C27.8881 20.6645 21.4003 27.066 21.4003 34.9336C21.4003 42.8023 27.8869 49.2038 35.8607 49.2038C43.8346 49.2038 50.3212 42.8023 50.3212 34.9336C50.3212 27.066 43.8334 20.6645 35.8607 20.6645Z" fill="#641C36"/>
<path d="M35.8607 38.484C33.8803 38.484 32.2666 36.8922 32.2666 34.9336C32.2666 32.975 33.8791 31.3832 35.8607 31.3832C37.8412 31.3832 39.4549 32.975 39.4549 34.9336C39.4549 36.8922 37.8424 38.484 35.8607 38.484Z" fill="white"/>
<path d="M34.6509 24.3674H37.0702V32.8238H34.6509V24.3674Z" fill="white"/>
<path d="M37.9463 33.7239H47.1298V36.1433H37.9463V33.7239Z" fill="white"/>
</g>
<defs>
<clipPath id="clip0_0_424">
<rect width="75" height="75" fill="white"/>
</clipPath>
</defs>
</svg>
