<svg width="5" height="5" viewBox="0 0 5 5" fill="none" xmlns="http://www.w3.org/2000/svg">
<path d="M4.90181 3.17959C4.76685 3.65482 4.49395 4.07936 4.11761 4.39953C3.74127 4.7197 3.27839 4.92112 2.78753 4.97829C2.29668 5.03547 1.7999 4.94584 1.36 4.72075C0.920107 4.49566 0.55684 4.1452 0.316198 3.71372C0.075556 3.28224 -0.0316435 2.78911 0.00809339 2.2967C0.0478303 1.80429 0.232755 1.33474 0.539475 0.947398C0.846194 0.560059 1.26093 0.272344 1.73123 0.120653C2.20153 -0.0310386 2.70625 -0.0398885 3.18159 0.0952047C3.49808 0.183272 3.79397 0.333192 4.05212 0.536316C4.31026 0.73944 4.52556 0.991732 4.68553 1.27857C4.84551 1.56542 4.94697 1.88112 4.9841 2.20742C5.02122 2.53373 4.99326 2.86416 4.90181 3.17959Z" fill="white"/>
</svg>
