<svg width="7" height="7" viewBox="0 0 7 7" fill="none" xmlns="http://www.w3.org/2000/svg">
<path d="M6.86177 4.46923C6.81828 4.63302 6.76059 4.7927 6.68936 4.94648C6.34721 5.70009 5.74901 6.30814 5.00092 6.66264C4.25284 7.01714 3.4033 7.09518 2.60312 6.8829C1.80294 6.67061 1.10388 6.18173 0.630079 5.50307C0.156276 4.82441 -0.0616244 3.99986 0.0150568 3.17582C0.091738 2.35178 0.458035 1.58156 1.04893 1.00191C1.63983 0.422253 2.41709 0.0706545 3.24271 0.00955544C4.06833 -0.0515436 4.88892 0.181807 5.55876 0.668164C6.2286 1.15452 6.70433 1.86243 6.90156 2.6662C7.0407 3.26094 7.02701 3.8812 6.86177 4.46923Z" fill="#8C8C8C"/>
</svg>
