<svg width="29" height="19" viewBox="0 0 29 19" fill="none" xmlns="http://www.w3.org/2000/svg">
<path opacity="0.5" d="M1.65427 5.08408C2.44322 5.31305 3.94474 1.77671 5.05182 2.09473C6.15889 2.41275 5.50992 5.10952 6.45157 5.37665C7.39322 5.64378 8.67843 0.937167 9.9382 1.29334C11.198 1.64952 10.3581 3.46857 11.6688 3.83747C12.9795 4.20637 13.743 -0.347616 15.1046 0.021282C16.4662 0.39018 14.1884 6.38158 15.6136 6.75048C16.517 7.00489 17.4205 5.1604 18.5021 5.47842C19.2147 5.66923 19.3547 6.75048 20.2964 7.03034C21.238 7.31019 22.4851 3.63393 23.6558 3.96466C24.8265 4.2954 24.3174 6.50879 25.1827 6.77593C26.048 7.04306 27.3714 3.49401 29.0002 3.95195L24.9537 18.2118L0 11.1264L1.65427 5.08408Z" fill="#FFD87C"/>
</svg>
