<svg width="107" height="40" viewBox="0 0 107 40" fill="none" xmlns="http://www.w3.org/2000/svg">
<g opacity="0.8" clip-path="url(#clip0_320_20601)">
<path d="M21.5 9.29584V30.7375H18.5625V9.29584H21.5ZM0 30.7417V9.29584H9.20416H10.0375C12.5208 9.29584 13.9583 9.92084 14.85 10.8667C15.7583 11.8125 16.4417 13.4625 16.4417 16.075C16.4417 18.575 15.7417 20.0708 14.7917 20.9792C13.8625 21.8875 12.3292 22.55 9.75416 22.55L8.7875 22.5708H2.9V30.7333H0V30.7417ZM2.9 20.15H8.31666C10.5917 20.15 11.8042 19.6958 12.4292 19.2417C13.075 18.7667 13.6208 17.9167 13.6208 16.25C13.6208 14.2792 13.1667 13.2 12.7292 12.6875C12.2917 12.175 11.4583 11.7583 9.90833 11.7583C8.35833 11.7583 2.87917 11.7417 2.87917 11.7417V20.1542H2.9V20.15ZM26.7833 19.9042H24.1708C24.3583 18.0667 24.8333 17.3292 25.5917 16.6458C26.35 15.9625 27.9042 15.1125 30.2708 15.1125C33.0167 15.1125 34.3041 15.7375 35.2333 16.5708C36.35 17.5542 36.8625 19.0125 36.8625 21.9125C36.8625 21.9125 36.8625 28.2208 36.8625 28.9958C36.8625 30.1125 37.1291 30.625 37.1291 30.625V30.7583H34.4208L34.3625 29.5667L34.3041 29.5458C33.0541 30.8708 31.9 31.0042 29.5292 31.0417C26.1 31.0792 23.6958 29.45 23.6583 26.5125C23.6375 24.6958 24.1875 23.5 25.0583 22.7792C25.9125 22.0792 27.3333 21.4167 29.6042 21.3958C32.0667 21.3583 33.6583 21.7167 34.3208 22.6667L34.3792 22.6458V21.625C34.3792 19.9 34 18.9167 33.5083 18.4042C33.0333 17.8917 32.1625 17.3417 30.5333 17.3625C28.0333 17.3875 26.975 18.2 26.7833 19.9042ZM30.2125 23.5417C28.5625 23.5625 27.6167 23.7708 27.0125 24.225C26.425 24.6625 26.1417 25.2083 26.1417 26.3458C26.1625 27.5208 26.5375 27.7875 27.0875 28.1833C27.6542 28.6 28.5083 28.7875 30.0042 28.7708C33.0333 28.7333 34.2291 28.2417 34.1916 26.25C34.1708 25.1125 33.925 24.6 33.4333 24.225C32.9041 23.8083 31.9167 23.5042 30.2125 23.5417ZM49.6125 25.3042H52.2083C52.0583 27.5583 51.8291 28.1625 50.9958 29.1875C50.125 30.2292 48.9291 30.9125 46.2041 30.9125C43.4375 30.9125 41.8833 30.6667 40.6333 29.3417C39.6291 28.2792 39.025 26.1792 39.025 22.9375C39.025 19.8875 39.65 18.2 40.6166 17.0458C41.5458 15.9458 43.2291 15.1125 45.7291 15.1125C48.0958 15.1125 49.65 15.5875 50.675 16.3833C51.7 17.1792 52.2083 18.5625 52.2083 20.5875H49.6125C49.6125 19.6792 49.2541 18.5042 48.5708 18.0875C47.8875 17.6917 47.0166 17.5 45.5791 17.5C44.0625 17.5 43.0208 18.2375 42.5666 18.8833C42.075 19.5833 41.7333 20.7583 41.7333 23.1458C41.7333 25.475 42.2625 26.9917 42.7541 27.6333C43.2666 28.2792 44.3458 28.5042 46.2 28.5042C47.7708 28.5042 48.2833 28.1458 48.7 27.7292C49.1583 27.2917 49.5166 26.875 49.6125 25.3042ZM65.675 16.3625C64.5375 15.5083 63.4583 15.1125 61.0166 15.1125C58.6291 15.1125 56.7916 15.8333 55.8083 16.8917C54.8416 17.9542 54.0833 19.8833 54.0833 22.9333C54.0833 26.4208 54.7666 28.275 55.9208 29.3375C57.3208 30.6084 58.6875 30.9292 61.2041 30.9292C64.025 30.9292 65.4833 30.075 66.3375 29.0167C66.9625 28.2417 67.3208 27.5 67.475 26.025L64.825 25.7208C64.75 26.65 64.3708 27.2375 64.0291 27.5583C63.575 27.9542 63.1583 28.45 61.5458 28.45C59.6333 28.45 58.6666 28.2625 58.0583 27.5958C57.5083 26.9917 56.9208 25.8708 56.9041 23.5792H67.7791V21.5708C67.7583 19.3958 67.075 17.4042 65.675 16.3625ZM56.9625 21.2875C57.0958 19.9792 57.4166 19.1833 57.8166 18.7125C58.3833 18.05 59.4833 17.4792 60.8458 17.4792C62.3416 17.4792 63.1958 17.8 63.9541 18.35C64.8625 19.0125 65.0708 19.7125 65.0708 21.2875H56.9625Z" fill="#641C36"/>
<path opacity="0.5" d="M97.3462 18.9375C97.3837 21.1541 97.3837 22.6333 97.1753 23.1791L93.8795 20.6791L91.8712 23.4458L95.6962 26.2125C95.3003 26.7041 94.2545 26.8 92.8545 26.8C90.1087 26.8 88.9712 26.4791 88.2712 25.8333C87.5712 25.1708 87.1337 23.8083 87.1337 20.85C87.1337 16.9458 87.342 15.6208 87.967 14.5416C88.5545 13.5375 89.767 13.0083 92.3253 13.0083C94.467 13.0083 95.6212 13.4041 96.267 13.9916C97.1212 14.7708 97.3462 16.7208 97.3462 18.9375ZM106.667 9.97914V30C106.667 33.5791 104.792 36.4791 99.5462 36.4791H76.7962C72.4753 36.4791 70.167 34.1125 70.167 30.3041V10.3208C70.167 6.41664 72.4212 3.52081 77.1378 3.52081H99.8128C104.263 3.52081 106.667 5.86665 106.667 9.97914ZM79.7878 9.99998H75.6378V30.4583H79.7878V9.99998ZM103.259 27.5791L100.984 25.9291C101.288 24.8125 101.55 22.8416 101.55 19.6791C101.55 15.2291 101.154 12.8583 99.5628 11.325C98.292 10.0916 96.2462 9.31664 92.2712 9.31664C88.217 9.31664 86.417 9.97914 85.0545 11.5916C83.4462 13.4875 82.9878 15.7208 82.9878 20.6666C82.9878 24.9083 83.6878 27.1458 84.8837 28.5291C86.2087 30.0625 88.3503 30.6333 92.3295 30.6333C95.9462 30.6333 97.9378 30.3291 99.2628 29.0416L101.175 30.425L103.259 27.5791Z" fill="#641C36"/>
</g>
<defs>
<clipPath id="clip0_320_20601">
<rect width="106.667" height="40" fill="white"/>
</clipPath>
</defs>
</svg>
