<svg width="186" height="70" viewBox="0 0 186 70" fill="none" xmlns="http://www.w3.org/2000/svg">
<path d="M186 69.4203H183.474" stroke="#FFD87C" stroke-miterlimit="10"/>
<path d="M178.258 69.4203H139.09" stroke="#FFD87C" stroke-miterlimit="10" stroke-dasharray="4.14 4.14"/>
<path d="M136.475 69.4203H133.949V66.895" stroke="#FFD87C" stroke-miterlimit="10"/>
<path d="M133.949 60.9227V40.026" stroke="#FFD87C" stroke-miterlimit="10" stroke-dasharray="4.73 4.73"/>
<path d="M133.949 37.0461V34.5208H131.423" stroke="#FFD87C" stroke-miterlimit="10"/>
<path d="M126.156 34.5208H97.206" stroke="#FFD87C" stroke-miterlimit="10" stroke-dasharray="4.17 4.17"/>
<path d="M94.5791 34.5208H92.053" stroke="#FFD87C" stroke-miterlimit="10"/>
<path d="M92.1666 32.185C91.6969 32.185 91.2378 32.3242 90.8473 32.585C90.4568 32.8459 90.1525 33.2166 89.9728 33.6503C89.793 34.0841 89.746 34.5614 89.8376 35.0218C89.9293 35.4823 90.1554 35.9053 90.4875 36.2372C90.8196 36.5692 91.2427 36.7953 91.7033 36.8869C92.164 36.9785 92.6414 36.9315 93.0753 36.7518C93.5092 36.5721 93.8801 36.2679 94.141 35.8775C94.4019 35.4872 94.5412 35.0282 94.5412 34.5587C94.5412 33.9292 94.291 33.3254 93.8457 32.8802C93.4003 32.4351 92.7964 32.185 92.1666 32.185Z" fill="#FFD87C"/>
<path d="M3.67539 34.4956C3.67809 37.1655 4.69158 39.7354 6.51217 41.6889C8.33276 43.6424 10.8255 44.8346 13.4895 45.026H73.2834C76.4832 45.0373 79.5639 43.8133 81.8828 41.6091C84.2017 39.405 85.5798 36.3909 85.7297 33.1957C85.8796 30.0005 84.7897 26.8707 82.6872 24.4593C80.5848 22.0479 77.6323 20.5411 74.4454 20.253C74.2929 15.4001 72.4558 10.7515 69.2492 7.10479C66.0425 3.45807 61.6664 1.04058 56.8714 0.267081C52.0765 -0.506416 47.1617 0.412304 42.9704 2.86561C38.7791 5.31893 35.5725 9.15389 33.9007 13.7125C32.1777 12.8609 30.2778 12.4283 28.3558 12.4499C25.2094 12.4626 22.1851 13.6691 19.8943 15.8255C17.6036 17.9818 16.2173 20.9272 16.0156 24.0662C15.4476 23.9745 14.8732 23.9281 14.2978 23.9273C12.9048 23.919 11.5239 24.1863 10.2346 24.7138C8.94541 25.2413 7.77333 26.0187 6.78595 27.001C5.79856 27.9834 5.01538 29.1513 4.48152 30.4376C3.94767 31.7239 3.67369 33.103 3.67539 34.4956Z" fill="#FFD87C"/>
<path opacity="0.1" d="M3.67539 34.4956C3.67809 37.1655 4.69158 39.7354 6.51217 41.6889C8.33276 43.6424 10.8255 44.8346 13.4895 45.026H73.2834C76.4832 45.0373 79.5639 43.8133 81.8828 41.6091C84.2017 39.405 85.5798 36.3909 85.7297 33.1957C85.8796 30.0005 84.7897 26.8707 82.6872 24.4593C80.5848 22.0479 77.6323 20.5411 74.4454 20.253C74.2929 15.4001 72.4558 10.7515 69.2492 7.10479C66.0425 3.45807 61.6664 1.04058 56.8714 0.267081C52.0765 -0.506416 47.1617 0.412304 42.9704 2.86561C38.7791 5.31893 35.5725 9.15389 33.9007 13.7125C32.1777 12.8609 30.2778 12.4283 28.3558 12.4499C25.2094 12.4626 22.1851 13.6691 19.8943 15.8255C17.6036 17.9818 16.2173 20.9272 16.0156 24.0662C15.4476 23.9745 14.8732 23.9281 14.2978 23.9273C12.9048 23.919 11.5239 24.1863 10.2346 24.7138C8.94541 25.2413 7.77333 26.0187 6.78595 27.001C5.79856 27.9834 5.01538 29.1513 4.48152 30.4376C3.94767 31.7239 3.67369 33.103 3.67539 34.4956Z" fill="#071920"/>
<path d="M7.71047e-06 34.4956C0.00199968 37.1594 1.01022 39.7242 2.82291 41.6768C4.63559 43.6293 7.11902 44.8255 9.7762 45.026H69.608C72.8078 45.0373 75.8885 43.8133 78.2074 41.6091C80.5263 39.405 81.9045 36.3909 82.0543 33.1957C82.2042 30.0005 81.1143 26.8707 79.0119 24.4593C76.9094 22.0479 73.9569 20.5411 70.77 20.253C70.6176 15.4001 68.7804 10.7515 65.5738 7.10479C62.3672 3.45807 57.991 1.04058 53.196 0.267081C48.4011 -0.506416 43.4864 0.412304 39.295 2.86561C35.1037 5.31893 31.8971 9.15389 30.2254 13.7125C28.4984 12.8594 26.594 12.4268 24.6678 12.4499C21.503 12.4339 18.4518 13.6279 16.1389 15.7875C13.826 17.947 12.4263 20.9087 12.2266 24.0662C11.6585 23.9745 11.0841 23.9281 10.5088 23.9273C7.71486 23.9406 5.04011 25.0604 3.07041 27.0412C1.10071 29.0221 -0.00336632 31.7026 7.71047e-06 34.4956Z" fill="#FFD87C"/>
<path d="M50.5104 31.339H34.5325V45.0513H50.5104V31.339Z" fill="white"/>
<path d="M29.0508 31.339H55.9921L42.5151 17.9045L29.0508 31.339Z" fill="white"/>
</svg>
