<svg width="5" height="5" viewBox="0 0 5 5" fill="none" xmlns="http://www.w3.org/2000/svg">
<path d="M4.90492 3.18161C4.76988 3.65714 4.49681 4.08197 4.12023 4.40235C3.74365 4.72272 3.28047 4.92424 2.7893 4.98146C2.29814 5.03867 1.80104 4.94899 1.36087 4.72375C0.92069 4.49852 0.557233 4.14784 0.316439 3.71609C0.0756436 3.28433 -0.0316657 2.79088 0.00809643 2.29816C0.0478586 1.80544 0.232901 1.33558 0.539816 0.948C0.84673 0.560416 1.26173 0.272517 1.73233 0.120729C2.20293 -0.0310583 2.70797 -0.0399139 3.18361 0.0952653C3.82121 0.276474 4.36072 0.70339 4.68351 1.28216C5.00629 1.86093 5.08595 2.54416 4.90492 3.18161Z" fill="white"/>
</svg>
