<svg width="2" height="1" viewBox="0 0 2 1" fill="none" xmlns="http://www.w3.org/2000/svg">
<path d="M0 0.177675C0.313023 0.0958408 0.641799 0.0958408 0.954822 0.177675C1.02881 0.0899567 1.13077 0.0303573 1.24352 0.0088593C1.35626 -0.0126387 1.47295 0.00526038 1.57405 0.0595942C1.67514 0.113928 1.75446 0.201361 1.7987 0.307234C1.84295 0.413108 1.84941 0.530973 1.81702 0.641051C1.78463 0.75113 1.71535 0.846753 1.62081 0.911822C1.52627 0.97689 1.41227 1.00745 1.29784 0.998414C1.18342 0.989382 1.07558 0.941292 0.992426 0.862197C0.909275 0.783101 0.855878 0.677825 0.841176 0.56403C0.534936 0.501175 0.247188 0.36901 0 0.177675Z" fill="#5F5F5F"/>
</svg>
