<svg width="5" height="5" viewBox="0 0 5 5" fill="none" xmlns="http://www.w3.org/2000/svg">
<path d="M1.80033 4.89658C1.32673 4.75872 0.90456 4.48384 0.586959 4.10657C0.269357 3.72929 0.0705294 3.26649 0.0155638 2.77647C-0.0394018 2.28645 0.0519485 1.79112 0.278075 1.3529C0.504201 0.91467 0.855003 0.553126 1.28629 0.313843C1.71758 0.0745587 2.21005 -0.0317678 2.70168 0.00823704C3.19332 0.0482419 3.66211 0.232806 4.04901 0.538667C4.43591 0.844528 4.7236 1.258 4.87585 1.72702C5.02811 2.19603 5.03812 2.6996 4.90461 3.17429C4.81711 3.4931 4.66679 3.79121 4.46248 4.05116C4.25817 4.31112 4.00398 4.52766 3.71483 4.68809C3.42567 4.84851 3.10737 4.94961 2.77861 4.98541C2.44985 5.02121 2.11725 4.99101 1.80033 4.89658Z" fill="#5F5F5F"/>
</svg>
