<svg width="107" height="40" viewBox="0 0 107 40" fill="none" xmlns="http://www.w3.org/2000/svg">
<g opacity="0.8">
<path d="M20.8038 14.8875C23.4163 14.8875 25.0455 13.425 25.0455 11.375V11.3208C25.0455 9.02081 23.3872 7.80831 20.8038 7.80831H16.7872V14.8875H20.8038ZM13.333 4.66248H21.083C25.6622 4.66248 28.5538 7.27498 28.5538 11.2333V11.2875C28.5538 15.7 25.0122 18 20.6913 18H16.7872V24.3208H13.333V4.66248ZM29.5497 4.81248H32.9455V24.325H29.5497V4.81248ZM44.758 18.1167C43.6705 17.7167 42.5205 17.5167 41.358 17.525C39.2247 17.525 37.958 18.3958 37.958 19.825V19.8792C37.958 21.2833 39.2205 22.0708 40.8247 22.0708C43.0705 22.0708 44.7538 20.8083 44.7538 18.9542V18.1167H44.758ZM44.6747 24.325V22.5C43.4872 23.9125 41.7163 24.7 39.8747 24.6333C37.0663 24.6333 34.5913 23.0333 34.5913 20.0542V20C34.5913 16.7125 37.1455 15.1416 40.6038 15.1416C41.9955 15.1166 43.383 15.325 44.7038 15.7583V15.4791C44.7038 13.4291 43.4122 12.3041 41.0538 12.3041C39.5913 12.3083 38.1455 12.625 36.8122 13.2291L35.883 10.5041C37.6455 9.66248 39.5788 9.24165 41.5288 9.26664C45.908 9.26664 48.0455 11.5666 48.0455 15.5292V24.3167L44.6747 24.325ZM48.9288 16.9958V16.9417C48.8705 12.7166 52.2455 9.24581 56.4705 9.18748C56.5205 9.18748 56.5746 9.18748 56.6246 9.18748C58.8871 9.08748 61.0705 10.0291 62.5496 11.7416L60.4455 14.0166C59.5038 12.8541 58.0913 12.1708 56.5955 12.1625C54.1247 12.1625 52.3247 14.2958 52.3247 16.8791V16.9375C52.3247 19.575 54.1496 21.7125 56.7621 21.7125C58.2496 21.6708 59.6497 20.9958 60.608 19.8583L62.658 21.8833C59.8997 25.175 54.9955 25.6042 51.7038 22.8458C49.9747 21.3917 48.9622 19.2542 48.9288 16.9958ZM73.7413 15.8708C73.5163 13.6791 72.2246 11.9666 69.9788 11.9666C67.9038 11.9666 66.4413 13.5666 66.133 15.8708H73.7413ZM62.7621 16.9667V16.9125C62.7621 12.6708 65.7663 9.18748 70.008 9.18748C74.7288 9.18748 77.1121 12.8958 77.1121 17.1625C77.1121 17.4708 77.083 17.775 77.058 18.1167H66.158C66.358 20.3042 68.2288 21.9583 70.4288 21.8792C71.958 21.8875 73.4205 21.2417 74.4455 20.1083L76.4371 21.8792C74.9621 23.7042 72.7163 24.7333 70.3705 24.6583C66.2871 24.7792 62.8788 21.5667 62.758 17.4833C62.7538 17.3083 62.7538 17.1375 62.7621 16.9667ZM89.9913 16.9375V16.8791C89.9913 14.0166 87.9705 12.1333 85.6996 12.1333C83.3663 12.1333 81.4288 13.9291 81.4288 16.8791V16.9375C81.4288 19.8 83.3955 21.6833 85.6996 21.6833C87.9705 21.6833 89.9913 19.775 89.9913 16.9375ZM77.9955 16.9375V16.8791C77.9955 11.9666 81.3371 9.18331 84.8746 9.18331C86.8871 9.17498 88.7746 10.15 89.9288 11.7958V4.81248H93.333V24.3208H89.933V21.85C88.8413 23.5875 86.9288 24.6417 84.8788 24.6292C81.3955 24.6333 77.9955 21.85 77.9955 16.9375Z" fill="#641C36"/>
<path opacity="0.5" d="M54.5497 28.6334H53.2497C53.1622 28.6334 53.0913 28.7042 53.0913 28.7917V32.1209C53.0913 32.6584 52.8705 32.9542 52.3747 32.9542C51.8788 32.9542 51.658 32.6625 51.658 32.1209V28.7917C51.6622 28.7084 51.5955 28.6334 51.5122 28.6334C51.508 28.6334 51.5038 28.6334 51.4997 28.6334H50.1872C50.0997 28.6334 50.0288 28.7042 50.0288 28.7917V32.4417C50.0288 33.5667 50.8455 34.4834 52.3622 34.4834C53.8955 34.4834 54.7247 33.5792 54.7247 32.4417V28.7917C54.7205 28.7 54.6455 28.6292 54.5538 28.6292C54.5538 28.6334 54.5538 28.6334 54.5497 28.6334ZM63.9788 30.9667L63.0288 30.6459C62.7497 30.5459 62.7205 30.3959 62.7205 30.2959C62.7205 30.15 62.8663 30.0042 63.1455 30.0042C63.5705 30.0084 63.9788 30.1542 64.3122 30.4125C64.3705 30.4584 64.4538 30.4542 64.4997 30.4L65.2288 29.4792C65.2788 29.4167 65.2705 29.3292 65.2163 29.275C64.6288 28.7959 63.8872 28.5459 63.1288 28.5584C61.7705 28.5584 60.9538 29.4 60.9538 30.3209C60.9622 31.1125 61.4997 31.8042 62.2663 32L63.0997 32.2917C63.508 32.4375 63.583 32.5375 63.583 32.7167C63.583 32.875 63.4247 33.0542 63.0872 33.0542C62.5788 33.0125 62.0997 32.8084 61.7163 32.4709C61.658 32.425 61.5747 32.4292 61.5288 32.4834L60.783 33.475C60.7372 33.5375 60.7413 33.625 60.7955 33.6792C61.458 34.2292 62.2997 34.5167 63.158 34.4959C64.4288 34.4959 65.3622 33.75 65.3622 32.6417C65.3455 31.8334 64.7747 31.1375 63.9788 30.9667ZM58.0247 31.0834H57.183V30.0917H58.0247C58.508 30.0917 58.683 30.3125 58.683 30.5875C58.683 30.8667 58.4913 31.0834 58.0247 31.0834ZM59.308 32.2334C59.9747 31.95 60.3955 31.2792 60.358 30.5542C60.3122 29.45 59.383 28.5917 58.2788 28.6334C58.2372 28.6334 58.1955 28.6375 58.1538 28.6417H55.658C55.5747 28.65 55.5122 28.7167 55.5122 28.8V34.2292C55.5122 34.3084 55.5788 34.375 55.658 34.375H56.9997C57.0788 34.375 57.1455 34.3084 57.1455 34.2292V32.4792H57.6705L58.6205 34.2417C58.6663 34.3209 58.7497 34.3667 58.8413 34.3709H60.3872C60.4747 34.3709 60.5038 34.3125 60.4622 34.2417L59.308 32.2334ZM43.0372 28.6334H39.1413C39.0413 28.6292 38.958 28.7042 38.9538 28.8042V28.8084V34.2084C38.9538 34.2959 39.0247 34.3667 39.1122 34.3667H40.4247C40.508 34.3584 40.5705 34.2917 40.5705 34.2084V32.4584H42.233C42.3205 32.4584 42.3955 32.4 42.408 32.3125L42.658 31.1167C42.6788 31.0584 42.6455 30.9959 42.5913 30.975C42.5747 30.9709 42.558 30.9667 42.5413 30.9709H40.5872V30.0959H42.7913C42.8788 30.0959 42.9538 30.0375 42.9663 29.95L43.1955 28.825C43.2122 28.7375 43.1538 28.6542 43.0663 28.6375C43.0538 28.6375 43.0455 28.6334 43.0372 28.6334ZM92.9205 30.1084C93.008 30.1084 93.083 30.05 93.0955 29.9625L93.3246 28.8375C93.3371 28.7375 93.3246 28.65 93.1788 28.65H89.2538C89.1621 28.6459 89.083 28.7167 89.0788 28.8125C89.0788 28.8167 89.0788 28.8209 89.0788 28.825V34.225C89.0788 34.3125 89.1496 34.3834 89.2371 34.3834H92.8121C92.8996 34.3834 92.9746 34.325 92.9871 34.2375L93.2163 33.1125C93.2288 33.0125 93.2163 32.925 93.0705 32.925H90.6955V32.2667H92.358C92.4455 32.2667 92.5205 32.2084 92.533 32.1209L92.783 30.925C92.8038 30.8667 92.7705 30.8042 92.7163 30.7834C92.6996 30.7792 92.683 30.775 92.6663 30.7792H90.6955V30.1209H92.9163L92.9205 30.1084ZM80.1371 31.8875H79.6122L80.1371 30.1375L80.6621 31.8875H80.1371ZM81.2163 28.7625C81.1913 28.6875 81.1205 28.6334 81.0413 28.6334H79.2455C79.1663 28.6334 79.0955 28.6875 79.0705 28.7625L77.4163 34.2334C77.3913 34.2834 77.4163 34.3459 77.4663 34.3709C77.483 34.3792 77.4996 34.3834 77.5205 34.3792H78.9955C79.0788 34.3709 79.1497 34.3125 79.1705 34.2334L79.3997 33.4H80.8746L81.1246 34.2334C81.1455 34.3125 81.2163 34.3709 81.2996 34.3792H82.758C82.8205 34.375 82.8705 34.3209 82.8621 34.2584C82.8621 34.25 82.8621 34.2417 82.858 34.2334L81.2163 28.7625ZM76.9663 28.6334H75.6663C75.5788 28.6334 75.508 28.7042 75.508 28.7917V32.1209C75.508 32.6584 75.2872 32.9542 74.7913 32.9542C74.2955 32.9542 74.0746 32.6625 74.0746 32.1209V28.7917C74.0788 28.7084 74.0121 28.6334 73.9288 28.6334C73.9246 28.6334 73.9205 28.6334 73.9163 28.6334H72.6163C72.5288 28.6334 72.458 28.7042 72.458 28.7917V32.4417C72.458 33.5667 73.2747 34.4834 74.7913 34.4834C76.3246 34.4834 77.1538 33.5792 77.1538 32.4417V28.7917C77.1371 28.7042 77.058 28.6417 76.9663 28.6334ZM85.9413 31.0834H85.0996V30.0917H85.9413C86.408 30.0917 86.5996 30.3125 86.5996 30.5875C86.5996 30.8667 86.4121 31.0834 85.9413 31.0834ZM87.2288 32.2334C87.8997 31.95 88.3163 31.2792 88.2788 30.5542C88.233 29.45 87.3038 28.5917 86.1996 28.6334C86.158 28.6334 86.1163 28.6375 86.0746 28.6417H83.5788C83.4955 28.65 83.433 28.7167 83.433 28.8V34.2292C83.433 34.3084 83.4996 34.375 83.5788 34.375H84.9247C85.0038 34.375 85.0705 34.3084 85.0705 34.2292V32.4792H85.5955L86.5455 34.2417C86.5913 34.3209 86.6747 34.3667 86.7663 34.3709H88.3121C88.3996 34.3709 88.4288 34.3125 88.3871 34.2417L87.2288 32.2334ZM68.7663 32.9667C67.9622 33.0875 67.208 32.5334 67.0872 31.7292C66.9663 30.925 67.5205 30.1709 68.3247 30.05C69.1288 29.9292 69.883 30.4834 70.0038 31.2875C70.0163 31.3625 70.0205 31.4375 70.0205 31.5125C70.0872 32.25 69.5455 32.9 68.808 32.9667C68.7955 32.9667 68.7788 32.9667 68.7663 32.9667ZM71.7413 33.6667C71.4496 33.7834 71.1288 33.8084 70.8205 33.7417C70.8788 33.6834 70.9372 33.6417 70.9955 33.5834C71.7622 32.7459 71.9955 31.5542 71.608 30.4917C71.1913 29.4084 70.183 28.6625 69.0247 28.5792C67.3913 28.4042 65.9247 29.5875 65.7497 31.2209C65.6622 32.0334 65.9122 32.8459 66.4413 33.4667C67.1413 34.2459 68.1913 34.6209 69.2288 34.4584L69.2705 34.5C69.9038 35.0375 70.7038 35.3292 71.533 35.3334L71.8538 33.7584C71.8622 33.7 71.8163 33.6417 71.7413 33.6667ZM46.3497 32.9667C45.5455 33.0875 44.7913 32.5334 44.6705 31.7292C44.5497 30.925 45.1038 30.1709 45.908 30.05C46.7122 29.9292 47.4663 30.4834 47.5872 31.2875C47.5997 31.3625 47.6038 31.4375 47.6038 31.5125C47.683 32.2334 47.1663 32.8834 46.4455 32.9625C46.4122 32.9625 46.383 32.9667 46.3497 32.9667ZM46.6122 28.5584C44.9788 28.3834 43.5122 29.5667 43.3372 31.2C43.2497 32.0125 43.4997 32.825 44.0288 33.4459C45.208 34.7334 47.208 34.825 48.4955 33.6459C48.5247 33.6167 48.5538 33.5917 48.583 33.5625C49.708 32.3667 49.6497 30.4834 48.4538 29.3584C47.9497 28.8875 47.2997 28.6042 46.6122 28.5584ZM15.008 29.5584C15.1705 29.65 15.308 29.7834 15.3955 29.95C15.583 30.3125 15.583 30.7375 15.3955 31.1C15.308 31.2625 15.1747 31.4 15.0122 31.4917C14.8413 31.5875 14.6497 31.6334 14.458 31.6292C14.2913 31.6334 14.1288 31.5959 13.983 31.5209C13.8413 31.4459 13.7205 31.3375 13.633 31.2V32.4084H13.333V29.4334H13.6122V29.8625C13.6955 29.7209 13.8163 29.6084 13.9622 29.5334C14.1122 29.4542 14.283 29.4167 14.4497 29.4167C14.6455 29.4167 14.8372 29.4625 15.008 29.5584ZM14.8455 31.2625C14.9705 31.1917 15.0705 31.0875 15.1372 30.9625C15.208 30.825 15.2455 30.675 15.2413 30.5209C15.2455 30.3667 15.208 30.2167 15.1372 30.0792C15.0705 29.9542 14.9705 29.85 14.8455 29.7792C14.7205 29.7084 14.5788 29.6709 14.433 29.6709C14.2872 29.6667 14.1455 29.7042 14.0163 29.7792C13.8955 29.85 13.7955 29.9542 13.7288 30.0792C13.658 30.2125 13.6205 30.3667 13.6247 30.5209C13.6205 30.675 13.658 30.825 13.7288 30.9625C13.7955 31.0875 13.8955 31.1917 14.0163 31.2625C14.1413 31.3334 14.2872 31.3709 14.433 31.3667C14.5747 31.3709 14.7205 31.3334 14.8455 31.2625ZM16.3747 31.4875C16.208 31.3959 16.0705 31.2584 15.9788 31.0917C15.7872 30.7375 15.7872 30.3084 15.9788 29.95C16.0705 29.7834 16.208 29.65 16.3747 29.5584C16.7288 29.3709 17.1538 29.3709 17.508 29.5584C17.6747 29.65 17.808 29.7875 17.9038 29.95C18.0955 30.3042 18.0955 30.7334 17.9038 31.0917C17.8122 31.2584 17.6747 31.3959 17.508 31.4875C17.1497 31.675 16.7247 31.675 16.3747 31.4875ZM17.3538 31.2625C17.4747 31.1917 17.5747 31.0875 17.6413 30.9625C17.7788 30.6834 17.7788 30.3584 17.6413 30.0792C17.5747 29.9542 17.4788 29.85 17.3538 29.7792C17.0955 29.6375 16.783 29.6375 16.5247 29.7792C16.4038 29.85 16.2997 29.9542 16.2372 30.0792C16.0955 30.3584 16.0955 30.6834 16.2372 30.9625C16.3038 31.0875 16.4038 31.1917 16.5247 31.2625C16.783 31.4042 17.0955 31.4042 17.3538 31.2625ZM21.683 29.4334L20.8622 31.6042H20.5872L19.8997 29.825L19.2122 31.6042H18.9372L18.1163 29.4334H18.3955L19.0788 31.2792L19.7788 29.4334H20.033L20.7247 31.2792L21.4163 29.4334H21.683ZM23.8747 30.6125H22.058C22.0663 30.8209 22.1622 31.0209 22.3163 31.1584C22.483 31.3 22.6955 31.375 22.9122 31.3667C23.0413 31.3667 23.1663 31.3417 23.283 31.2959C23.3955 31.2459 23.4955 31.175 23.5747 31.0834L23.7413 31.275C23.6455 31.3917 23.5205 31.4834 23.3788 31.5375C23.2288 31.6 23.0663 31.6292 22.9038 31.6292C22.6955 31.6334 22.4913 31.5834 22.3122 31.4875C22.1455 31.3959 22.0038 31.2584 21.908 31.0917C21.808 30.9167 21.758 30.7209 21.7622 30.5209C21.758 30.3209 21.808 30.125 21.8997 29.95C21.9872 29.7875 22.1205 29.65 22.283 29.5584C22.4497 29.4625 22.6372 29.4167 22.8247 29.4167C23.0163 29.4125 23.1997 29.4625 23.3663 29.5584C23.5247 29.65 23.6538 29.7875 23.7413 29.95C23.833 30.125 23.883 30.3209 23.8788 30.5209L23.8747 30.6125ZM22.2997 29.8709C22.158 30.0084 22.0705 30.1959 22.058 30.3917H23.5997C23.5872 30.1917 23.5038 30.0084 23.358 29.8709C23.0538 29.6042 22.5997 29.6042 22.2997 29.8709ZM24.983 29.5292C25.1413 29.45 25.3122 29.4125 25.4872 29.4167V29.7H25.4163C25.2163 29.6875 25.0205 29.7667 24.8788 29.9125C24.7413 30.0792 24.6705 30.2875 24.683 30.5042V31.6125H24.3913V29.4417H24.6705V29.8667C24.7372 29.7209 24.8455 29.6042 24.983 29.5292ZM27.8038 30.6125H25.9872C25.9955 30.8209 26.0913 31.0209 26.2455 31.1584C26.4122 31.3 26.6247 31.375 26.8413 31.3667C26.9705 31.3667 27.0955 31.3417 27.2122 31.2959C27.3247 31.2459 27.4247 31.175 27.5038 31.0834L27.6705 31.275C27.5747 31.3917 27.4497 31.4834 27.308 31.5375C27.158 31.6 26.9955 31.6292 26.833 31.6292C26.6247 31.6334 26.4205 31.5834 26.2413 31.4875C26.0747 31.3959 25.933 31.2584 25.8372 31.0917C25.7372 30.9167 25.6872 30.7209 25.6913 30.5209C25.6872 30.3209 25.7372 30.125 25.8288 29.95C25.9163 29.7875 26.0497 29.65 26.2122 29.5584C26.5497 29.3709 26.958 29.3709 27.2955 29.5584C27.4538 29.65 27.583 29.7875 27.6705 29.95C27.7622 30.125 27.8122 30.3209 27.808 30.5209L27.8038 30.6125ZM26.2288 29.8709C26.0872 30.0084 25.9997 30.1959 25.9872 30.3917H27.5288C27.5163 30.1917 27.4288 30.0084 27.2872 29.8709C26.983 29.6042 26.533 29.6042 26.2288 29.8709ZM30.308 28.5459V31.6125H30.0288V31.1834C29.9455 31.325 29.8247 31.4417 29.6788 31.5167C29.5288 31.5959 29.358 31.6334 29.1913 31.6334C28.9997 31.6375 28.808 31.5875 28.6372 31.4917C28.4747 31.4 28.3413 31.2625 28.2497 31.1C28.0622 30.7417 28.0622 30.3084 28.2497 29.95C28.3413 29.7875 28.4747 29.65 28.6372 29.5584C28.808 29.4667 28.9955 29.4167 29.1913 29.4209C29.358 29.4167 29.5205 29.4542 29.6663 29.5292C29.808 29.6042 29.9288 29.7125 30.0163 29.85V28.5459H30.308ZM29.6247 31.2667C29.7455 31.1959 29.8497 31.0917 29.9122 30.9667C30.0538 30.6875 30.0538 30.3625 29.9122 30.0834C29.8455 29.9584 29.7455 29.8542 29.6247 29.7834C29.3663 29.6417 29.058 29.6417 28.7997 29.7834C28.6788 29.8542 28.5747 29.9584 28.5122 30.0834C28.3705 30.3625 28.3705 30.6875 28.5122 30.9667C28.5788 31.0917 28.6788 31.1959 28.7997 31.2667C29.058 31.4084 29.3663 31.4084 29.6247 31.2667ZM33.7163 29.5584C33.8788 29.65 34.0163 29.7834 34.1038 29.95C34.2913 30.3084 34.2913 30.7417 34.1038 31.1C34.0122 31.2625 33.8788 31.4 33.7163 31.4917C33.5455 31.5875 33.358 31.6334 33.1622 31.6334C32.9913 31.6375 32.8247 31.5959 32.6747 31.5167C32.5288 31.4375 32.408 31.325 32.3247 31.1834V31.6125H32.0455V28.5417H32.3372V29.8459C32.4247 29.7084 32.5413 29.6 32.6872 29.525C32.833 29.45 32.9997 29.4125 33.1622 29.4167C33.3538 29.4167 33.5455 29.4625 33.7163 29.5584ZM33.5538 31.2625C33.6788 31.1917 33.7788 31.0875 33.8455 30.9625C33.9872 30.6834 33.9872 30.3584 33.8455 30.0792C33.7788 29.9542 33.6788 29.85 33.5538 29.7792C33.2955 29.6375 32.983 29.6375 32.7247 29.7792C32.6038 29.85 32.4997 29.9542 32.4372 30.0792C32.2955 30.3584 32.2955 30.6834 32.4372 30.9625C32.5038 31.0875 32.6038 31.1917 32.7247 31.2625C32.983 31.4042 33.2955 31.4042 33.5538 31.2625ZM36.5247 29.4334L35.4372 31.8667C35.3747 32.0375 35.2705 32.1834 35.1288 32.3C35.008 32.3875 34.8622 32.4334 34.7122 32.4292C34.6122 32.4292 34.5122 32.4125 34.4205 32.3792C34.333 32.3459 34.2497 32.2959 34.1872 32.2292L34.3247 32.0084C34.4288 32.1167 34.5705 32.175 34.7205 32.175C34.8122 32.1792 34.8997 32.15 34.9747 32.0917C35.0622 32.0125 35.1288 31.9167 35.1705 31.8125L35.2663 31.6L34.2955 29.4334H34.6038L35.4163 31.2792L36.233 29.4334H36.5247Z" fill="#641C36"/>
</g>
</svg>
