<svg width="133" height="40" viewBox="0 0 133 40" fill="none" xmlns="http://www.w3.org/2000/svg">
<path d="M128.074 0.000130063H4.92592C2.21666 0.000130063 0 2.21679 0 4.92604V34.4815C0 37.1908 2.21666 39.4075 4.92592 39.4075H128.074C130.783 39.4075 133 37.1908 133 34.4815V4.92604C133 2.21679 130.783 0.000130063 128.074 0.000130063ZM128.074 0.788274C130.356 0.788274 132.212 2.64476 132.212 4.92604V34.4815C132.212 36.7632 130.356 38.6197 128.074 38.6197H4.92592C2.64463 38.6197 0.788147 36.7632 0.788147 34.4815V4.92604C0.788147 2.64476 2.64463 0.788274 4.92592 0.788274H128.074Z" fill="#641C36"/>
</svg>
