<svg width="86" height="31" viewBox="0 0 86 31" fill="none" xmlns="http://www.w3.org/2000/svg">
<g opacity="0.75">
<path d="M85.9928 21.3316C85.6199 21.7739 85.3158 22.3301 84.8611 22.6356C83.8326 23.3286 82.7926 22.9487 81.876 21.6782C78.0676 23.3849 74.8028 22.6691 72.7128 19.6705C71.7786 18.3248 71.2953 16.687 71.3397 15.0171C71.3842 13.3472 71.9538 11.7409 72.9581 10.4531C74.0227 9.0982 75.5079 8.18924 77.1475 7.88904C78.7871 7.58883 80.4741 7.91699 81.9061 8.81473C83.0121 7.59891 83.9 7.30559 84.8912 7.99253C85.3416 8.30408 85.6357 8.86792 86 9.31778L85.9928 21.3316ZM75.0481 15.2616C75.065 16.1832 75.4234 17.0607 76.0457 17.7048C76.6681 18.3488 77.5046 18.7077 78.3745 18.7039C80.1748 18.6903 81.6953 17.0945 81.6852 15.2267C81.6752 13.3589 80.1489 11.7403 78.3788 11.7312C77.496 11.734 76.6502 12.1069 76.0261 12.7684C75.4019 13.43 75.0503 14.3263 75.0481 15.2616ZM58.7729 22.4928V26.8393C58.7729 27.2193 58.7859 27.5992 58.7729 27.9792C58.7098 29.2786 57.809 30.1859 56.5826 30.2011C55.3561 30.2163 54.395 29.3166 54.3162 28.0536C54.2659 27.2466 54.2932 26.432 54.2918 25.622C54.2918 20.6067 54.3047 15.5914 54.2817 10.5762C54.2817 9.45304 54.5055 8.49862 55.5024 7.95302C56.4535 7.43021 57.3342 7.61714 58.1604 8.33752C58.2895 8.44846 58.6395 8.37095 58.8447 8.27673C63.1336 6.30101 68.0839 8.92264 69.022 13.7175C69.5843 16.5899 68.8527 19.1204 66.8058 21.1022C64.7173 23.125 62.2515 23.6296 59.5404 22.7542C59.3295 22.6797 59.1287 22.6083 58.7729 22.4928ZM61.8814 11.7023C61.4218 11.6977 60.9658 11.7895 60.5399 11.9724C60.1139 12.1552 59.7263 12.4256 59.3993 12.7679C59.0724 13.1102 58.8126 13.5176 58.635 13.9667C58.4573 14.4159 58.3652 14.8978 58.3641 15.3847C58.361 16.1159 58.5625 16.8316 58.9431 17.4415C59.3237 18.0514 59.8664 18.5282 60.5026 18.8115C61.1388 19.0948 61.8399 19.172 62.5175 19.0334C63.1951 18.8948 63.8187 18.5465 64.3096 18.0326C64.8005 17.5186 65.1366 16.8621 65.2755 16.1459C65.4144 15.4297 65.3498 14.686 65.09 14.0086C64.8302 13.3312 64.3867 12.7507 63.8156 12.3402C63.2446 11.9297 62.5715 11.7077 61.8814 11.7023ZM41.0863 22.4928C41.0863 24.3818 41.1021 26.1524 41.0792 27.9229C41.0807 28.3959 40.9413 28.8573 40.6809 29.2415C40.4206 29.6257 40.0524 29.9131 39.6289 30.0628C38.7195 30.3667 37.8158 30.2512 37.2177 29.4245C36.8609 28.9277 36.6553 28.3277 36.6281 27.7041C36.5851 21.8545 36.6037 16.0018 36.6009 10.1552C36.6009 9.1582 36.9666 8.38007 37.8201 7.92414C38.6736 7.4682 39.5587 7.54723 40.2931 8.21898C40.6718 8.56397 40.9386 8.36184 41.2585 8.21898C45.5245 6.34965 50.2954 8.88616 51.2852 13.596C51.9034 16.5261 51.1704 19.0824 49.0776 21.1052C46.9847 23.128 44.562 23.6037 41.8853 22.7587C41.6544 22.6888 41.432 22.6128 41.0863 22.4928ZM44.1202 19.0611C44.8078 19.0644 45.4808 18.8515 46.0542 18.4495C46.6276 18.0474 47.0755 17.4742 47.3414 16.8023C47.6072 16.1304 47.6789 15.3901 47.5475 14.675C47.4161 13.9599 47.0875 13.3022 46.6032 12.7851C46.1189 12.2679 45.5007 11.9146 44.8268 11.7698C44.153 11.6249 43.4537 11.6952 42.8175 11.9715C42.1813 12.2479 41.6367 12.7179 41.2528 13.3223C40.8688 13.9266 40.6626 14.638 40.6603 15.3665C40.6546 17.3513 42.2482 19.0535 44.1202 19.0672V19.0611ZM19.039 10.5336V2.55019C19.0419 1.00306 19.9384 0 21.2983 0C22.6581 0 23.5374 1.03801 23.5374 2.57299C23.5374 7.51532 23.5475 12.4516 23.5288 17.4C23.5288 18.0474 23.6393 18.4638 24.2819 18.7359C25.3305 19.1918 25.7909 20.3879 25.4725 21.5064C25.3238 22.0598 24.9936 22.5387 24.5413 22.8571C24.089 23.1756 23.5444 23.3126 23.0053 23.2435C20.6083 22.9669 19.0634 21.1462 19.0433 18.517C19.0218 15.8559 19.039 13.1947 19.039 10.5336ZM11.0679 15.4288L14.6038 18.862C15.7126 19.9395 15.8517 21.435 14.9409 22.4867C14.03 23.5384 12.6171 23.5156 11.4982 22.4396C9.72811 20.7435 7.95897 19.0464 6.19079 17.3483C5.04324 16.2449 5.0332 14.6841 6.17501 13.5701C7.96328 11.8234 9.75967 10.0832 11.5642 8.34968C12.6271 7.3299 14.0644 7.36486 14.9552 8.39983C15.846 9.4348 15.7312 10.8908 14.6927 11.9196C13.5107 13.0899 12.3044 14.2343 11.0679 15.4288ZM28.4604 15.3787C28.4604 13.6324 28.4518 11.8832 28.4604 10.14C28.469 8.63996 29.4115 7.63386 30.777 7.64298C32.0939 7.65058 33.0262 8.66275 33.0305 10.1293C33.0392 13.6492 33.0392 17.168 33.0305 20.6857C33.0305 22.1766 32.0393 23.2694 30.7498 23.2587C29.4258 23.242 28.4676 22.1812 28.4547 20.6949C28.4533 18.9228 28.4604 17.1507 28.4604 15.3787ZM0.0169738 6.1156C0.0169738 4.95145 0.00262938 3.78729 0.0169738 2.6201C0.0485314 0.998496 0.933579 0 2.29486 0C3.69057 0.00759891 4.58996 1.06385 4.59857 2.68545C4.59857 5.06543 4.60717 7.44541 4.59857 9.82842C4.60784 10.3384 4.46271 10.8382 4.18444 11.2544C3.90617 11.6707 3.5094 11.9816 3.05224 12.1415C2.12703 12.4622 1.06268 12.2023 0.544847 11.368C0.248397 10.8592 0.0749677 10.2808 0.0399247 9.68405C-0.034666 8.50014 0.0184082 7.30559 0.0169738 6.1156Z" fill="#641C36"/>
<path d="M4.48043 20.7314C4.48043 22.195 3.62838 23.1327 2.29005 23.1312C1.01627 23.1312 0.106837 22.1555 0.1011 20.7831C0.0953618 19.4108 1.06361 18.3393 2.31587 18.3515C3.56813 18.3636 4.47757 19.3576 4.48043 20.7314Z" fill="#641C36"/>
</g>
</svg>
