<svg width="161" height="40" viewBox="0 0 161 40" fill="none" xmlns="http://www.w3.org/2000/svg">
<g opacity="0.8" clip-path="url(#clip0_320_20602)">
<path opacity="0.5" d="M12.8024 5.44992C15.841 -0.0145551 23.5806 -0.0145581 26.6192 5.44992C26.6192 5.44992 26.9034 5.9158 27.051 6.23194C28.3128 8.93418 27.0388 10.7795 25.6906 13.7485C25.0016 15.2654 24.0506 16.6741 23.0058 18.1017C22.7302 18.4783 22.4458 18.8592 22.1582 19.2442C21.3754 20.2924 20.57 21.3706 19.8609 22.4738C17.8793 25.5568 16.498 29.0534 17.689 33.7124C18.2711 35.9892 19.2597 37.5654 20.3516 38.6484H7.94839C1.86997 38.6484 -1.95236 31.9836 1.03994 26.6024L12.8024 5.44992Z" fill="#641C36"/>
<path d="M35.091 37.7754C34.025 38.33 32.8034 38.649 31.4736 38.649H25.0296C24.3786 38.649 23.7192 38.5602 23.1526 38.2396C21.9684 37.5694 20.4942 36.1872 19.7419 33.2446C18.7273 29.2758 19.8553 26.327 21.6662 23.5098C22.3348 22.4698 23.0766 21.4764 23.8448 20.4478C24.1412 20.051 24.4416 19.6488 24.7432 19.2368C25.8072 17.7826 26.8568 16.2413 27.6314 14.5356C28.3972 12.8492 28.8272 11.2527 29.0402 9.80386L38.3818 26.6032C40.626 30.639 39.0372 35.3968 35.5382 37.5236C35.3924 37.6122 35.2434 37.6962 35.091 37.7754Z" fill="#641C36"/>
<path d="M65.6378 30.8H70.0728L62.09 9.83768H57.3594L49.3174 30.8H53.634L55.3784 26.0104H63.8934L65.6378 30.8ZM59.636 14.3613L62.5334 22.285H56.7384L59.636 14.3613ZM76.3904 30.8V16.2535H72.4582V30.8H76.3904ZM71.985 11.4934C71.985 12.7943 73.079 13.8882 74.4094 13.8882C75.7696 13.8882 76.8338 12.7943 76.8338 11.4934C76.8338 10.1333 75.7696 9.0394 74.4094 9.0394C73.079 9.0394 71.985 10.1333 71.985 11.4934ZM89.4702 16.1944C89.1744 16.1648 88.8788 16.1352 88.5536 16.1352C87.3118 16.1352 85.3014 16.49 84.4144 18.4118V16.2535H80.6004V30.8H84.5326V24.1476C84.5326 21.0136 86.277 20.038 88.2874 20.038C88.6422 20.038 89.0266 20.0676 89.4702 20.1562V16.1944ZM96.1684 30.8V22.285C96.1684 20.6884 97.1736 19.4171 98.8886 19.4171C100.662 19.4171 101.461 20.5998 101.461 22.1668V30.8H105.363V22.285C105.363 20.718 106.369 19.4171 108.054 19.4171C109.858 19.4171 110.626 20.5998 110.626 22.1668V30.8H114.44V21.3684C114.44 17.4657 111.868 15.8396 109.177 15.8396C107.256 15.8396 105.718 16.49 104.565 18.264C103.826 16.697 102.229 15.8396 100.249 15.8396C98.652 15.8396 96.7894 16.6083 95.991 18.0275V16.2535H92.2362V30.8H96.1684ZM121.292 21.871C121.381 20.5406 122.504 19.0031 124.544 19.0031C126.791 19.0031 127.737 20.4224 127.796 21.871H121.292ZM128.181 25.6556C127.708 26.9564 126.703 27.873 124.869 27.873C122.918 27.873 121.292 26.4834 121.203 24.5616H131.61C131.61 24.5024 131.67 23.9112 131.67 23.3494C131.67 18.6779 128.979 15.81 124.485 15.81C120.76 15.81 117.33 18.8257 117.33 23.4676C117.33 28.3756 120.848 31.2434 124.84 31.2434C128.417 31.2434 130.723 29.1444 131.463 26.6312L128.181 25.6556ZM137.634 21.871C137.723 20.5406 138.846 19.0031 140.886 19.0031C143.133 19.0031 144.079 20.4224 144.139 21.871H137.634ZM144.523 25.6556C144.05 26.9564 143.045 27.873 141.212 27.873C139.26 27.873 137.634 26.4834 137.545 24.5616H147.953C147.953 24.5024 148.012 23.9112 148.012 23.3494C148.012 18.6779 145.321 15.81 140.827 15.81C137.102 15.81 133.672 18.8257 133.672 23.4676C133.672 28.3756 137.191 31.2434 141.182 31.2434C144.759 31.2434 147.066 29.1444 147.805 26.6312L144.523 25.6556ZM155.957 11.9073H152.409V13.9474C152.409 15.2483 151.7 16.2535 150.162 16.2535H149.423V19.7423H152.054V26.513C152.054 29.3216 153.828 31.007 156.667 31.007C157.82 31.007 158.529 30.8 158.884 30.6522V27.4C158.677 27.459 158.145 27.5182 157.672 27.5182C156.548 27.5182 155.957 27.1042 155.957 25.833V19.7423H158.884V16.2535H155.957V11.9073Z" fill="#641C36"/>
</g>
<defs>
<clipPath id="clip0_320_20602">
<rect width="160.4" height="40" fill="white"/>
</clipPath>
</defs>
</svg>
