<svg width="39" height="7" viewBox="0 0 39 7" fill="none" xmlns="http://www.w3.org/2000/svg">
<path d="M6.07853 2.97787H3.17177V3.69757H5.34951C5.29154 4.28421 5.05694 4.7457 4.66265 5.08052C4.26845 5.41534 3.76622 5.58275 3.17177 5.58275C2.51775 5.58275 1.96395 5.35746 1.51178 4.9053C1.06752 4.44382 0.842239 3.8743 0.842239 3.18753C0.842239 2.49917 1.06752 1.92965 1.51178 1.46977C1.96395 1.016 2.51775 0.790718 3.17177 0.790718C3.50649 0.790718 3.82409 0.84859 4.11826 0.97535C4.41083 1.10051 4.64543 1.27573 4.83006 1.50261L5.38235 0.950318C5.13204 0.66556 4.81284 0.446584 4.42014 0.286983C4.02595 0.128985 3.61443 0.0538898 3.17177 0.0538898C2.30027 0.0538898 1.56184 0.354269 0.959586 0.958129C0.355726 1.56199 0.0537464 2.30672 0.0537464 3.18753C0.0537464 4.06674 0.355726 4.81298 0.959586 5.41534C1.56184 6.0192 2.30027 6.32118 3.17177 6.32118C4.08382 6.32118 4.81284 6.02701 5.37454 5.43256C5.86886 4.93814 6.12078 4.26859 6.12078 3.43004C6.12078 3.28766 6.10356 3.13587 6.07853 2.97787ZM7.23659 0.186858V6.18661H10.7379V5.44978H8.00636V3.54739H10.4704V2.82608H8.00636V0.925287H10.7379V0.186858H7.23659ZM15.6718 0.925287V0.186858H11.5494V0.925287H13.225V6.18661H13.9947V0.925287H15.6718ZM19.4336 0.186858H18.6639V6.18661H19.4336V0.186858ZM24.5326 0.925287V0.186858H20.4103V0.925287H22.0858V6.18661H22.8554V0.925287H24.5326ZM32.3409 0.965938C31.7463 0.354269 31.0173 0.0538898 30.1459 0.0538898C29.2745 0.0538898 28.5455 0.354269 27.951 0.958129C27.3565 1.55268 27.0623 2.29892 27.0623 3.18753C27.0623 4.07455 27.3565 4.82079 27.951 5.41534C28.5455 6.0192 29.2745 6.32118 30.1459 6.32118C31.0095 6.32118 31.7463 6.0192 32.3409 5.41534C32.9369 4.82079 33.2295 4.07455 33.2295 3.18753C33.2295 2.30672 32.9369 1.56199 32.3409 0.965938ZM28.5033 1.46977C28.9475 1.016 29.492 0.790718 30.1459 0.790718C30.7998 0.790718 31.3443 1.016 31.7808 1.46977C32.2235 1.91403 32.4425 2.49136 32.4425 3.18753C32.4425 3.88211 32.2235 4.46104 31.7808 4.9053C31.3443 5.35746 30.7998 5.58275 30.1459 5.58275C29.492 5.58275 28.9475 5.35746 28.5033 4.9053C28.0683 4.45162 27.8508 3.88211 27.8508 3.18753C27.8508 2.49136 28.0683 1.92184 28.5033 1.46977ZM35.0912 2.4491L35.0583 1.29295H35.0912L38.1419 6.18661H38.9461V0.186858H38.1747V3.69757L38.2092 4.85363H38.1747L35.2586 0.186858H34.3215V6.18661H35.0912V2.4491Z" fill="white" stroke="white" stroke-width="0.105317" stroke-miterlimit="10"/>
</svg>
