<svg width="14" height="14" viewBox="0 0 14 14" fill="none" xmlns="http://www.w3.org/2000/svg">
<path d="M0.700077 6.99994L2.10006 5.59995M2.10006 5.59995L7 0.700013L11.8999 5.59995M2.10006 5.59995V12.5999C2.10006 12.7855 2.17381 12.9636 2.30508 13.0948C2.43636 13.2261 2.6144 13.2999 2.80005 13.2999H4.90003M11.8999 5.59995L13.2999 6.99994M11.8999 5.59995V12.5999C11.8999 12.7855 11.8262 12.9636 11.6949 13.0948C11.5636 13.2261 11.3856 13.2999 11.1999 13.2999H9.09997M4.90003 13.2999C5.08568 13.2999 5.26372 13.2261 5.39499 13.0948C5.52627 12.9636 5.60002 12.7855 5.60002 12.5999V9.7999C5.60002 9.61425 5.67377 9.43621 5.80504 9.30493C5.93631 9.17366 6.11436 9.09991 6.30001 9.09991H7.69999C7.88564 9.09991 8.06369 9.17366 8.19496 9.30493C8.32623 9.43621 8.39998 9.61425 8.39998 9.7999V12.5999C8.39998 12.7855 8.47373 12.9636 8.60501 13.0948C8.73628 13.2261 8.91433 13.2999 9.09997 13.2999M4.90003 13.2999H9.09997" stroke="#641C36" stroke-width="1.33333" stroke-linecap="round" stroke-linejoin="round"/>
</svg>
