<svg width="23" height="26" viewBox="0 0 23 26" fill="none" xmlns="http://www.w3.org/2000/svg">
<path d="M10.7382 12.2764L0.0978575 23.5699C0.0982573 23.5722 0.0990567 23.5742 0.0994565 23.5765C0.425768 24.8027 1.54582 25.7057 2.87515 25.7057C3.40655 25.7057 3.90546 25.5621 4.33331 25.3099L4.36729 25.29L16.3444 18.3787L10.7382 12.2764Z" fill="#EB3131"/>
<path d="M21.5031 10.3531L21.4929 10.3461L16.3221 7.34852L10.4966 12.5323L16.3424 18.3773L21.4859 15.4096C22.3877 14.9227 22.9999 13.9721 22.9999 12.8758C22.9999 11.7875 22.3959 10.8415 21.5031 10.3531Z" fill="#F6B60B"/>
<path d="M0.0975839 2.13522C0.0336208 2.37109 0 2.61814 0 2.8747V22.8308C0 23.0868 0.0332208 23.3347 0.0979834 23.5698L11.1045 12.5652L0.0975839 2.13522Z" fill="#5778C5"/>
<path d="M10.8166 12.8526L16.324 7.3468L4.3605 0.410607C3.92565 0.150158 3.41814 -0.000154261 2.87506 -0.000154261C1.54572 -0.000154261 0.424172 0.904424 0.0977604 2.13221C0.0973606 2.13341 0.0973608 2.13421 0.0973608 2.13531L10.8166 12.8526Z" fill="#3BAD49"/>
</svg>
