<svg width="28" height="36" viewBox="0 0 28 36" fill="none" xmlns="http://www.w3.org/2000/svg">
<g clip-path="url(#clip0_0_738)">
<path d="M19.315 13.086C18.8608 12.1441 18.3352 11.2352 17.7409 10.3655C18.2558 8.8642 19.1094 7.48868 20.2638 6.33429C21.2671 5.33107 22.4372 4.55476 23.7118 4.03058C24.244 4.56298 24.7324 5.13905 25.172 5.75232C21.9814 6.77093 19.6082 9.63658 19.315 13.086Z" fill="#054E58"/>
<path d="M23.5106 13.8083V22.2622C23.5106 27.5065 19.2441 31.773 13.9999 31.773C8.75573 31.773 4.48918 27.5064 4.48918 22.2622C4.48918 19.9314 2.59292 18.0353 0.262207 18.0353V15.9217C3.75835 15.9217 6.60269 18.7661 6.60269 22.2622C6.60269 26.341 9.92109 29.6594 14 29.6594C18.0789 29.6594 21.3973 26.341 21.3973 22.2622V13.8082C21.3973 10.8052 23.4958 8.28314 26.3035 7.63134C26.622 8.27055 26.8927 8.93747 27.1097 9.62807C25.0757 9.93253 23.5106 11.6909 23.5106 13.8083Z" fill="#054E58"/>
<path d="M18.7692 4.83981C18.0613 5.54772 17.4389 6.33578 16.9194 7.18206L16.2158 8.32787L15.2099 7.31453C12.7826 4.88727 9.86676 3.12489 6.68358 2.11556C7.50202 1.59855 8.37811 1.16508 9.30061 0.828208C11.6787 1.8303 13.8886 3.2324 15.8447 5.00223C16.279 4.41716 16.7574 3.86275 17.2748 3.34539C18.0578 2.56239 18.9133 1.87818 19.8261 1.29867C20.566 1.64664 21.2704 2.05797 21.9312 2.52695C20.7785 3.12137 19.7123 3.89671 18.7692 4.83981Z" fill="#054E58"/>
<path d="M14 36C6.42502 36 0.262207 29.8373 0.262207 22.2622V20.1487C1.42756 20.1487 2.37573 21.0968 2.37573 22.2622C2.37573 28.6718 7.59037 33.8865 14 33.8865C20.4096 33.8865 25.6242 28.6718 25.6242 22.2622V13.8082C25.6242 12.6938 26.4915 11.7787 27.5865 11.7007C27.6858 12.3655 27.7377 13.0456 27.7377 13.7378V22.2622C27.7377 29.8373 21.5749 36 14 36Z" fill="#054E58"/>
<path d="M14 27.546C11.0865 27.546 8.71622 25.1757 8.71622 22.2622C8.71622 17.6007 4.92378 13.8082 0.262207 13.8082V13.7377C0.262207 13.0443 0.314308 12.3627 0.414011 11.6965C3.18193 11.7352 5.77702 12.8291 7.73613 14.7882C9.73096 16.7831 10.8297 19.4374 10.8297 22.2622C10.8297 24.0103 12.2519 25.4325 13.9999 25.4325C15.7479 25.4325 17.1702 24.0102 17.1702 22.2622C17.1702 13.8575 11.0056 6.8664 2.96059 5.57047C3.45024 4.91045 3.99762 4.29592 4.59507 3.73384C8.02301 4.52732 11.1681 6.26157 13.7154 8.80892C17.3061 12.3997 19.2836 17.1774 19.2836 22.2622C19.2837 25.1757 16.9134 27.546 14 27.546Z" fill="#054E58"/>
<path d="M15.7805 1.85082C15.7162 1.91501 15.6524 1.97984 15.5892 2.04516C14.6297 1.31525 13.6224 0.657195 12.5727 0.0738836C13.042 0.0252275 13.5181 -1.21593e-05 14.0001 -1.21593e-05C15.173 -1.21593e-05 16.3118 0.148065 17.3993 0.425939C16.8321 0.865673 16.2902 1.34119 15.7805 1.85082Z" fill="#054E58"/>
<path d="M14 23.319C13.4164 23.319 12.9433 22.8459 12.9433 22.2623C12.9433 15.4839 7.59736 9.93081 0.900389 9.59725C1.12602 8.88484 1.40826 8.19747 1.74189 7.54026C5.1372 7.8746 8.28438 9.35706 10.7259 11.7986C13.5187 14.5915 15.0567 18.3075 15.0567 22.2623C15.0567 22.8459 14.5836 23.319 14 23.319Z" fill="#054E58"/>
</g>
<defs>
<clipPath id="clip0_0_738">
<rect width="28" height="36.0001" fill="white" transform="matrix(0.999998 0 0 -0.999998 0 36)"/>
</clipPath>
</defs>
</svg>
